<?xml version="1.0" encoding="utf-8" standalone="no"?>
<!DOCTYPE svg PUBLIC "-//W3C//DTD SVG 1.1//EN"
  "http://www.w3.org/Graphics/SVG/1.1/DTD/svg11.dtd">
<svg xmlns:xlink="http://www.w3.org/1999/xlink" width="460.8pt" height="345.6pt" viewBox="0 0 460.8 345.6" xmlns="http://www.w3.org/2000/svg" version="1.1">
 <metadata>
  <rdf:RDF xmlns:dc="http://purl.org/dc/elements/1.1/" xmlns:cc="http://creativecommons.org/ns#" xmlns:rdf="http://www.w3.org/1999/02/22-rdf-syntax-ns#">
   <cc:Work>
    <dc:type rdf:resource="http://purl.org/dc/dcmitype/StillImage"/>
    <dc:date>2024-10-17T15:07:24.897567</dc:date>
    <dc:format>image/svg+xml</dc:format>
    <dc:creator>
     <cc:Agent>
      <dc:title>Matplotlib v3.5.2, https://matplotlib.org/</dc:title>
     </cc:Agent>
    </dc:creator>
   </cc:Work>
  </rdf:RDF>
 </metadata>
 <defs>
  <style type="text/css">*{stroke-linejoin: round; stroke-linecap: butt}</style>
 </defs>
 <g id="figure_1">
  <g id="patch_1">
   <path d="M 0 345.6 
L 460.8 345.6 
L 460.8 0 
L 0 0 
z
" style="fill: #ffffff"/>
  </g>
  <g id="axes_1">
   <g id="patch_2">
    <path d="M 57.6 307.584 
L 414.72 307.584 
L 414.72 41.472 
L 57.6 41.472 
z
" style="fill: #ffffff"/>
   </g>
   <g id="matplotlib.axis_1">
    <g id="xtick_1">
     <g id="line2d_1">
      <path d="M 73.832727 307.584 
L 73.832727 41.472 
" clip-path="url(#p3862944662)" style="fill: none; stroke-dasharray: 2.96,1.28; stroke-dashoffset: 0; stroke: #b0b0b0; stroke-width: 0.8"/>
     </g>
     <g id="line2d_2">
      <defs>
       <path id="mc162f6146f" d="M 0 0 
L 0 3.5 
" style="stroke: #000000; stroke-width: 0.8"/>
      </defs>
      <g>
       <use xlink:href="#mc162f6146f" x="73.832727" y="307.584" style="stroke: #000000; stroke-width: 0.8"/>
      </g>
     </g>
     <g id="text_1">
      <!-- 0 -->
      <g transform="translate(70.651477 322.182437)scale(0.1 -0.1)">
       <defs>
        <path id="DejaVuSans-30" d="M 2034 4250 
Q 1547 4250 1301 3770 
Q 1056 3291 1056 2328 
Q 1056 1369 1301 889 
Q 1547 409 2034 409 
Q 2525 409 2770 889 
Q 3016 1369 3016 2328 
Q 3016 3291 2770 3770 
Q 2525 4250 2034 4250 
z
M 2034 4750 
Q 2819 4750 3233 4129 
Q 3647 3509 3647 2328 
Q 3647 1150 3233 529 
Q 2819 -91 2034 -91 
Q 1250 -91 836 529 
Q 422 1150 422 2328 
Q 422 3509 836 4129 
Q 1250 4750 2034 4750 
z
" transform="scale(0.015625)"/>
       </defs>
       <use xlink:href="#DejaVuSans-30"/>
      </g>
     </g>
    </g>
    <g id="xtick_2">
     <g id="line2d_3">
      <path d="M 114.618474 307.584 
L 114.618474 41.472 
" clip-path="url(#p3862944662)" style="fill: none; stroke-dasharray: 2.96,1.28; stroke-dashoffset: 0; stroke: #b0b0b0; stroke-width: 0.8"/>
     </g>
     <g id="line2d_4">
      <g>
       <use xlink:href="#mc162f6146f" x="114.618474" y="307.584" style="stroke: #000000; stroke-width: 0.8"/>
      </g>
     </g>
     <g id="text_2">
      <!-- 25 -->
      <g transform="translate(108.255974 322.182437)scale(0.1 -0.1)">
       <defs>
        <path id="DejaVuSans-32" d="M 1228 531 
L 3431 531 
L 3431 0 
L 469 0 
L 469 531 
Q 828 903 1448 1529 
Q 2069 2156 2228 2338 
Q 2531 2678 2651 2914 
Q 2772 3150 2772 3378 
Q 2772 3750 2511 3984 
Q 2250 4219 1831 4219 
Q 1534 4219 1204 4116 
Q 875 4013 500 3803 
L 500 4441 
Q 881 4594 1212 4672 
Q 1544 4750 1819 4750 
Q 2544 4750 2975 4387 
Q 3406 4025 3406 3419 
Q 3406 3131 3298 2873 
Q 3191 2616 2906 2266 
Q 2828 2175 2409 1742 
Q 1991 1309 1228 531 
z
" transform="scale(0.015625)"/>
        <path id="DejaVuSans-35" d="M 691 4666 
L 3169 4666 
L 3169 4134 
L 1269 4134 
L 1269 2991 
Q 1406 3038 1543 3061 
Q 1681 3084 1819 3084 
Q 2600 3084 3056 2656 
Q 3513 2228 3513 1497 
Q 3513 744 3044 326 
Q 2575 -91 1722 -91 
Q 1428 -91 1123 -41 
Q 819 9 494 109 
L 494 744 
Q 775 591 1075 516 
Q 1375 441 1709 441 
Q 2250 441 2565 725 
Q 2881 1009 2881 1497 
Q 2881 1984 2565 2268 
Q 2250 2553 1709 2553 
Q 1456 2553 1204 2497 
Q 953 2441 691 2322 
L 691 4666 
z
" transform="scale(0.015625)"/>
       </defs>
       <use xlink:href="#DejaVuSans-32"/>
       <use xlink:href="#DejaVuSans-35" x="63.623047"/>
      </g>
     </g>
    </g>
    <g id="xtick_3">
     <g id="line2d_5">
      <path d="M 155.404221 307.584 
L 155.404221 41.472 
" clip-path="url(#p3862944662)" style="fill: none; stroke-dasharray: 2.96,1.28; stroke-dashoffset: 0; stroke: #b0b0b0; stroke-width: 0.8"/>
     </g>
     <g id="line2d_6">
      <g>
       <use xlink:href="#mc162f6146f" x="155.404221" y="307.584" style="stroke: #000000; stroke-width: 0.8"/>
      </g>
     </g>
     <g id="text_3">
      <!-- 50 -->
      <g transform="translate(149.041721 322.182437)scale(0.1 -0.1)">
       <use xlink:href="#DejaVuSans-35"/>
       <use xlink:href="#DejaVuSans-30" x="63.623047"/>
      </g>
     </g>
    </g>
    <g id="xtick_4">
     <g id="line2d_7">
      <path d="M 196.189968 307.584 
L 196.189968 41.472 
" clip-path="url(#p3862944662)" style="fill: none; stroke-dasharray: 2.96,1.28; stroke-dashoffset: 0; stroke: #b0b0b0; stroke-width: 0.8"/>
     </g>
     <g id="line2d_8">
      <g>
       <use xlink:href="#mc162f6146f" x="196.189968" y="307.584" style="stroke: #000000; stroke-width: 0.8"/>
      </g>
     </g>
     <g id="text_4">
      <!-- 75 -->
      <g transform="translate(189.827468 322.182437)scale(0.1 -0.1)">
       <defs>
        <path id="DejaVuSans-37" d="M 525 4666 
L 3525 4666 
L 3525 4397 
L 1831 0 
L 1172 0 
L 2766 4134 
L 525 4134 
L 525 4666 
z
" transform="scale(0.015625)"/>
       </defs>
       <use xlink:href="#DejaVuSans-37"/>
       <use xlink:href="#DejaVuSans-35" x="63.623047"/>
      </g>
     </g>
    </g>
    <g id="xtick_5">
     <g id="line2d_9">
      <path d="M 236.975715 307.584 
L 236.975715 41.472 
" clip-path="url(#p3862944662)" style="fill: none; stroke-dasharray: 2.96,1.28; stroke-dashoffset: 0; stroke: #b0b0b0; stroke-width: 0.8"/>
     </g>
     <g id="line2d_10">
      <g>
       <use xlink:href="#mc162f6146f" x="236.975715" y="307.584" style="stroke: #000000; stroke-width: 0.8"/>
      </g>
     </g>
     <g id="text_5">
      <!-- 100 -->
      <g transform="translate(227.431965 322.182437)scale(0.1 -0.1)">
       <defs>
        <path id="DejaVuSans-31" d="M 794 531 
L 1825 531 
L 1825 4091 
L 703 3866 
L 703 4441 
L 1819 4666 
L 2450 4666 
L 2450 531 
L 3481 531 
L 3481 0 
L 794 0 
L 794 531 
z
" transform="scale(0.015625)"/>
       </defs>
       <use xlink:href="#DejaVuSans-31"/>
       <use xlink:href="#DejaVuSans-30" x="63.623047"/>
       <use xlink:href="#DejaVuSans-30" x="127.246094"/>
      </g>
     </g>
    </g>
    <g id="xtick_6">
     <g id="line2d_11">
      <path d="M 277.761462 307.584 
L 277.761462 41.472 
" clip-path="url(#p3862944662)" style="fill: none; stroke-dasharray: 2.96,1.28; stroke-dashoffset: 0; stroke: #b0b0b0; stroke-width: 0.8"/>
     </g>
     <g id="line2d_12">
      <g>
       <use xlink:href="#mc162f6146f" x="277.761462" y="307.584" style="stroke: #000000; stroke-width: 0.8"/>
      </g>
     </g>
     <g id="text_6">
      <!-- 125 -->
      <g transform="translate(268.217712 322.182437)scale(0.1 -0.1)">
       <use xlink:href="#DejaVuSans-31"/>
       <use xlink:href="#DejaVuSans-32" x="63.623047"/>
       <use xlink:href="#DejaVuSans-35" x="127.246094"/>
      </g>
     </g>
    </g>
    <g id="xtick_7">
     <g id="line2d_13">
      <path d="M 318.547209 307.584 
L 318.547209 41.472 
" clip-path="url(#p3862944662)" style="fill: none; stroke-dasharray: 2.96,1.28; stroke-dashoffset: 0; stroke: #b0b0b0; stroke-width: 0.8"/>
     </g>
     <g id="line2d_14">
      <g>
       <use xlink:href="#mc162f6146f" x="318.547209" y="307.584" style="stroke: #000000; stroke-width: 0.8"/>
      </g>
     </g>
     <g id="text_7">
      <!-- 150 -->
      <g transform="translate(309.003459 322.182437)scale(0.1 -0.1)">
       <use xlink:href="#DejaVuSans-31"/>
       <use xlink:href="#DejaVuSans-35" x="63.623047"/>
       <use xlink:href="#DejaVuSans-30" x="127.246094"/>
      </g>
     </g>
    </g>
    <g id="xtick_8">
     <g id="line2d_15">
      <path d="M 359.332956 307.584 
L 359.332956 41.472 
" clip-path="url(#p3862944662)" style="fill: none; stroke-dasharray: 2.96,1.28; stroke-dashoffset: 0; stroke: #b0b0b0; stroke-width: 0.8"/>
     </g>
     <g id="line2d_16">
      <g>
       <use xlink:href="#mc162f6146f" x="359.332956" y="307.584" style="stroke: #000000; stroke-width: 0.8"/>
      </g>
     </g>
     <g id="text_8">
      <!-- 175 -->
      <g transform="translate(349.789206 322.182437)scale(0.1 -0.1)">
       <use xlink:href="#DejaVuSans-31"/>
       <use xlink:href="#DejaVuSans-37" x="63.623047"/>
       <use xlink:href="#DejaVuSans-35" x="127.246094"/>
      </g>
     </g>
    </g>
    <g id="xtick_9">
     <g id="line2d_17">
      <path d="M 400.118703 307.584 
L 400.118703 41.472 
" clip-path="url(#p3862944662)" style="fill: none; stroke-dasharray: 2.96,1.28; stroke-dashoffset: 0; stroke: #b0b0b0; stroke-width: 0.8"/>
     </g>
     <g id="line2d_18">
      <g>
       <use xlink:href="#mc162f6146f" x="400.118703" y="307.584" style="stroke: #000000; stroke-width: 0.8"/>
      </g>
     </g>
     <g id="text_9">
      <!-- 200 -->
      <g transform="translate(390.574953 322.182437)scale(0.1 -0.1)">
       <use xlink:href="#DejaVuSans-32"/>
       <use xlink:href="#DejaVuSans-30" x="63.623047"/>
       <use xlink:href="#DejaVuSans-30" x="127.246094"/>
      </g>
     </g>
    </g>
    <g id="text_10">
     <!-- Epoch -->
     <g transform="translate(220.849063 335.860562)scale(0.1 -0.1)">
      <defs>
       <path id="DejaVuSans-45" d="M 628 4666 
L 3578 4666 
L 3578 4134 
L 1259 4134 
L 1259 2753 
L 3481 2753 
L 3481 2222 
L 1259 2222 
L 1259 531 
L 3634 531 
L 3634 0 
L 628 0 
L 628 4666 
z
" transform="scale(0.015625)"/>
       <path id="DejaVuSans-70" d="M 1159 525 
L 1159 -1331 
L 581 -1331 
L 581 3500 
L 1159 3500 
L 1159 2969 
Q 1341 3281 1617 3432 
Q 1894 3584 2278 3584 
Q 2916 3584 3314 3078 
Q 3713 2572 3713 1747 
Q 3713 922 3314 415 
Q 2916 -91 2278 -91 
Q 1894 -91 1617 61 
Q 1341 213 1159 525 
z
M 3116 1747 
Q 3116 2381 2855 2742 
Q 2594 3103 2138 3103 
Q 1681 3103 1420 2742 
Q 1159 2381 1159 1747 
Q 1159 1113 1420 752 
Q 1681 391 2138 391 
Q 2594 391 2855 752 
Q 3116 1113 3116 1747 
z
" transform="scale(0.015625)"/>
       <path id="DejaVuSans-6f" d="M 1959 3097 
Q 1497 3097 1228 2736 
Q 959 2375 959 1747 
Q 959 1119 1226 758 
Q 1494 397 1959 397 
Q 2419 397 2687 759 
Q 2956 1122 2956 1747 
Q 2956 2369 2687 2733 
Q 2419 3097 1959 3097 
z
M 1959 3584 
Q 2709 3584 3137 3096 
Q 3566 2609 3566 1747 
Q 3566 888 3137 398 
Q 2709 -91 1959 -91 
Q 1206 -91 779 398 
Q 353 888 353 1747 
Q 353 2609 779 3096 
Q 1206 3584 1959 3584 
z
" transform="scale(0.015625)"/>
       <path id="DejaVuSans-63" d="M 3122 3366 
L 3122 2828 
Q 2878 2963 2633 3030 
Q 2388 3097 2138 3097 
Q 1578 3097 1268 2742 
Q 959 2388 959 1747 
Q 959 1106 1268 751 
Q 1578 397 2138 397 
Q 2388 397 2633 464 
Q 2878 531 3122 666 
L 3122 134 
Q 2881 22 2623 -34 
Q 2366 -91 2075 -91 
Q 1284 -91 818 406 
Q 353 903 353 1747 
Q 353 2603 823 3093 
Q 1294 3584 2113 3584 
Q 2378 3584 2631 3529 
Q 2884 3475 3122 3366 
z
" transform="scale(0.015625)"/>
       <path id="DejaVuSans-68" d="M 3513 2113 
L 3513 0 
L 2938 0 
L 2938 2094 
Q 2938 2591 2744 2837 
Q 2550 3084 2163 3084 
Q 1697 3084 1428 2787 
Q 1159 2491 1159 1978 
L 1159 0 
L 581 0 
L 581 4863 
L 1159 4863 
L 1159 2956 
Q 1366 3272 1645 3428 
Q 1925 3584 2291 3584 
Q 2894 3584 3203 3211 
Q 3513 2838 3513 2113 
z
" transform="scale(0.015625)"/>
      </defs>
      <use xlink:href="#DejaVuSans-45"/>
      <use xlink:href="#DejaVuSans-70" x="63.183594"/>
      <use xlink:href="#DejaVuSans-6f" x="126.660156"/>
      <use xlink:href="#DejaVuSans-63" x="187.841797"/>
      <use xlink:href="#DejaVuSans-68" x="242.822266"/>
     </g>
    </g>
   </g>
   <g id="matplotlib.axis_2">
    <g id="ytick_1">
     <g id="line2d_19">
      <path d="M 57.6 307.584 
L 414.72 307.584 
" clip-path="url(#p3862944662)" style="fill: none; stroke-dasharray: 2.96,1.28; stroke-dashoffset: 0; stroke: #b0b0b0; stroke-width: 0.8"/>
     </g>
     <g id="line2d_20">
      <defs>
       <path id="me5212e4b97" d="M 0 0 
L -3.5 0 
" style="stroke: #000000; stroke-width: 0.8"/>
      </defs>
      <g>
       <use xlink:href="#me5212e4b97" x="57.6" y="307.584" style="stroke: #000000; stroke-width: 0.8"/>
      </g>
     </g>
     <g id="text_11">
      <!-- 80.0 -->
      <g transform="translate(28.334375 311.383219)scale(0.1 -0.1)">
       <defs>
        <path id="DejaVuSans-38" d="M 2034 2216 
Q 1584 2216 1326 1975 
Q 1069 1734 1069 1313 
Q 1069 891 1326 650 
Q 1584 409 2034 409 
Q 2484 409 2743 651 
Q 3003 894 3003 1313 
Q 3003 1734 2745 1975 
Q 2488 2216 2034 2216 
z
M 1403 2484 
Q 997 2584 770 2862 
Q 544 3141 544 3541 
Q 544 4100 942 4425 
Q 1341 4750 2034 4750 
Q 2731 4750 3128 4425 
Q 3525 4100 3525 3541 
Q 3525 3141 3298 2862 
Q 3072 2584 2669 2484 
Q 3125 2378 3379 2068 
Q 3634 1759 3634 1313 
Q 3634 634 3220 271 
Q 2806 -91 2034 -91 
Q 1263 -91 848 271 
Q 434 634 434 1313 
Q 434 1759 690 2068 
Q 947 2378 1403 2484 
z
M 1172 3481 
Q 1172 3119 1398 2916 
Q 1625 2713 2034 2713 
Q 2441 2713 2670 2916 
Q 2900 3119 2900 3481 
Q 2900 3844 2670 4047 
Q 2441 4250 2034 4250 
Q 1625 4250 1398 4047 
Q 1172 3844 1172 3481 
z
" transform="scale(0.015625)"/>
        <path id="DejaVuSans-2e" d="M 684 794 
L 1344 794 
L 1344 0 
L 684 0 
L 684 794 
z
" transform="scale(0.015625)"/>
       </defs>
       <use xlink:href="#DejaVuSans-38"/>
       <use xlink:href="#DejaVuSans-30" x="63.623047"/>
       <use xlink:href="#DejaVuSans-2e" x="127.246094"/>
       <use xlink:href="#DejaVuSans-30" x="159.033203"/>
      </g>
     </g>
    </g>
    <g id="ytick_2">
     <g id="line2d_21">
      <path d="M 57.6 275.904 
L 414.72 275.904 
" clip-path="url(#p3862944662)" style="fill: none; stroke-dasharray: 2.96,1.28; stroke-dashoffset: 0; stroke: #b0b0b0; stroke-width: 0.8"/>
     </g>
     <g id="line2d_22">
      <g>
       <use xlink:href="#me5212e4b97" x="57.6" y="275.904" style="stroke: #000000; stroke-width: 0.8"/>
      </g>
     </g>
     <g id="text_12">
      <!-- 82.5 -->
      <g transform="translate(28.334375 279.703219)scale(0.1 -0.1)">
       <use xlink:href="#DejaVuSans-38"/>
       <use xlink:href="#DejaVuSans-32" x="63.623047"/>
       <use xlink:href="#DejaVuSans-2e" x="127.246094"/>
       <use xlink:href="#DejaVuSans-35" x="159.033203"/>
      </g>
     </g>
    </g>
    <g id="ytick_3">
     <g id="line2d_23">
      <path d="M 57.6 244.224 
L 414.72 244.224 
" clip-path="url(#p3862944662)" style="fill: none; stroke-dasharray: 2.96,1.28; stroke-dashoffset: 0; stroke: #b0b0b0; stroke-width: 0.8"/>
     </g>
     <g id="line2d_24">
      <g>
       <use xlink:href="#me5212e4b97" x="57.6" y="244.224" style="stroke: #000000; stroke-width: 0.8"/>
      </g>
     </g>
     <g id="text_13">
      <!-- 85.0 -->
      <g transform="translate(28.334375 248.023219)scale(0.1 -0.1)">
       <use xlink:href="#DejaVuSans-38"/>
       <use xlink:href="#DejaVuSans-35" x="63.623047"/>
       <use xlink:href="#DejaVuSans-2e" x="127.246094"/>
       <use xlink:href="#DejaVuSans-30" x="159.033203"/>
      </g>
     </g>
    </g>
    <g id="ytick_4">
     <g id="line2d_25">
      <path d="M 57.6 212.544 
L 414.72 212.544 
" clip-path="url(#p3862944662)" style="fill: none; stroke-dasharray: 2.96,1.28; stroke-dashoffset: 0; stroke: #b0b0b0; stroke-width: 0.8"/>
     </g>
     <g id="line2d_26">
      <g>
       <use xlink:href="#me5212e4b97" x="57.6" y="212.544" style="stroke: #000000; stroke-width: 0.8"/>
      </g>
     </g>
     <g id="text_14">
      <!-- 87.5 -->
      <g transform="translate(28.334375 216.343219)scale(0.1 -0.1)">
       <use xlink:href="#DejaVuSans-38"/>
       <use xlink:href="#DejaVuSans-37" x="63.623047"/>
       <use xlink:href="#DejaVuSans-2e" x="127.246094"/>
       <use xlink:href="#DejaVuSans-35" x="159.033203"/>
      </g>
     </g>
    </g>
    <g id="ytick_5">
     <g id="line2d_27">
      <path d="M 57.6 180.864 
L 414.72 180.864 
" clip-path="url(#p3862944662)" style="fill: none; stroke-dasharray: 2.96,1.28; stroke-dashoffset: 0; stroke: #b0b0b0; stroke-width: 0.8"/>
     </g>
     <g id="line2d_28">
      <g>
       <use xlink:href="#me5212e4b97" x="57.6" y="180.864" style="stroke: #000000; stroke-width: 0.8"/>
      </g>
     </g>
     <g id="text_15">
      <!-- 90.0 -->
      <g transform="translate(28.334375 184.663219)scale(0.1 -0.1)">
       <defs>
        <path id="DejaVuSans-39" d="M 703 97 
L 703 672 
Q 941 559 1184 500 
Q 1428 441 1663 441 
Q 2288 441 2617 861 
Q 2947 1281 2994 2138 
Q 2813 1869 2534 1725 
Q 2256 1581 1919 1581 
Q 1219 1581 811 2004 
Q 403 2428 403 3163 
Q 403 3881 828 4315 
Q 1253 4750 1959 4750 
Q 2769 4750 3195 4129 
Q 3622 3509 3622 2328 
Q 3622 1225 3098 567 
Q 2575 -91 1691 -91 
Q 1453 -91 1209 -44 
Q 966 3 703 97 
z
M 1959 2075 
Q 2384 2075 2632 2365 
Q 2881 2656 2881 3163 
Q 2881 3666 2632 3958 
Q 2384 4250 1959 4250 
Q 1534 4250 1286 3958 
Q 1038 3666 1038 3163 
Q 1038 2656 1286 2365 
Q 1534 2075 1959 2075 
z
" transform="scale(0.015625)"/>
       </defs>
       <use xlink:href="#DejaVuSans-39"/>
       <use xlink:href="#DejaVuSans-30" x="63.623047"/>
       <use xlink:href="#DejaVuSans-2e" x="127.246094"/>
       <use xlink:href="#DejaVuSans-30" x="159.033203"/>
      </g>
     </g>
    </g>
    <g id="ytick_6">
     <g id="line2d_29">
      <path d="M 57.6 149.184 
L 414.72 149.184 
" clip-path="url(#p3862944662)" style="fill: none; stroke-dasharray: 2.96,1.28; stroke-dashoffset: 0; stroke: #b0b0b0; stroke-width: 0.8"/>
     </g>
     <g id="line2d_30">
      <g>
       <use xlink:href="#me5212e4b97" x="57.6" y="149.184" style="stroke: #000000; stroke-width: 0.8"/>
      </g>
     </g>
     <g id="text_16">
      <!-- 92.5 -->
      <g transform="translate(28.334375 152.983219)scale(0.1 -0.1)">
       <use xlink:href="#DejaVuSans-39"/>
       <use xlink:href="#DejaVuSans-32" x="63.623047"/>
       <use xlink:href="#DejaVuSans-2e" x="127.246094"/>
       <use xlink:href="#DejaVuSans-35" x="159.033203"/>
      </g>
     </g>
    </g>
    <g id="ytick_7">
     <g id="line2d_31">
      <path d="M 57.6 117.504 
L 414.72 117.504 
" clip-path="url(#p3862944662)" style="fill: none; stroke-dasharray: 2.96,1.28; stroke-dashoffset: 0; stroke: #b0b0b0; stroke-width: 0.8"/>
     </g>
     <g id="line2d_32">
      <g>
       <use xlink:href="#me5212e4b97" x="57.6" y="117.504" style="stroke: #000000; stroke-width: 0.8"/>
      </g>
     </g>
     <g id="text_17">
      <!-- 95.0 -->
      <g transform="translate(28.334375 121.303219)scale(0.1 -0.1)">
       <use xlink:href="#DejaVuSans-39"/>
       <use xlink:href="#DejaVuSans-35" x="63.623047"/>
       <use xlink:href="#DejaVuSans-2e" x="127.246094"/>
       <use xlink:href="#DejaVuSans-30" x="159.033203"/>
      </g>
     </g>
    </g>
    <g id="ytick_8">
     <g id="line2d_33">
      <path d="M 57.6 85.824 
L 414.72 85.824 
" clip-path="url(#p3862944662)" style="fill: none; stroke-dasharray: 2.96,1.28; stroke-dashoffset: 0; stroke: #b0b0b0; stroke-width: 0.8"/>
     </g>
     <g id="line2d_34">
      <g>
       <use xlink:href="#me5212e4b97" x="57.6" y="85.824" style="stroke: #000000; stroke-width: 0.8"/>
      </g>
     </g>
     <g id="text_18">
      <!-- 97.5 -->
      <g transform="translate(28.334375 89.623219)scale(0.1 -0.1)">
       <use xlink:href="#DejaVuSans-39"/>
       <use xlink:href="#DejaVuSans-37" x="63.623047"/>
       <use xlink:href="#DejaVuSans-2e" x="127.246094"/>
       <use xlink:href="#DejaVuSans-35" x="159.033203"/>
      </g>
     </g>
    </g>
    <g id="ytick_9">
     <g id="line2d_35">
      <path d="M 57.6 54.144 
L 414.72 54.144 
" clip-path="url(#p3862944662)" style="fill: none; stroke-dasharray: 2.96,1.28; stroke-dashoffset: 0; stroke: #b0b0b0; stroke-width: 0.8"/>
     </g>
     <g id="line2d_36">
      <g>
       <use xlink:href="#me5212e4b97" x="57.6" y="54.144" style="stroke: #000000; stroke-width: 0.8"/>
      </g>
     </g>
     <g id="text_19">
      <!-- 100.0 -->
      <g transform="translate(21.971875 57.943219)scale(0.1 -0.1)">
       <use xlink:href="#DejaVuSans-31"/>
       <use xlink:href="#DejaVuSans-30" x="63.623047"/>
       <use xlink:href="#DejaVuSans-30" x="127.246094"/>
       <use xlink:href="#DejaVuSans-2e" x="190.869141"/>
       <use xlink:href="#DejaVuSans-30" x="222.65625"/>
      </g>
     </g>
    </g>
    <g id="text_20">
     <!-- Train Accuracy % -->
     <g transform="translate(15.892187 217.278781)rotate(-90)scale(0.1 -0.1)">
      <defs>
       <path id="DejaVuSans-54" d="M -19 4666 
L 3928 4666 
L 3928 4134 
L 2272 4134 
L 2272 0 
L 1638 0 
L 1638 4134 
L -19 4134 
L -19 4666 
z
" transform="scale(0.015625)"/>
       <path id="DejaVuSans-72" d="M 2631 2963 
Q 2534 3019 2420 3045 
Q 2306 3072 2169 3072 
Q 1681 3072 1420 2755 
Q 1159 2438 1159 1844 
L 1159 0 
L 581 0 
L 581 3500 
L 1159 3500 
L 1159 2956 
Q 1341 3275 1631 3429 
Q 1922 3584 2338 3584 
Q 2397 3584 2469 3576 
Q 2541 3569 2628 3553 
L 2631 2963 
z
" transform="scale(0.015625)"/>
       <path id="DejaVuSans-61" d="M 2194 1759 
Q 1497 1759 1228 1600 
Q 959 1441 959 1056 
Q 959 750 1161 570 
Q 1363 391 1709 391 
Q 2188 391 2477 730 
Q 2766 1069 2766 1631 
L 2766 1759 
L 2194 1759 
z
M 3341 1997 
L 3341 0 
L 2766 0 
L 2766 531 
Q 2569 213 2275 61 
Q 1981 -91 1556 -91 
Q 1019 -91 701 211 
Q 384 513 384 1019 
Q 384 1609 779 1909 
Q 1175 2209 1959 2209 
L 2766 2209 
L 2766 2266 
Q 2766 2663 2505 2880 
Q 2244 3097 1772 3097 
Q 1472 3097 1187 3025 
Q 903 2953 641 2809 
L 641 3341 
Q 956 3463 1253 3523 
Q 1550 3584 1831 3584 
Q 2591 3584 2966 3190 
Q 3341 2797 3341 1997 
z
" transform="scale(0.015625)"/>
       <path id="DejaVuSans-69" d="M 603 3500 
L 1178 3500 
L 1178 0 
L 603 0 
L 603 3500 
z
M 603 4863 
L 1178 4863 
L 1178 4134 
L 603 4134 
L 603 4863 
z
" transform="scale(0.015625)"/>
       <path id="DejaVuSans-6e" d="M 3513 2113 
L 3513 0 
L 2938 0 
L 2938 2094 
Q 2938 2591 2744 2837 
Q 2550 3084 2163 3084 
Q 1697 3084 1428 2787 
Q 1159 2491 1159 1978 
L 1159 0 
L 581 0 
L 581 3500 
L 1159 3500 
L 1159 2956 
Q 1366 3272 1645 3428 
Q 1925 3584 2291 3584 
Q 2894 3584 3203 3211 
Q 3513 2838 3513 2113 
z
" transform="scale(0.015625)"/>
       <path id="DejaVuSans-20" transform="scale(0.015625)"/>
       <path id="DejaVuSans-41" d="M 2188 4044 
L 1331 1722 
L 3047 1722 
L 2188 4044 
z
M 1831 4666 
L 2547 4666 
L 4325 0 
L 3669 0 
L 3244 1197 
L 1141 1197 
L 716 0 
L 50 0 
L 1831 4666 
z
" transform="scale(0.015625)"/>
       <path id="DejaVuSans-75" d="M 544 1381 
L 544 3500 
L 1119 3500 
L 1119 1403 
Q 1119 906 1312 657 
Q 1506 409 1894 409 
Q 2359 409 2629 706 
Q 2900 1003 2900 1516 
L 2900 3500 
L 3475 3500 
L 3475 0 
L 2900 0 
L 2900 538 
Q 2691 219 2414 64 
Q 2138 -91 1772 -91 
Q 1169 -91 856 284 
Q 544 659 544 1381 
z
M 1991 3584 
L 1991 3584 
z
" transform="scale(0.015625)"/>
       <path id="DejaVuSans-79" d="M 2059 -325 
Q 1816 -950 1584 -1140 
Q 1353 -1331 966 -1331 
L 506 -1331 
L 506 -850 
L 844 -850 
Q 1081 -850 1212 -737 
Q 1344 -625 1503 -206 
L 1606 56 
L 191 3500 
L 800 3500 
L 1894 763 
L 2988 3500 
L 3597 3500 
L 2059 -325 
z
" transform="scale(0.015625)"/>
       <path id="DejaVuSans-25" d="M 4653 2053 
Q 4381 2053 4226 1822 
Q 4072 1591 4072 1178 
Q 4072 772 4226 539 
Q 4381 306 4653 306 
Q 4919 306 5073 539 
Q 5228 772 5228 1178 
Q 5228 1588 5073 1820 
Q 4919 2053 4653 2053 
z
M 4653 2450 
Q 5147 2450 5437 2106 
Q 5728 1763 5728 1178 
Q 5728 594 5436 251 
Q 5144 -91 4653 -91 
Q 4153 -91 3862 251 
Q 3572 594 3572 1178 
Q 3572 1766 3864 2108 
Q 4156 2450 4653 2450 
z
M 1428 4353 
Q 1159 4353 1004 4120 
Q 850 3888 850 3481 
Q 850 3069 1003 2837 
Q 1156 2606 1428 2606 
Q 1700 2606 1854 2837 
Q 2009 3069 2009 3481 
Q 2009 3884 1853 4118 
Q 1697 4353 1428 4353 
z
M 4250 4750 
L 4750 4750 
L 1831 -91 
L 1331 -91 
L 4250 4750 
z
M 1428 4750 
Q 1922 4750 2215 4408 
Q 2509 4066 2509 3481 
Q 2509 2891 2217 2550 
Q 1925 2209 1428 2209 
Q 931 2209 642 2551 
Q 353 2894 353 3481 
Q 353 4063 643 4406 
Q 934 4750 1428 4750 
z
" transform="scale(0.015625)"/>
      </defs>
      <use xlink:href="#DejaVuSans-54"/>
      <use xlink:href="#DejaVuSans-72" x="46.333984"/>
      <use xlink:href="#DejaVuSans-61" x="87.447266"/>
      <use xlink:href="#DejaVuSans-69" x="148.726562"/>
      <use xlink:href="#DejaVuSans-6e" x="176.509766"/>
      <use xlink:href="#DejaVuSans-20" x="239.888672"/>
      <use xlink:href="#DejaVuSans-41" x="271.675781"/>
      <use xlink:href="#DejaVuSans-63" x="338.333984"/>
      <use xlink:href="#DejaVuSans-63" x="393.314453"/>
      <use xlink:href="#DejaVuSans-75" x="448.294922"/>
      <use xlink:href="#DejaVuSans-72" x="511.673828"/>
      <use xlink:href="#DejaVuSans-61" x="552.787109"/>
      <use xlink:href="#DejaVuSans-63" x="614.066406"/>
      <use xlink:href="#DejaVuSans-79" x="669.046875"/>
      <use xlink:href="#DejaVuSans-20" x="728.226562"/>
      <use xlink:href="#DejaVuSans-25" x="760.013672"/>
     </g>
    </g>
   </g>
   <g id="line2d_37">
    <path d="M 78.323922 346.6 
L 78.727017 330.418944 
L 80.358447 297.547776 
L 81.989877 277.855488 
L 83.621307 262.446336 
L 85.252736 253.499904 
L 88.515596 242.982144 
L 90.147026 238.977792 
L 91.778456 235.632384 
L 93.409886 231.881472 
L 95.041316 227.091456 
L 96.672746 224.20224 
L 98.304175 221.769216 
L 99.935605 220.882176 
L 101.567035 216.877824 
L 103.198465 215.610624 
L 104.829895 212.544 
L 106.461325 211.048704 
L 108.092755 210.13632 
L 109.724185 206.208 
L 111.355614 204.890112 
L 112.987044 206.486784 
L 114.618474 202.938624 
L 116.249904 201.291264 
L 117.881334 200.454912 
L 119.512764 199.922688 
L 121.144194 199.821312 
L 122.775624 200.049408 
L 124.407053 196.298496 
L 126.038483 199.517184 
L 127.669913 195.842304 
L 129.301343 196.653312 
L 130.932773 195.335424 
L 132.564203 197.768448 
L 134.195633 192.167424 
L 135.827063 193.536 
L 137.458492 191.990016 
L 139.089922 192.64896 
L 140.721352 190.824192 
L 142.352782 190.063872 
L 143.984212 193.003776 
L 145.615642 191.407104 
L 147.247072 190.950912 
L 148.878502 190.013184 
L 150.509931 189.886464 
L 152.141361 192.978432 
L 153.772791 189.151488 
L 155.404221 190.646784 
L 157.035651 187.909632 
L 158.667081 189.633024 
L 160.298511 189.404928 
L 161.929941 185.2992 
L 163.56137 188.872704 
L 165.1928 188.112384 
L 166.82423 188.923392 
L 168.45566 186.971904 
L 170.08709 186.43968 
L 171.71852 187.123968 
L 173.34995 187.149312 
L 174.98138 186.084864 
L 176.61281 186.465024 
L 178.244239 185.831424 
L 179.875669 187.478784 
L 181.507099 186.287616 
L 183.138529 185.577984 
L 184.769959 186.465024 
L 186.401389 186.135552 
L 188.032819 183.373056 
L 191.295678 189.582336 
L 192.927108 181.066752 
L 194.558538 185.400576 
L 196.189968 192.040704 
L 197.821398 181.396224 
L 199.452828 187.70688 
L 201.084258 183.01824 
L 202.715688 182.815488 
L 204.347117 185.375232 
L 205.978547 180.585216 
L 207.609977 184.589568 
L 209.241407 185.071104 
L 210.872837 183.702528 
L 212.504267 180.914688 
L 214.135697 184.361472 
L 215.767127 182.25792 
L 217.398556 188.036352 
L 219.029986 183.449088 
L 220.661416 185.755392 
L 222.292846 182.739456 
L 223.924276 182.992896 
L 225.555706 182.181888 
L 227.187136 184.032 
L 228.818566 184.209408 
L 230.449995 185.831424 
L 232.081425 187.757568 
L 233.712855 181.4976 
L 235.344285 185.780736 
L 238.607145 182.536704 
L 240.238575 180.61056 
L 241.870005 183.449088 
L 243.501434 183.14496 
L 245.132864 181.573632 
L 246.764294 182.562048 
L 248.395724 182.029824 
L 250.027154 181.776384 
L 251.658584 180.61056 
L 253.290014 181.598976 
L 254.921444 184.716288 
L 256.552873 181.345536 
L 258.184303 182.866176 
L 259.815733 183.347712 
L 261.447163 181.979136 
L 263.078593 182.1312 
L 264.710023 179.140608 
L 266.341453 182.739456 
L 267.972883 183.727872 
L 269.604312 181.016064 
L 271.235742 182.080512 
L 272.867172 180.940032 
L 274.498602 180.762624 
L 276.130032 186.465024 
L 277.761462 181.24416 
L 279.392892 182.029824 
L 281.024322 180.711936 
L 282.655751 180.35712 
L 284.287181 177.94944 
L 285.918611 181.345536 
L 287.550041 182.63808 
L 289.181471 181.953792 
L 290.812901 180.35712 
L 292.444331 181.548288 
L 294.075761 182.460672 
L 295.70719 180.534528 
L 297.33862 182.486016 
L 298.97005 178.937856 
L 300.60148 181.75104 
L 302.23291 179.191296 
L 303.86434 181.548288 
L 305.49577 180.154368 
L 307.1272 180.002304 
L 308.75863 182.967552 
L 310.390059 183.347712 
L 312.021489 181.066752 
L 313.652919 179.622144 
L 315.284349 180.965376 
L 316.915779 182.688768 
L 318.547209 117.88416 
L 320.178639 99.7632 
L 321.810069 92.007936 
L 323.441498 86.812416 
L 325.072928 82.985472 
L 326.704358 78.702336 
L 328.335788 78.905088 
L 329.967218 74.850048 
L 331.598648 73.810944 
L 333.230078 70.389504 
L 334.861508 69.958656 
L 336.492937 68.438016 
L 338.124367 68.438016 
L 339.755797 67.474944 
L 341.387227 68.59008 
L 343.018657 67.57632 
L 344.650087 65.979648 
L 346.281517 67.018752 
L 347.912947 65.574144 
L 349.544376 65.117952 
L 351.175806 65.700864 
L 352.807236 68.108544 
L 354.438666 65.700864 
L 356.070096 69.071616 
L 357.701526 67.120128 
L 359.332956 67.981824 
L 360.964386 65.67552 
L 362.595815 68.438016 
L 364.227245 68.615424 
L 365.858675 66.866688 
L 367.490105 68.361984 
L 369.121535 70.414848 
L 370.752965 70.465536 
L 372.384395 69.198336 
L 374.015825 71.479296 
L 375.647254 70.465536 
L 377.278684 72.695808 
L 378.910114 72.112896 
L 380.541544 72.188928 
L 382.172974 72.974592 
L 383.804404 71.808768 
L 385.435834 73.456128 
L 387.067264 71.656704 
L 388.698693 72.442368 
L 390.330123 73.886976 
L 391.961553 73.810944 
L 393.592983 73.456128 
L 395.224413 74.621952 
L 396.855843 72.036864 
L 398.487273 73.7856 
L 398.487273 73.7856 
" clip-path="url(#p3862944662)" style="fill: none; stroke: #1f77b4; stroke-width: 1.5; stroke-linecap: square"/>
   </g>
   <g id="line2d_38">
    <path d="M 79.317118 346.6 
L 80.358447 315.31392 
L 81.989877 275.625216 
L 83.621307 249.16608 
L 85.252736 229.473792 
L 88.515596 193.40928 
L 90.147026 184.41216 
L 91.778456 171.48672 
L 93.409886 165.100032 
L 95.041316 152.85888 
L 96.672746 145.914624 
L 99.935605 135.346176 
L 101.567035 127.692288 
L 103.198465 122.623488 
L 104.829895 116.11008 
L 108.092755 108.38016 
L 109.724185 105.744384 
L 111.355614 102.094848 
L 112.987044 99.307008 
L 114.618474 95.83488 
L 116.249904 95.353344 
L 117.881334 90.690048 
L 119.512764 88.890624 
L 121.144194 86.761728 
L 122.775624 84.328704 
L 124.407053 84.201984 
L 126.038483 82.78272 
L 127.669913 82.377216 
L 129.301343 80.197632 
L 130.932773 80.197632 
L 132.564203 79.86816 
L 134.195633 76.345344 
L 135.827063 77.054976 
L 137.458492 75.661056 
L 139.089922 75.610368 
L 140.721352 72.543744 
L 142.352782 73.861632 
L 143.984212 73.760256 
L 145.615642 70.693632 
L 147.247072 72.290304 
L 148.878502 71.986176 
L 150.509931 70.718976 
L 152.141361 70.186752 
L 153.772791 70.085376 
L 155.404221 68.691456 
L 157.035651 69.198336 
L 158.667081 68.412672 
L 161.929941 68.666112 
L 163.56137 67.804416 
L 165.1928 67.627008 
L 166.82423 66.613248 
L 168.45566 66.739968 
L 170.08709 67.221504 
L 171.71852 65.700864 
L 173.34995 66.410496 
L 174.98138 66.258432 
L 176.61281 64.965888 
L 178.244239 65.371392 
L 179.875669 64.66176 
L 181.507099 64.306944 
L 183.138529 64.864512 
L 184.769959 64.02816 
L 186.401389 65.016576 
L 188.032819 64.2816 
L 189.664249 64.9152 
L 191.295678 63.369216 
L 192.927108 64.509696 
L 194.558538 63.546624 
L 196.189968 64.357632 
L 197.821398 63.673344 
L 199.452828 62.786304 
L 201.084258 62.355456 
L 202.715688 62.710272 
L 204.347117 63.419904 
L 205.978547 61.797888 
L 207.609977 62.710272 
L 210.872837 61.569792 
L 212.504267 62.203392 
L 215.767127 61.595136 
L 217.398556 61.975296 
L 220.661416 62.304768 
L 222.292846 61.417728 
L 223.924276 60.910848 
L 225.555706 60.632064 
L 227.187136 62.152704 
L 228.818566 60.35328 
L 230.449995 61.443072 
L 232.081425 60.60672 
L 233.712855 61.088256 
L 235.344285 60.98688 
L 236.975715 60.73344 
L 238.607145 60.327936 
L 241.870005 60.73344 
L 243.501434 59.33952 
L 245.132864 61.037568 
L 246.764294 60.530688 
L 248.395724 60.378624 
L 250.027154 60.809472 
L 251.658584 59.111424 
L 253.290014 60.22656 
L 254.921444 60.378624 
L 256.552873 59.998464 
L 258.184303 60.023808 
L 259.815733 58.427136 
L 261.447163 60.023808 
L 263.078593 60.73344 
L 264.710023 59.010048 
L 266.341453 59.59296 
L 267.972883 59.288832 
L 269.604312 60.074496 
L 271.235742 59.238144 
L 272.867172 58.934016 
L 274.498602 58.83264 
L 276.130032 60.049152 
L 277.761462 59.238144 
L 279.392892 59.46624 
L 281.024322 58.857984 
L 282.655751 58.908672 
L 285.918611 59.263488 
L 287.550041 58.781952 
L 289.181471 58.807296 
L 290.812901 59.162112 
L 292.444331 59.238144 
L 294.075761 58.934016 
L 295.70719 58.300416 
L 298.97005 58.781952 
L 300.60148 58.655232 
L 302.23291 58.70592 
L 303.86434 58.275072 
L 305.49577 58.45248 
L 307.1272 57.666816 
L 308.75863 59.136768 
L 310.390059 58.477824 
L 313.652919 57.69216 
L 315.284349 58.401792 
L 316.915779 56.095488 
L 318.547209 54.726912 
L 320.178639 54.625536 
L 321.810069 54.752256 
L 323.441498 54.346752 
L 328.335788 54.321408 
L 329.967218 54.39744 
L 333.230078 54.144 
L 336.492937 54.245376 
L 338.124367 54.194688 
L 339.755797 54.321408 
L 341.387227 54.169344 
L 343.018657 54.245376 
L 346.281517 54.144 
L 347.912947 54.245376 
L 357.701526 54.194688 
L 360.964386 54.27072 
L 362.595815 54.144 
L 367.490105 54.232704 
L 369.121535 54.169344 
L 372.384395 54.194688 
L 387.067264 54.156672 
L 391.961553 54.182016 
L 398.487273 54.156672 
L 398.487273 54.156672 
" clip-path="url(#p3862944662)" style="fill: none; stroke: #ff7f0e; stroke-width: 1.5; stroke-linecap: square"/>
   </g>
   <g id="line2d_39">
    <path d="M 79.245052 346.6 
L 80.358447 312.52608 
L 81.989877 276.867072 
L 83.621307 247.315968 
L 86.884166 210.617856 
L 88.515596 196.780032 
L 90.147026 184.336128 
L 91.778456 173.615616 
L 93.409886 167.43168 
L 96.672746 150.679296 
L 98.304175 145.433088 
L 99.935605 138.564864 
L 101.567035 136.38528 
L 103.198465 129.187584 
L 104.829895 123.45984 
L 106.461325 122.116608 
L 108.092755 115.98336 
L 109.724185 112.587264 
L 111.355614 110.483712 
L 112.987044 106.327296 
L 114.618474 104.07168 
L 116.249904 101.385216 
L 117.881334 98.470656 
L 119.512764 97.35552 
L 121.144194 91.881216 
L 122.775624 90.690048 
L 124.407053 88.307712 
L 126.038483 89.042688 
L 127.669913 88.155648 
L 129.301343 82.808064 
L 130.932773 83.9232 
L 132.564203 84.607488 
L 134.195633 83.441664 
L 135.827063 80.37504 
L 137.458492 78.322176 
L 139.089922 79.462656 
L 140.721352 77.536512 
L 142.352782 77.511168 
L 143.984212 74.900736 
L 145.615642 74.951424 
L 147.247072 75.17952 
L 148.878502 72.77184 
L 150.509931 73.27872 
L 152.141361 70.769664 
L 153.772791 72.721152 
L 155.404221 71.682048 
L 157.035651 72.163584 
L 158.667081 70.947072 
L 160.298511 70.440192 
L 163.56137 69.984 
L 165.1928 70.288128 
L 168.45566 66.968064 
L 170.08709 67.398912 
L 173.34995 67.32288 
L 174.98138 66.94272 
L 176.61281 66.68928 
L 178.244239 68.564736 
L 179.875669 67.474944 
L 181.507099 64.611072 
L 183.138529 65.624832 
L 184.769959 67.170816 
L 186.401389 65.04192 
L 188.032819 65.954304 
L 189.664249 65.726208 
L 191.295678 66.004992 
L 192.927108 64.864512 
L 194.558538 64.332288 
L 196.189968 65.396736 
L 197.821398 65.574144 
L 199.452828 62.836992 
L 201.084258 64.509696 
L 202.715688 64.737792 
L 204.347117 63.952128 
L 207.609977 64.459008 
L 209.241407 63.52128 
L 210.872837 63.597312 
L 212.504267 62.811648 
L 214.135697 63.52128 
L 215.767127 63.166464 
L 217.398556 63.166464 
L 219.029986 63.343872 
L 220.661416 61.797888 
L 222.292846 62.482176 
L 223.924276 63.318528 
L 225.555706 62.76096 
L 227.187136 63.470592 
L 228.818566 62.279424 
L 230.449995 63.749376 
L 232.081425 60.708096 
L 233.712855 63.217152 
L 235.344285 60.885504 
L 236.975715 62.862336 
L 238.607145 62.00064 
L 240.238575 61.87392 
L 241.870005 62.051328 
L 243.501434 61.544448 
L 245.132864 61.544448 
L 246.764294 62.025984 
L 248.395724 62.279424 
L 250.027154 60.35328 
L 251.658584 59.897088 
L 253.290014 61.138944 
L 254.921444 61.721856 
L 256.552873 61.595136 
L 258.184303 61.291008 
L 259.815733 61.62048 
L 263.078593 60.657408 
L 264.710023 60.403968 
L 266.341453 61.36704 
L 267.972883 60.581376 
L 271.235742 60.961536 
L 272.867172 60.530688 
L 274.498602 60.758784 
L 277.761462 60.936192 
L 279.392892 60.809472 
L 281.024322 60.175872 
L 282.655751 60.556032 
L 284.287181 59.542272 
L 287.550041 59.770368 
L 289.181471 60.454656 
L 292.444331 60.09984 
L 294.075761 60.758784 
L 295.70719 60.454656 
L 297.33862 61.1136 
L 298.97005 60.657408 
L 300.60148 60.023808 
L 302.23291 59.71968 
L 303.86434 58.629888 
L 305.49577 60.302592 
L 307.1272 59.694336 
L 308.75863 60.378624 
L 310.390059 60.201216 
L 312.021489 58.680576 
L 313.652919 60.049152 
L 315.284349 58.83264 
L 316.915779 60.327936 
L 318.547209 57.996288 
L 320.178639 56.855808 
L 321.810069 55.563264 
L 323.441498 55.588608 
L 325.072928 55.335168 
L 326.704358 55.512576 
L 329.967218 55.107072 
L 331.598648 54.853632 
L 336.492937 55.081728 
L 339.755797 54.676224 
L 341.387227 54.878976 
L 344.650087 54.726912 
L 347.912947 54.929664 
L 349.544376 54.878976 
L 351.175806 54.701568 
L 352.807236 54.853632 
L 354.438666 54.65088 
L 359.332956 54.828288 
L 360.964386 54.701568 
L 365.858675 54.802944 
L 367.490105 54.52416 
L 369.121535 54.574848 
L 370.752965 54.448128 
L 372.384395 54.701568 
L 374.015825 54.7776 
L 375.647254 54.422784 
L 377.278684 54.752256 
L 382.172974 54.473472 
L 388.698693 54.498816 
L 390.330123 54.422784 
L 391.961553 54.549504 
L 393.592983 54.498816 
L 396.855843 54.574848 
L 398.487273 54.473472 
L 398.487273 54.473472 
" clip-path="url(#p3862944662)" style="fill: none; stroke: #2ca02c; stroke-width: 1.5; stroke-linecap: square"/>
   </g>
   <g id="line2d_40">
    <path d="M 77.674868 346.6 
L 78.727017 311.360256 
L 80.358447 282.087936 
L 81.989877 259.227648 
L 85.252736 230.588928 
L 86.884166 224.430336 
L 88.515596 214.470144 
L 90.147026 205.523712 
L 91.778456 203.16672 
L 93.409886 194.017536 
L 95.041316 191.179008 
L 96.672746 188.72064 
L 98.304175 181.598976 
L 99.935605 180.179712 
L 101.567035 173.8944 
L 103.198465 175.085568 
L 104.829895 171.841536 
L 106.461325 169.484544 
L 108.092755 168.420096 
L 109.724185 164.846592 
L 111.355614 163.148544 
L 112.987044 161.653248 
L 114.618474 160.5888 
L 116.249904 158.105088 
L 117.881334 156.711168 
L 119.512764 155.01312 
L 121.144194 154.50624 
L 122.775624 153.74592 
L 124.407053 152.630784 
L 126.038483 151.997184 
L 127.669913 149.589504 
L 129.301343 149.94432 
L 130.932773 146.446848 
L 132.564203 146.294784 
L 134.195633 148.094208 
L 135.827063 145.686528 
L 137.458492 145.154304 
L 139.089922 144.799488 
L 140.721352 143.86176 
L 142.352782 142.239744 
L 143.984212 139.984128 
L 145.615642 140.288256 
L 147.247072 143.000064 
L 148.878502 141.986304 
L 150.509931 139.730688 
L 152.141361 139.249152 
L 153.772791 137.804544 
L 155.404221 139.375872 
L 157.035651 137.449728 
L 158.667081 136.740096 
L 160.298511 135.320832 
L 161.929941 134.788608 
L 163.56137 138.007296 
L 165.1928 135.903744 
L 166.82423 134.86464 
L 168.45566 133.014528 
L 170.08709 132.279552 
L 171.71852 132.228864 
L 173.34995 130.099968 
L 174.98138 133.191936 
L 176.61281 131.721984 
L 178.244239 132.304896 
L 179.875669 130.606848 
L 181.507099 127.819008 
L 184.769959 131.747328 
L 186.401389 129.16224 
L 188.032819 129.567744 
L 189.664249 130.480128 
L 191.295678 132.102144 
L 192.927108 128.630016 
L 194.558538 131.874048 
L 196.189968 128.604672 
L 197.821398 128.65536 
L 199.452828 126.171648 
L 201.084258 129.212928 
L 202.715688 126.450432 
L 204.347117 128.097792 
L 205.978547 126.75456 
L 207.609977 128.40192 
L 209.241407 127.38816 
L 210.872837 125.918208 
L 212.504267 125.335296 
L 214.135697 125.99424 
L 215.767127 124.651008 
L 217.398556 127.312128 
L 219.029986 122.674176 
L 220.661416 125.031168 
L 222.292846 123.814656 
L 223.924276 123.58656 
L 225.555706 125.385984 
L 227.187136 126.931968 
L 228.818566 123.003648 
L 230.449995 123.763968 
L 233.712855 123.282432 
L 235.344285 122.496768 
L 236.975715 123.637248 
L 238.607145 125.031168 
L 240.238575 124.651008 
L 241.870005 121.888512 
L 243.501434 123.865344 
L 245.132864 120.241152 
L 246.764294 122.674176 
L 248.395724 124.321536 
L 250.027154 123.054336 
L 251.658584 121.330944 
L 253.290014 121.05216 
L 254.921444 121.81248 
L 256.552873 123.307776 
L 258.184303 121.128192 
L 259.815733 121.761792 
L 261.447163 121.736448 
L 263.078593 122.598144 
L 264.710023 122.141952 
L 266.341453 118.086912 
L 267.972883 121.406976 
L 269.604312 121.17888 
L 271.235742 120.54528 
L 272.867172 119.582208 
L 274.498602 121.229568 
L 276.130032 120.16512 
L 277.761462 118.821888 
L 279.392892 121.001472 
L 281.024322 119.556864 
L 282.655751 120.494592 
L 284.287181 121.001472 
L 285.918611 119.53152 
L 287.550041 117.732096 
L 289.181471 121.406976 
L 290.812901 118.086912 
L 292.444331 119.227392 
L 294.075761 118.340352 
L 295.70719 119.683584 
L 297.33862 120.367872 
L 298.97005 119.328768 
L 300.60148 117.225216 
L 302.23291 116.135424 
L 305.49577 119.176704 
L 307.1272 117.225216 
L 308.75863 120.621312 
L 310.390059 117.351936 
L 312.021489 117.808128 
L 315.284349 119.53152 
L 316.915779 115.932672 
L 318.547209 90.994176 
L 320.178639 79.10784 
L 321.810069 75.6864 
L 323.441498 71.75808 
L 325.072928 71.175168 
L 326.704358 70.212096 
L 328.335788 67.855104 
L 329.967218 68.59008 
L 331.598648 68.412672 
L 333.230078 66.233088 
L 334.861508 67.550976 
L 336.492937 64.104192 
L 338.124367 64.813824 
L 339.755797 63.724032 
L 341.387227 63.090432 
L 343.018657 64.205568 
L 344.650087 63.648 
L 346.281517 63.749376 
L 347.912947 62.355456 
L 351.175806 62.558208 
L 352.807236 61.721856 
L 354.438666 61.36704 
L 356.070096 62.659584 
L 357.701526 61.62048 
L 360.964386 62.152704 
L 362.595815 61.291008 
L 364.227245 61.088256 
L 365.858675 61.443072 
L 367.490105 61.189632 
L 369.121535 60.454656 
L 370.752965 60.758784 
L 372.384395 61.265664 
L 374.015825 61.164288 
L 375.647254 60.834816 
L 377.278684 60.09984 
L 378.910114 61.392384 
L 380.541544 61.037568 
L 382.172974 60.35328 
L 383.804404 60.885504 
L 385.435834 61.138944 
L 387.067264 60.556032 
L 388.698693 60.758784 
L 390.330123 59.745024 
L 391.961553 61.088256 
L 393.592983 59.770368 
L 395.224413 60.961536 
L 396.855843 59.897088 
L 398.487273 59.516928 
L 398.487273 59.516928 
" clip-path="url(#p3862944662)" style="fill: none; stroke: #d62728; stroke-width: 1.5; stroke-linecap: square"/>
   </g>
   <g id="line2d_41">
    <path d="M 77.992578 346.6 
L 78.727017 320.940288 
L 80.358447 287.05536 
L 85.252736 231.247872 
L 86.884166 224.379648 
L 88.515596 216.928512 
L 90.147026 205.5744 
L 91.778456 200.429568 
L 93.409886 196.906752 
L 95.041316 189.759744 
L 96.672746 187.808256 
L 98.304175 184.53888 
L 99.935605 177.670656 
L 101.567035 175.060224 
L 103.198465 170.751744 
L 104.829895 168.850944 
L 106.461325 164.13696 
L 108.092755 162.971136 
L 109.724185 164.669184 
L 111.355614 161.653248 
L 112.987044 159.727104 
L 114.618474 156.812544 
L 116.249904 155.291904 
L 117.881334 155.291904 
L 119.512764 152.402688 
L 121.144194 151.946496 
L 122.775624 149.386752 
L 124.407053 147.359232 
L 126.038483 148.195584 
L 127.669913 149.741568 
L 129.301343 146.345472 
L 130.932773 145.154304 
L 132.564203 145.610496 
L 134.195633 139.629312 
L 135.827063 142.746624 
L 137.458492 141.910272 
L 139.089922 140.034816 
L 140.721352 138.79296 
L 142.352782 138.210048 
L 143.984212 134.889984 
L 145.615642 137.931264 
L 147.247072 134.48448 
L 148.878502 137.449728 
L 150.509931 134.763264 
L 152.141361 135.954432 
L 153.772791 133.21728 
L 155.404221 131.56992 
L 157.035651 133.318656 
L 158.667081 132.051456 
L 160.298511 131.18976 
L 161.929941 133.369344 
L 163.56137 128.78208 
L 165.1928 128.173824 
L 166.82423 129.390336 
L 168.45566 129.66912 
L 170.08709 128.807424 
L 171.71852 125.36064 
L 173.34995 130.606848 
L 174.98138 127.666944 
L 176.61281 125.7408 
L 178.244239 124.904448 
L 179.875669 126.146304 
L 181.507099 123.789312 
L 183.138529 125.056512 
L 184.769959 125.436672 
L 186.401389 122.724864 
L 188.032819 125.411328 
L 189.664249 121.761792 
L 191.295678 126.3744 
L 192.927108 122.775552 
L 194.558538 121.711104 
L 196.189968 124.144128 
L 197.821398 121.761792 
L 201.084258 119.049984 
L 204.347117 121.989888 
L 205.978547 121.68576 
L 207.609977 117.75744 
L 209.241407 119.15136 
L 210.872837 117.174528 
L 212.504267 119.202048 
L 214.135697 118.340352 
L 215.767127 119.430144 
L 217.398556 118.39104 
L 219.029986 118.39104 
L 220.661416 120.950784 
L 222.292846 117.098496 
L 223.924276 117.681408 
L 225.555706 119.227392 
L 227.187136 116.692992 
L 228.818566 117.681408 
L 230.449995 117.098496 
L 232.081425 117.149184 
L 233.712855 116.921088 
L 235.344285 114.361344 
L 236.975715 114.285312 
L 238.607145 115.653888 
L 240.238575 116.186112 
L 241.870005 115.527168 
L 243.501434 117.605376 
L 245.132864 115.248384 
L 246.764294 116.921088 
L 248.395724 116.388864 
L 250.027154 112.536576 
L 251.658584 115.932672 
L 253.290014 114.614784 
L 254.921444 115.628544 
L 256.552873 113.474304 
L 258.184303 112.764672 
L 259.815733 114.412032 
L 261.447163 112.94208 
L 263.078593 114.259968 
L 264.710023 110.483712 
L 266.341453 113.144832 
L 267.972883 111.320064 
L 269.604312 112.232448 
L 271.235742 112.866048 
L 272.867172 110.939904 
L 274.498602 110.078208 
L 276.130032 111.902976 
L 277.761462 111.396096 
L 279.392892 111.015936 
L 281.024322 109.976832 
L 282.655751 111.066624 
L 284.287181 111.345408 
L 285.918611 112.131072 
L 287.550041 109.2672 
L 289.181471 111.826944 
L 290.812901 111.29472 
L 294.075761 109.571328 
L 295.70719 110.711808 
L 298.97005 107.670528 
L 300.60148 110.179584 
L 302.23291 109.672704 
L 303.86434 108.912384 
L 305.49577 112.485888 
L 307.1272 109.39392 
L 308.75863 107.670528 
L 310.390059 112.004352 
L 312.021489 109.596672 
L 313.652919 110.559744 
L 315.284349 107.290368 
L 316.915779 106.530048 
L 318.547209 84.404736 
L 320.178639 74.16576 
L 321.810069 69.73056 
L 323.441498 67.880448 
L 325.072928 66.94272 
L 326.704358 65.16864 
L 328.335788 63.850752 
L 329.967218 63.166464 
L 331.598648 62.88768 
L 341.387227 60.074496 
L 344.650087 59.491584 
L 346.281517 59.364864 
L 347.912947 59.770368 
L 349.544376 58.883328 
L 351.175806 58.95936 
L 352.807236 58.680576 
L 356.070096 58.83264 
L 357.701526 57.970944 
L 359.332956 58.19904 
L 360.964386 57.413376 
L 362.595815 57.768192 
L 364.227245 57.413376 
L 365.858675 58.021632 
L 367.490105 57.514752 
L 370.752965 57.514752 
L 372.384395 57.793536 
L 374.015825 57.666816 
L 375.647254 57.312 
L 377.278684 57.590784 
L 378.910114 57.616128 
L 380.541544 56.55168 
L 382.172974 56.779776 
L 383.804404 57.56544 
L 385.435834 57.109248 
L 388.698693 56.93184 
L 390.330123 57.109248 
L 391.961553 57.05856 
L 393.592983 57.56544 
L 395.224413 57.083904 
L 396.855843 56.80512 
L 398.487273 57.159936 
L 398.487273 57.159936 
" clip-path="url(#p3862944662)" style="fill: none; stroke: #9467bd; stroke-width: 1.5; stroke-linecap: square"/>
   </g>
   <g id="line2d_42">
    <path d="M 77.502144 346.6 
L 78.727017 305.860608 
L 80.358447 265.51296 
L 81.989877 240.625152 
L 83.621307 220.856832 
L 85.252736 203.622912 
L 86.884166 194.524416 
L 88.515596 180.027648 
L 90.147026 174.806784 
L 93.409886 153.188352 
L 95.041316 151.515648 
L 98.304175 141.099264 
L 99.935605 133.065216 
L 101.567035 131.392512 
L 103.198465 128.604672 
L 104.829895 121.05216 
L 106.461325 120.595968 
L 108.092755 116.414208 
L 109.724185 113.119488 
L 111.355614 111.92832 
L 112.987044 109.368576 
L 114.618474 108.6336 
L 116.249904 104.781312 
L 117.881334 107.315712 
L 119.512764 102.373632 
L 121.144194 101.359872 
L 122.775624 99.104256 
L 124.407053 96.21504 
L 126.038483 96.873984 
L 127.669913 97.710336 
L 129.301343 96.72192 
L 130.932773 93.17376 
L 132.564203 95.353344 
L 134.195633 89.955072 
L 135.827063 92.337408 
L 137.458492 90.411264 
L 139.089922 88.992 
L 140.721352 89.524224 
L 142.352782 86.609664 
L 143.984212 87.21792 
L 145.615642 87.34464 
L 147.247072 88.61184 
L 148.878502 88.333056 
L 150.509931 85.393152 
L 152.141361 84.81024 
L 153.772791 85.06368 
L 155.404221 86.280192 
L 157.035651 86.96448 
L 158.667081 83.2896 
L 160.298511 86.001408 
L 161.929941 86.356224 
L 163.56137 82.554624 
L 165.1928 82.656 
L 166.82423 83.897856 
L 170.08709 81.921024 
L 171.71852 85.165056 
L 173.34995 83.948544 
L 174.98138 81.64224 
L 176.61281 80.983296 
L 178.244239 85.57056 
L 179.875669 83.745792 
L 181.507099 80.222976 
L 183.138529 82.858752 
L 184.769959 83.492352 
L 186.401389 80.1216 
L 188.032819 82.706688 
L 189.664249 79.411968 
L 191.295678 81.971712 
L 192.927108 82.52928 
L 194.558538 79.310592 
L 196.189968 81.3888 
L 197.821398 82.706688 
L 199.452828 81.540864 
L 201.084258 78.72768 
L 202.715688 81.51552 
L 204.347117 80.7552 
L 205.978547 80.957952 
L 207.609977 82.478592 
L 209.241407 77.08032 
L 210.872837 81.870336 
L 212.504267 79.969536 
L 214.135697 82.199808 
L 215.767127 79.133184 
L 217.398556 79.792128 
L 219.029986 79.158528 
L 220.661416 79.817472 
L 222.292846 81.667584 
L 223.924276 81.591552 
L 225.555706 78.905088 
L 227.187136 79.285248 
L 228.818566 79.386624 
L 230.449995 79.259904 
L 232.081425 81.743616 
L 233.712855 80.7552 
L 235.344285 81.490176 
L 236.975715 79.564032 
L 238.607145 81.89568 
L 240.238575 79.259904 
L 241.870005 78.018048 
L 243.501434 76.32 
L 245.132864 78.955776 
L 246.764294 78.448896 
L 248.395724 79.513344 
L 250.027154 79.183872 
L 251.658584 79.411968 
L 253.290014 78.018048 
L 254.921444 77.485824 
L 256.552873 80.957952 
L 258.184303 75.914496 
L 259.815733 79.716096 
L 261.447163 81.566208 
L 263.078593 77.004288 
L 264.710023 77.916672 
L 266.341453 78.626304 
L 267.972883 76.167936 
L 269.604312 75.30624 
L 271.235742 78.651648 
L 272.867172 80.527104 
L 274.498602 77.891328 
L 276.130032 78.09408 
L 279.392892 77.739264 
L 281.024322 79.259904 
L 282.655751 78.651648 
L 284.287181 76.497408 
L 285.918611 78.372864 
L 287.550041 75.508992 
L 289.181471 76.57344 
L 290.812901 74.92608 
L 292.444331 75.762432 
L 294.075761 74.140416 
L 295.70719 76.978944 
L 297.33862 73.963008 
L 298.97005 78.803712 
L 300.60148 75.585024 
L 302.23291 77.257728 
L 303.86434 78.550272 
L 305.49577 75.990528 
L 308.75863 75.331584 
L 310.390059 75.382272 
L 312.021489 74.343168 
L 313.652919 78.195456 
L 315.284349 76.167936 
L 316.915779 76.396032 
L 318.547209 61.36704 
L 320.178639 56.703744 
L 321.810069 55.436544 
L 323.441498 55.766016 
L 325.072928 54.802944 
L 329.967218 54.701568 
L 331.598648 54.549504 
L 333.230078 54.752256 
L 334.861508 54.422784 
L 344.650087 54.473472 
L 346.281517 54.220032 
L 349.544376 54.39744 
L 351.175806 54.39744 
L 352.807236 54.245376 
L 354.438666 54.346752 
L 357.701526 54.220032 
L 360.964386 54.346752 
L 362.595815 54.245376 
L 367.490105 54.27072 
L 369.121535 54.169344 
L 372.384395 54.220032 
L 374.015825 54.144 
L 380.541544 54.27072 
L 385.435834 54.296064 
L 391.961553 54.220032 
L 393.592983 54.169344 
L 395.224413 54.27072 
L 396.855843 54.220032 
L 398.487273 54.296064 
L 398.487273 54.296064 
" clip-path="url(#p3862944662)" style="fill: none; stroke: #8c564b; stroke-width: 1.5; stroke-linecap: square"/>
   </g>
   <g id="line2d_43">
    <path d="M 76.820493 346.6 
L 77.095587 329.202432 
L 78.727017 283.659264 
L 80.358447 253.145088 
L 81.989877 231.04512 
L 83.621307 211.302144 
L 85.252736 200.657664 
L 86.884166 185.67936 
L 88.515596 177.594624 
L 90.147026 166.063104 
L 91.778456 158.586624 
L 93.409886 151.819776 
L 95.041316 145.661184 
L 96.672746 141.682176 
L 98.304175 133.800192 
L 99.935605 128.65536 
L 101.567035 125.690112 
L 103.198465 117.402624 
L 104.829895 116.36352 
L 106.461325 114.412032 
L 109.724185 104.046336 
L 111.355614 100.574208 
L 112.987044 97.710336 
L 114.618474 99.205632 
L 116.249904 97.051392 
L 117.881334 90.8928 
L 119.512764 88.713216 
L 121.144194 88.130304 
L 122.775624 86.888448 
L 124.407053 86.280192 
L 126.038483 84.328704 
L 127.669913 81.033984 
L 129.301343 81.971712 
L 130.932773 78.651648 
L 132.564203 80.552448 
L 134.195633 79.61472 
L 135.827063 74.850048 
L 137.458492 77.359104 
L 139.089922 72.77184 
L 140.721352 74.267136 
L 142.352782 72.442368 
L 143.984212 74.976768 
L 145.615642 73.02528 
L 148.878502 72.062208 
L 150.509931 68.032512 
L 152.141361 71.606016 
L 153.772791 70.99776 
L 155.404221 70.6176 
L 157.035651 69.958656 
L 158.667081 69.046272 
L 160.298511 67.70304 
L 161.929941 68.640768 
L 163.56137 68.640768 
L 165.1928 66.334464 
L 166.82423 65.852928 
L 168.45566 67.398912 
L 170.08709 67.348224 
L 171.71852 67.601664 
L 173.34995 66.081024 
L 174.98138 64.053504 
L 176.61281 64.864512 
L 178.244239 66.131712 
L 179.875669 65.574144 
L 181.507099 67.500288 
L 183.138529 64.433664 
L 184.769959 63.191808 
L 186.401389 65.143296 
L 188.032819 63.825408 
L 189.664249 63.546624 
L 191.295678 62.989056 
L 192.927108 65.04192 
L 194.558538 62.938368 
L 196.189968 62.963712 
L 197.821398 64.459008 
L 199.452828 63.0144 
L 201.084258 62.50752 
L 202.715688 63.445248 
L 204.347117 61.519104 
L 207.609977 62.076672 
L 209.241407 60.98688 
L 210.872837 63.217152 
L 212.504267 60.708096 
L 214.135697 63.115776 
L 215.767127 60.961536 
L 217.398556 60.074496 
L 219.029986 61.36704 
L 220.661416 61.62048 
L 222.292846 62.938368 
L 225.555706 59.364864 
L 227.187136 61.468416 
L 228.818566 60.657408 
L 230.449995 60.327936 
L 232.081425 60.454656 
L 233.712855 61.696512 
L 235.344285 60.327936 
L 236.975715 60.73344 
L 238.607145 60.632064 
L 240.238575 61.24032 
L 241.870005 59.440896 
L 243.501434 59.542272 
L 245.132864 62.203392 
L 246.764294 59.136768 
L 248.395724 58.477824 
L 251.658584 59.745024 
L 253.290014 59.2128 
L 254.921444 62.25408 
L 256.552873 60.48 
L 258.184303 59.060736 
L 259.815733 60.22656 
L 261.447163 58.021632 
L 263.078593 58.376448 
L 264.710023 60.961536 
L 266.341453 59.8464 
L 267.972883 59.922432 
L 269.604312 59.08608 
L 271.235742 59.136768 
L 272.867172 58.123008 
L 274.498602 58.604544 
L 276.130032 60.302592 
L 279.392892 57.894912 
L 281.024322 59.33952 
L 282.655751 58.604544 
L 284.287181 58.553856 
L 285.918611 59.71968 
L 287.550041 59.491584 
L 289.181471 57.033216 
L 290.812901 59.516928 
L 292.444331 58.275072 
L 294.075761 58.857984 
L 295.70719 57.844224 
L 297.33862 57.717504 
L 298.97005 58.528512 
L 302.23291 58.19904 
L 303.86434 57.007872 
L 305.49577 58.45248 
L 307.1272 59.491584 
L 308.75863 59.33952 
L 310.390059 56.93184 
L 312.021489 56.754432 
L 313.652919 57.159936 
L 315.284349 57.768192 
L 318.547209 54.955008 
L 320.178639 54.980352 
L 321.810069 54.448128 
L 325.072928 54.549504 
L 326.704358 54.52416 
L 328.335788 54.321408 
L 329.967218 54.346752 
L 331.598648 54.245376 
L 336.492937 54.220032 
L 343.018657 54.220032 
L 346.281517 54.27072 
L 349.544376 54.169344 
L 351.175806 54.245376 
L 352.807236 54.169344 
L 354.438666 54.296064 
L 356.070096 54.194688 
L 359.332956 54.144 
L 382.172974 54.144 
L 383.804404 54.27072 
L 385.435834 54.169344 
L 390.330123 54.321408 
L 396.855843 54.144 
L 398.487273 54.220032 
L 398.487273 54.220032 
" clip-path="url(#p3862944662)" style="fill: none; stroke: #e377c2; stroke-width: 1.5; stroke-linecap: square"/>
   </g>
   <g id="line2d_44">
    <path d="M 76.768176 346.6 
L 77.095587 325.527552 
L 78.727017 271.570176 
L 80.358447 234.542592 
L 81.989877 213.1776 
L 83.621307 197.438976 
L 85.252736 183.246336 
L 86.884166 172.804608 
L 88.515596 160.96896 
L 90.147026 150.932736 
L 91.778456 147.511296 
L 93.409886 141.5808 
L 95.041316 133.876224 
L 96.672746 134.155008 
L 98.304175 126.3744 
L 99.935605 121.660416 
L 101.567035 118.568448 
L 103.198465 114.513408 
L 104.829895 113.677056 
L 106.461325 109.926144 
L 108.092755 108.76032 
L 109.724185 106.0992 
L 111.355614 104.527872 
L 112.987044 98.977536 
L 114.618474 98.698752 
L 116.249904 99.154944 
L 117.881334 96.34176 
L 119.512764 94.415616 
L 121.144194 93.705984 
L 122.775624 91.551744 
L 124.407053 91.855872 
L 126.038483 91.855872 
L 127.669913 89.650944 
L 129.301343 89.068032 
L 130.932773 91.171584 
L 132.564203 87.97824 
L 134.195633 86.685696 
L 135.827063 88.915968 
L 137.458492 84.480768 
L 139.089922 87.420672 
L 140.721352 85.393152 
L 142.352782 85.519872 
L 143.984212 82.579968 
L 145.615642 83.390976 
L 147.247072 83.2896 
L 148.878502 86.07744 
L 152.141361 82.52928 
L 153.772791 80.172288 
L 155.404221 82.833408 
L 157.035651 82.123776 
L 158.667081 83.03616 
L 160.298511 80.653824 
L 161.929941 79.74144 
L 163.56137 82.605312 
L 165.1928 83.188224 
L 166.82423 78.322176 
L 168.45566 77.08032 
L 170.08709 79.944192 
L 171.71852 79.437312 
L 173.34995 80.577792 
L 174.98138 78.170112 
L 176.61281 80.222976 
L 178.244239 80.197632 
L 179.875669 79.031808 
L 181.507099 78.930432 
L 183.138529 79.893504 
L 184.769959 77.485824 
L 186.401389 78.018048 
L 188.032819 75.128832 
L 189.664249 80.907264 
L 191.295678 77.5872 
L 192.927108 77.688576 
L 194.558538 78.068736 
L 196.189968 78.271488 
L 197.821398 76.852224 
L 199.452828 78.2208 
L 201.084258 77.84064 
L 202.715688 78.626304 
L 204.347117 78.676992 
L 205.978547 77.384448 
L 207.609977 75.889152 
L 209.241407 75.93984 
L 210.872837 77.865984 
L 212.504267 77.029632 
L 214.135697 77.257728 
L 215.767127 75.204864 
L 217.398556 78.423552 
L 219.029986 76.32 
L 220.661416 77.561856 
L 222.292846 77.561856 
L 223.924276 77.131008 
L 225.555706 76.902912 
L 228.818566 78.803712 
L 230.449995 76.015872 
L 232.081425 77.637888 
L 233.712855 77.942016 
L 235.344285 73.354752 
L 236.975715 77.257728 
L 238.607145 75.787776 
L 240.238575 76.32 
L 241.870005 76.396032 
L 243.501434 78.448896 
L 245.132864 76.472064 
L 246.764294 75.838464 
L 248.395724 76.624128 
L 250.027154 76.9536 
L 251.658584 76.041216 
L 253.290014 77.359104 
L 254.921444 75.458304 
L 256.552873 76.345344 
L 258.184303 80.1216 
L 259.815733 76.32 
L 261.447163 76.015872 
L 263.078593 77.71392 
L 264.710023 75.255552 
L 266.341453 78.322176 
L 267.972883 74.571264 
L 271.235742 78.271488 
L 272.867172 75.889152 
L 274.498602 76.649472 
L 276.130032 75.43296 
L 277.761462 76.421376 
L 279.392892 75.508992 
L 281.024322 76.649472 
L 282.655751 75.787776 
L 284.287181 76.472064 
L 285.918611 75.280896 
L 287.550041 78.296832 
L 289.181471 75.154176 
L 292.444331 76.218624 
L 294.075761 75.078144 
L 295.70719 77.739264 
L 297.33862 75.93984 
L 298.97005 75.0528 
L 300.60148 75.965184 
L 302.23291 75.002112 
L 303.86434 74.241792 
L 305.49577 76.801536 
L 307.1272 75.534336 
L 308.75863 76.015872 
L 310.390059 76.902912 
L 312.021489 76.243968 
L 313.652919 74.621952 
L 315.284349 77.054976 
L 316.915779 61.62048 
L 318.547209 57.109248 
L 320.178639 56.222208 
L 321.810069 55.487232 
L 323.441498 54.980352 
L 325.072928 55.056384 
L 326.704358 54.752256 
L 328.335788 54.90432 
L 329.967218 54.52416 
L 333.230078 54.52416 
L 334.861508 54.372096 
L 336.492937 54.473472 
L 343.018657 54.321408 
L 346.281517 54.448128 
L 347.912947 54.220032 
L 349.544376 54.296064 
L 351.175806 54.245376 
L 354.438666 54.372096 
L 356.070096 54.27072 
L 357.701526 54.372096 
L 364.227245 54.245376 
L 367.490105 54.372096 
L 369.121535 54.169344 
L 370.752965 54.245376 
L 372.384395 54.194688 
L 374.015825 54.372096 
L 382.172974 54.194688 
L 383.804404 54.321408 
L 395.224413 54.169344 
L 398.487273 54.245376 
L 398.487273 54.245376 
" clip-path="url(#p3862944662)" style="fill: none; stroke-dasharray: 5.55,2.4; stroke-dashoffset: 0; stroke: #7f7f7f; stroke-width: 1.5"/>
   </g>
   <g id="patch_3">
    <path d="M 57.6 307.584 
L 57.6 41.472 
" style="fill: none; stroke: #000000; stroke-width: 0.8; stroke-linejoin: miter; stroke-linecap: square"/>
   </g>
   <g id="patch_4">
    <path d="M 414.72 307.584 
L 414.72 41.472 
" style="fill: none; stroke: #000000; stroke-width: 0.8; stroke-linejoin: miter; stroke-linecap: square"/>
   </g>
   <g id="patch_5">
    <path d="M 57.6 307.584 
L 414.72 307.584 
" style="fill: none; stroke: #000000; stroke-width: 0.8; stroke-linejoin: miter; stroke-linecap: square"/>
   </g>
   <g id="patch_6">
    <path d="M 57.6 41.472 
L 414.72 41.472 
" style="fill: none; stroke: #000000; stroke-width: 0.8; stroke-linejoin: miter; stroke-linecap: square"/>
   </g>
   <g id="text_21">
    <!-- Train Accuracy for DenseNet on CIFAR-10 -->
    <g transform="translate(112.954688 35.472)scale(0.12 -0.12)">
     <defs>
      <path id="DejaVuSans-66" d="M 2375 4863 
L 2375 4384 
L 1825 4384 
Q 1516 4384 1395 4259 
Q 1275 4134 1275 3809 
L 1275 3500 
L 2222 3500 
L 2222 3053 
L 1275 3053 
L 1275 0 
L 697 0 
L 697 3053 
L 147 3053 
L 147 3500 
L 697 3500 
L 697 3744 
Q 697 4328 969 4595 
Q 1241 4863 1831 4863 
L 2375 4863 
z
" transform="scale(0.015625)"/>
      <path id="DejaVuSans-44" d="M 1259 4147 
L 1259 519 
L 2022 519 
Q 2988 519 3436 956 
Q 3884 1394 3884 2338 
Q 3884 3275 3436 3711 
Q 2988 4147 2022 4147 
L 1259 4147 
z
M 628 4666 
L 1925 4666 
Q 3281 4666 3915 4102 
Q 4550 3538 4550 2338 
Q 4550 1131 3912 565 
Q 3275 0 1925 0 
L 628 0 
L 628 4666 
z
" transform="scale(0.015625)"/>
      <path id="DejaVuSans-65" d="M 3597 1894 
L 3597 1613 
L 953 1613 
Q 991 1019 1311 708 
Q 1631 397 2203 397 
Q 2534 397 2845 478 
Q 3156 559 3463 722 
L 3463 178 
Q 3153 47 2828 -22 
Q 2503 -91 2169 -91 
Q 1331 -91 842 396 
Q 353 884 353 1716 
Q 353 2575 817 3079 
Q 1281 3584 2069 3584 
Q 2775 3584 3186 3129 
Q 3597 2675 3597 1894 
z
M 3022 2063 
Q 3016 2534 2758 2815 
Q 2500 3097 2075 3097 
Q 1594 3097 1305 2825 
Q 1016 2553 972 2059 
L 3022 2063 
z
" transform="scale(0.015625)"/>
      <path id="DejaVuSans-73" d="M 2834 3397 
L 2834 2853 
Q 2591 2978 2328 3040 
Q 2066 3103 1784 3103 
Q 1356 3103 1142 2972 
Q 928 2841 928 2578 
Q 928 2378 1081 2264 
Q 1234 2150 1697 2047 
L 1894 2003 
Q 2506 1872 2764 1633 
Q 3022 1394 3022 966 
Q 3022 478 2636 193 
Q 2250 -91 1575 -91 
Q 1294 -91 989 -36 
Q 684 19 347 128 
L 347 722 
Q 666 556 975 473 
Q 1284 391 1588 391 
Q 1994 391 2212 530 
Q 2431 669 2431 922 
Q 2431 1156 2273 1281 
Q 2116 1406 1581 1522 
L 1381 1569 
Q 847 1681 609 1914 
Q 372 2147 372 2553 
Q 372 3047 722 3315 
Q 1072 3584 1716 3584 
Q 2034 3584 2315 3537 
Q 2597 3491 2834 3397 
z
" transform="scale(0.015625)"/>
      <path id="DejaVuSans-4e" d="M 628 4666 
L 1478 4666 
L 3547 763 
L 3547 4666 
L 4159 4666 
L 4159 0 
L 3309 0 
L 1241 3903 
L 1241 0 
L 628 0 
L 628 4666 
z
" transform="scale(0.015625)"/>
      <path id="DejaVuSans-74" d="M 1172 4494 
L 1172 3500 
L 2356 3500 
L 2356 3053 
L 1172 3053 
L 1172 1153 
Q 1172 725 1289 603 
Q 1406 481 1766 481 
L 2356 481 
L 2356 0 
L 1766 0 
Q 1100 0 847 248 
Q 594 497 594 1153 
L 594 3053 
L 172 3053 
L 172 3500 
L 594 3500 
L 594 4494 
L 1172 4494 
z
" transform="scale(0.015625)"/>
      <path id="DejaVuSans-43" d="M 4122 4306 
L 4122 3641 
Q 3803 3938 3442 4084 
Q 3081 4231 2675 4231 
Q 1875 4231 1450 3742 
Q 1025 3253 1025 2328 
Q 1025 1406 1450 917 
Q 1875 428 2675 428 
Q 3081 428 3442 575 
Q 3803 722 4122 1019 
L 4122 359 
Q 3791 134 3420 21 
Q 3050 -91 2638 -91 
Q 1578 -91 968 557 
Q 359 1206 359 2328 
Q 359 3453 968 4101 
Q 1578 4750 2638 4750 
Q 3056 4750 3426 4639 
Q 3797 4528 4122 4306 
z
" transform="scale(0.015625)"/>
      <path id="DejaVuSans-49" d="M 628 4666 
L 1259 4666 
L 1259 0 
L 628 0 
L 628 4666 
z
" transform="scale(0.015625)"/>
      <path id="DejaVuSans-46" d="M 628 4666 
L 3309 4666 
L 3309 4134 
L 1259 4134 
L 1259 2759 
L 3109 2759 
L 3109 2228 
L 1259 2228 
L 1259 0 
L 628 0 
L 628 4666 
z
" transform="scale(0.015625)"/>
      <path id="DejaVuSans-52" d="M 2841 2188 
Q 3044 2119 3236 1894 
Q 3428 1669 3622 1275 
L 4263 0 
L 3584 0 
L 2988 1197 
Q 2756 1666 2539 1819 
Q 2322 1972 1947 1972 
L 1259 1972 
L 1259 0 
L 628 0 
L 628 4666 
L 2053 4666 
Q 2853 4666 3247 4331 
Q 3641 3997 3641 3322 
Q 3641 2881 3436 2590 
Q 3231 2300 2841 2188 
z
M 1259 4147 
L 1259 2491 
L 2053 2491 
Q 2509 2491 2742 2702 
Q 2975 2913 2975 3322 
Q 2975 3731 2742 3939 
Q 2509 4147 2053 4147 
L 1259 4147 
z
" transform="scale(0.015625)"/>
      <path id="DejaVuSans-2d" d="M 313 2009 
L 1997 2009 
L 1997 1497 
L 313 1497 
L 313 2009 
z
" transform="scale(0.015625)"/>
     </defs>
     <use xlink:href="#DejaVuSans-54"/>
     <use xlink:href="#DejaVuSans-72" x="46.333984"/>
     <use xlink:href="#DejaVuSans-61" x="87.447266"/>
     <use xlink:href="#DejaVuSans-69" x="148.726562"/>
     <use xlink:href="#DejaVuSans-6e" x="176.509766"/>
     <use xlink:href="#DejaVuSans-20" x="239.888672"/>
     <use xlink:href="#DejaVuSans-41" x="271.675781"/>
     <use xlink:href="#DejaVuSans-63" x="338.333984"/>
     <use xlink:href="#DejaVuSans-63" x="393.314453"/>
     <use xlink:href="#DejaVuSans-75" x="448.294922"/>
     <use xlink:href="#DejaVuSans-72" x="511.673828"/>
     <use xlink:href="#DejaVuSans-61" x="552.787109"/>
     <use xlink:href="#DejaVuSans-63" x="614.066406"/>
     <use xlink:href="#DejaVuSans-79" x="669.046875"/>
     <use xlink:href="#DejaVuSans-20" x="728.226562"/>
     <use xlink:href="#DejaVuSans-66" x="760.013672"/>
     <use xlink:href="#DejaVuSans-6f" x="795.21875"/>
     <use xlink:href="#DejaVuSans-72" x="856.400391"/>
     <use xlink:href="#DejaVuSans-20" x="897.513672"/>
     <use xlink:href="#DejaVuSans-44" x="929.300781"/>
     <use xlink:href="#DejaVuSans-65" x="1006.302734"/>
     <use xlink:href="#DejaVuSans-6e" x="1067.826172"/>
     <use xlink:href="#DejaVuSans-73" x="1131.205078"/>
     <use xlink:href="#DejaVuSans-65" x="1183.304688"/>
     <use xlink:href="#DejaVuSans-4e" x="1244.828125"/>
     <use xlink:href="#DejaVuSans-65" x="1319.632812"/>
     <use xlink:href="#DejaVuSans-74" x="1381.15625"/>
     <use xlink:href="#DejaVuSans-20" x="1420.365234"/>
     <use xlink:href="#DejaVuSans-6f" x="1452.152344"/>
     <use xlink:href="#DejaVuSans-6e" x="1513.333984"/>
     <use xlink:href="#DejaVuSans-20" x="1576.712891"/>
     <use xlink:href="#DejaVuSans-43" x="1608.5"/>
     <use xlink:href="#DejaVuSans-49" x="1678.324219"/>
     <use xlink:href="#DejaVuSans-46" x="1707.816406"/>
     <use xlink:href="#DejaVuSans-41" x="1756.210938"/>
     <use xlink:href="#DejaVuSans-52" x="1824.619141"/>
     <use xlink:href="#DejaVuSans-2d" x="1890.101562"/>
     <use xlink:href="#DejaVuSans-31" x="1926.185547"/>
     <use xlink:href="#DejaVuSans-30" x="1989.808594"/>
    </g>
   </g>
   <g id="legend_1">
    <g id="patch_7">
     <path d="M 316.693438 302.584 
L 407.72 302.584 
Q 409.72 302.584 409.72 300.584 
L 409.72 184.159 
Q 409.72 182.159 407.72 182.159 
L 316.693438 182.159 
Q 314.693438 182.159 314.693438 184.159 
L 314.693438 300.584 
Q 314.693438 302.584 316.693438 302.584 
z
" style="fill: #ffffff; opacity: 0.8; stroke: #cccccc; stroke-linejoin: miter"/>
    </g>
    <g id="line2d_45">
     <path d="M 318.693438 190.257437 
L 328.693438 190.257437 
L 338.693438 190.257437 
" style="fill: none; stroke: #1f77b4; stroke-width: 1.5; stroke-linecap: square"/>
    </g>
    <g id="text_22">
     <!-- SGD -->
     <g transform="translate(346.693438 193.757437)scale(0.1 -0.1)">
      <defs>
       <path id="DejaVuSans-53" d="M 3425 4513 
L 3425 3897 
Q 3066 4069 2747 4153 
Q 2428 4238 2131 4238 
Q 1616 4238 1336 4038 
Q 1056 3838 1056 3469 
Q 1056 3159 1242 3001 
Q 1428 2844 1947 2747 
L 2328 2669 
Q 3034 2534 3370 2195 
Q 3706 1856 3706 1288 
Q 3706 609 3251 259 
Q 2797 -91 1919 -91 
Q 1588 -91 1214 -16 
Q 841 59 441 206 
L 441 856 
Q 825 641 1194 531 
Q 1563 422 1919 422 
Q 2459 422 2753 634 
Q 3047 847 3047 1241 
Q 3047 1584 2836 1778 
Q 2625 1972 2144 2069 
L 1759 2144 
Q 1053 2284 737 2584 
Q 422 2884 422 3419 
Q 422 4038 858 4394 
Q 1294 4750 2059 4750 
Q 2388 4750 2728 4690 
Q 3069 4631 3425 4513 
z
" transform="scale(0.015625)"/>
       <path id="DejaVuSans-47" d="M 3809 666 
L 3809 1919 
L 2778 1919 
L 2778 2438 
L 4434 2438 
L 4434 434 
Q 4069 175 3628 42 
Q 3188 -91 2688 -91 
Q 1594 -91 976 548 
Q 359 1188 359 2328 
Q 359 3472 976 4111 
Q 1594 4750 2688 4750 
Q 3144 4750 3555 4637 
Q 3966 4525 4313 4306 
L 4313 3634 
Q 3963 3931 3569 4081 
Q 3175 4231 2741 4231 
Q 1884 4231 1454 3753 
Q 1025 3275 1025 2328 
Q 1025 1384 1454 906 
Q 1884 428 2741 428 
Q 3075 428 3337 486 
Q 3600 544 3809 666 
z
" transform="scale(0.015625)"/>
      </defs>
      <use xlink:href="#DejaVuSans-53"/>
      <use xlink:href="#DejaVuSans-47" x="63.476562"/>
      <use xlink:href="#DejaVuSans-44" x="140.966797"/>
     </g>
    </g>
    <g id="line2d_46">
     <path d="M 318.693438 204.935563 
L 328.693438 204.935563 
L 338.693438 204.935563 
" style="fill: none; stroke: #ff7f0e; stroke-width: 1.5; stroke-linecap: square"/>
    </g>
    <g id="text_23">
     <!-- RMSProp -->
     <g transform="translate(346.693438 208.435563)scale(0.1 -0.1)">
      <defs>
       <path id="DejaVuSans-4d" d="M 628 4666 
L 1569 4666 
L 2759 1491 
L 3956 4666 
L 4897 4666 
L 4897 0 
L 4281 0 
L 4281 4097 
L 3078 897 
L 2444 897 
L 1241 4097 
L 1241 0 
L 628 0 
L 628 4666 
z
" transform="scale(0.015625)"/>
       <path id="DejaVuSans-50" d="M 1259 4147 
L 1259 2394 
L 2053 2394 
Q 2494 2394 2734 2622 
Q 2975 2850 2975 3272 
Q 2975 3691 2734 3919 
Q 2494 4147 2053 4147 
L 1259 4147 
z
M 628 4666 
L 2053 4666 
Q 2838 4666 3239 4311 
Q 3641 3956 3641 3272 
Q 3641 2581 3239 2228 
Q 2838 1875 2053 1875 
L 1259 1875 
L 1259 0 
L 628 0 
L 628 4666 
z
" transform="scale(0.015625)"/>
      </defs>
      <use xlink:href="#DejaVuSans-52"/>
      <use xlink:href="#DejaVuSans-4d" x="69.482422"/>
      <use xlink:href="#DejaVuSans-53" x="155.761719"/>
      <use xlink:href="#DejaVuSans-50" x="219.238281"/>
      <use xlink:href="#DejaVuSans-72" x="277.791016"/>
      <use xlink:href="#DejaVuSans-6f" x="316.654297"/>
      <use xlink:href="#DejaVuSans-70" x="377.835938"/>
     </g>
    </g>
    <g id="line2d_47">
     <path d="M 318.693438 219.613687 
L 328.693438 219.613687 
L 338.693438 219.613687 
" style="fill: none; stroke: #2ca02c; stroke-width: 1.5; stroke-linecap: square"/>
    </g>
    <g id="text_24">
     <!-- AdaGrad -->
     <g transform="translate(346.693438 223.113687)scale(0.1 -0.1)">
      <defs>
       <path id="DejaVuSans-64" d="M 2906 2969 
L 2906 4863 
L 3481 4863 
L 3481 0 
L 2906 0 
L 2906 525 
Q 2725 213 2448 61 
Q 2172 -91 1784 -91 
Q 1150 -91 751 415 
Q 353 922 353 1747 
Q 353 2572 751 3078 
Q 1150 3584 1784 3584 
Q 2172 3584 2448 3432 
Q 2725 3281 2906 2969 
z
M 947 1747 
Q 947 1113 1208 752 
Q 1469 391 1925 391 
Q 2381 391 2643 752 
Q 2906 1113 2906 1747 
Q 2906 2381 2643 2742 
Q 2381 3103 1925 3103 
Q 1469 3103 1208 2742 
Q 947 2381 947 1747 
z
" transform="scale(0.015625)"/>
      </defs>
      <use xlink:href="#DejaVuSans-41"/>
      <use xlink:href="#DejaVuSans-64" x="66.658203"/>
      <use xlink:href="#DejaVuSans-61" x="130.134766"/>
      <use xlink:href="#DejaVuSans-47" x="191.414062"/>
      <use xlink:href="#DejaVuSans-72" x="268.904297"/>
      <use xlink:href="#DejaVuSans-61" x="310.017578"/>
      <use xlink:href="#DejaVuSans-64" x="371.296875"/>
     </g>
    </g>
    <g id="line2d_48">
     <path d="M 318.693438 234.291812 
L 328.693438 234.291812 
L 338.693438 234.291812 
" style="fill: none; stroke: #d62728; stroke-width: 1.5; stroke-linecap: square"/>
    </g>
    <g id="text_25">
     <!-- Adam -->
     <g transform="translate(346.693438 237.791812)scale(0.1 -0.1)">
      <defs>
       <path id="DejaVuSans-6d" d="M 3328 2828 
Q 3544 3216 3844 3400 
Q 4144 3584 4550 3584 
Q 5097 3584 5394 3201 
Q 5691 2819 5691 2113 
L 5691 0 
L 5113 0 
L 5113 2094 
Q 5113 2597 4934 2840 
Q 4756 3084 4391 3084 
Q 3944 3084 3684 2787 
Q 3425 2491 3425 1978 
L 3425 0 
L 2847 0 
L 2847 2094 
Q 2847 2600 2669 2842 
Q 2491 3084 2119 3084 
Q 1678 3084 1418 2786 
Q 1159 2488 1159 1978 
L 1159 0 
L 581 0 
L 581 3500 
L 1159 3500 
L 1159 2956 
Q 1356 3278 1631 3431 
Q 1906 3584 2284 3584 
Q 2666 3584 2933 3390 
Q 3200 3197 3328 2828 
z
" transform="scale(0.015625)"/>
      </defs>
      <use xlink:href="#DejaVuSans-41"/>
      <use xlink:href="#DejaVuSans-64" x="66.658203"/>
      <use xlink:href="#DejaVuSans-61" x="130.134766"/>
      <use xlink:href="#DejaVuSans-6d" x="191.414062"/>
     </g>
    </g>
    <g id="line2d_49">
     <path d="M 318.693438 248.969937 
L 328.693438 248.969937 
L 338.693438 248.969937 
" style="fill: none; stroke: #9467bd; stroke-width: 1.5; stroke-linecap: square"/>
    </g>
    <g id="text_26">
     <!-- AMSGrad -->
     <g transform="translate(346.693438 252.469937)scale(0.1 -0.1)">
      <use xlink:href="#DejaVuSans-41"/>
      <use xlink:href="#DejaVuSans-4d" x="68.408203"/>
      <use xlink:href="#DejaVuSans-53" x="154.6875"/>
      <use xlink:href="#DejaVuSans-47" x="218.164062"/>
      <use xlink:href="#DejaVuSans-72" x="295.654297"/>
      <use xlink:href="#DejaVuSans-61" x="336.767578"/>
      <use xlink:href="#DejaVuSans-64" x="398.046875"/>
     </g>
    </g>
    <g id="line2d_50">
     <path d="M 318.693438 263.648062 
L 328.693438 263.648062 
L 338.693438 263.648062 
" style="fill: none; stroke: #8c564b; stroke-width: 1.5; stroke-linecap: square"/>
    </g>
    <g id="text_27">
     <!-- AdaBound -->
     <g transform="translate(346.693438 267.148062)scale(0.1 -0.1)">
      <defs>
       <path id="DejaVuSans-42" d="M 1259 2228 
L 1259 519 
L 2272 519 
Q 2781 519 3026 730 
Q 3272 941 3272 1375 
Q 3272 1813 3026 2020 
Q 2781 2228 2272 2228 
L 1259 2228 
z
M 1259 4147 
L 1259 2741 
L 2194 2741 
Q 2656 2741 2882 2914 
Q 3109 3088 3109 3444 
Q 3109 3797 2882 3972 
Q 2656 4147 2194 4147 
L 1259 4147 
z
M 628 4666 
L 2241 4666 
Q 2963 4666 3353 4366 
Q 3744 4066 3744 3513 
Q 3744 3084 3544 2831 
Q 3344 2578 2956 2516 
Q 3422 2416 3680 2098 
Q 3938 1781 3938 1306 
Q 3938 681 3513 340 
Q 3088 0 2303 0 
L 628 0 
L 628 4666 
z
" transform="scale(0.015625)"/>
      </defs>
      <use xlink:href="#DejaVuSans-41"/>
      <use xlink:href="#DejaVuSans-64" x="66.658203"/>
      <use xlink:href="#DejaVuSans-61" x="130.134766"/>
      <use xlink:href="#DejaVuSans-42" x="191.414062"/>
      <use xlink:href="#DejaVuSans-6f" x="260.017578"/>
      <use xlink:href="#DejaVuSans-75" x="321.199219"/>
      <use xlink:href="#DejaVuSans-6e" x="384.578125"/>
      <use xlink:href="#DejaVuSans-64" x="447.957031"/>
     </g>
    </g>
    <g id="line2d_51">
     <path d="M 318.693438 278.326187 
L 328.693438 278.326187 
L 338.693438 278.326187 
" style="fill: none; stroke: #e377c2; stroke-width: 1.5; stroke-linecap: square"/>
    </g>
    <g id="text_28">
     <!-- AdaMod -->
     <g transform="translate(346.693438 281.826187)scale(0.1 -0.1)">
      <use xlink:href="#DejaVuSans-41"/>
      <use xlink:href="#DejaVuSans-64" x="66.658203"/>
      <use xlink:href="#DejaVuSans-61" x="130.134766"/>
      <use xlink:href="#DejaVuSans-4d" x="191.414062"/>
      <use xlink:href="#DejaVuSans-6f" x="277.693359"/>
      <use xlink:href="#DejaVuSans-64" x="338.875"/>
     </g>
    </g>
    <g id="line2d_52">
     <path d="M 318.693438 293.004312 
L 328.693438 293.004312 
L 338.693438 293.004312 
" style="fill: none; stroke-dasharray: 5.55,2.4; stroke-dashoffset: 0; stroke: #7f7f7f; stroke-width: 1.5"/>
    </g>
    <g id="text_29">
     <!-- AdaBalance -->
     <g transform="translate(346.693438 296.504312)scale(0.1 -0.1)">
      <defs>
       <path id="DejaVuSans-6c" d="M 603 4863 
L 1178 4863 
L 1178 0 
L 603 0 
L 603 4863 
z
" transform="scale(0.015625)"/>
      </defs>
      <use xlink:href="#DejaVuSans-41"/>
      <use xlink:href="#DejaVuSans-64" x="66.658203"/>
      <use xlink:href="#DejaVuSans-61" x="130.134766"/>
      <use xlink:href="#DejaVuSans-42" x="191.414062"/>
      <use xlink:href="#DejaVuSans-61" x="260.017578"/>
      <use xlink:href="#DejaVuSans-6c" x="321.296875"/>
      <use xlink:href="#DejaVuSans-61" x="349.080078"/>
      <use xlink:href="#DejaVuSans-6e" x="410.359375"/>
      <use xlink:href="#DejaVuSans-63" x="473.738281"/>
      <use xlink:href="#DejaVuSans-65" x="528.71875"/>
     </g>
    </g>
   </g>
  </g>
 </g>
 <defs>
  <clipPath id="p3862944662">
   <rect x="57.6" y="41.472" width="357.12" height="266.112"/>
  </clipPath>
 </defs>
</svg>
