<?xml version="1.0" encoding="utf-8" standalone="no"?>
<!DOCTYPE svg PUBLIC "-//W3C//DTD SVG 1.1//EN"
  "http://www.w3.org/Graphics/SVG/1.1/DTD/svg11.dtd">
<svg xmlns:xlink="http://www.w3.org/1999/xlink" width="460.8pt" height="345.6pt" viewBox="0 0 460.8 345.6" xmlns="http://www.w3.org/2000/svg" version="1.1">
 <metadata>
  <rdf:RDF xmlns:dc="http://purl.org/dc/elements/1.1/" xmlns:cc="http://creativecommons.org/ns#" xmlns:rdf="http://www.w3.org/1999/02/22-rdf-syntax-ns#">
   <cc:Work>
    <dc:type rdf:resource="http://purl.org/dc/dcmitype/StillImage"/>
    <dc:date>2024-10-17T15:07:19.650409</dc:date>
    <dc:format>image/svg+xml</dc:format>
    <dc:creator>
     <cc:Agent>
      <dc:title>Matplotlib v3.5.2, https://matplotlib.org/</dc:title>
     </cc:Agent>
    </dc:creator>
   </cc:Work>
  </rdf:RDF>
 </metadata>
 <defs>
  <style type="text/css">*{stroke-linejoin: round; stroke-linecap: butt}</style>
 </defs>
 <g id="figure_1">
  <g id="patch_1">
   <path d="M 0 345.6 
L 460.8 345.6 
L 460.8 0 
L 0 0 
z
" style="fill: #ffffff"/>
  </g>
  <g id="axes_1">
   <g id="patch_2">
    <path d="M 57.6 307.584 
L 414.72 307.584 
L 414.72 41.472 
L 57.6 41.472 
z
" style="fill: #ffffff"/>
   </g>
   <g id="matplotlib.axis_1">
    <g id="xtick_1">
     <g id="line2d_1">
      <path d="M 73.832727 307.584 
L 73.832727 41.472 
" clip-path="url(#p55b51b0db0)" style="fill: none; stroke-dasharray: 2.96,1.28; stroke-dashoffset: 0; stroke: #b0b0b0; stroke-width: 0.8"/>
     </g>
     <g id="line2d_2">
      <defs>
       <path id="m50d746dd8d" d="M 0 0 
L 0 3.5 
" style="stroke: #000000; stroke-width: 0.8"/>
      </defs>
      <g>
       <use xlink:href="#m50d746dd8d" x="73.832727" y="307.584" style="stroke: #000000; stroke-width: 0.8"/>
      </g>
     </g>
     <g id="text_1">
      <!-- 0 -->
      <g transform="translate(70.651477 322.182437)scale(0.1 -0.1)">
       <defs>
        <path id="DejaVuSans-30" d="M 2034 4250 
Q 1547 4250 1301 3770 
Q 1056 3291 1056 2328 
Q 1056 1369 1301 889 
Q 1547 409 2034 409 
Q 2525 409 2770 889 
Q 3016 1369 3016 2328 
Q 3016 3291 2770 3770 
Q 2525 4250 2034 4250 
z
M 2034 4750 
Q 2819 4750 3233 4129 
Q 3647 3509 3647 2328 
Q 3647 1150 3233 529 
Q 2819 -91 2034 -91 
Q 1250 -91 836 529 
Q 422 1150 422 2328 
Q 422 3509 836 4129 
Q 1250 4750 2034 4750 
z
" transform="scale(0.015625)"/>
       </defs>
       <use xlink:href="#DejaVuSans-30"/>
      </g>
     </g>
    </g>
    <g id="xtick_2">
     <g id="line2d_3">
      <path d="M 114.618474 307.584 
L 114.618474 41.472 
" clip-path="url(#p55b51b0db0)" style="fill: none; stroke-dasharray: 2.96,1.28; stroke-dashoffset: 0; stroke: #b0b0b0; stroke-width: 0.8"/>
     </g>
     <g id="line2d_4">
      <g>
       <use xlink:href="#m50d746dd8d" x="114.618474" y="307.584" style="stroke: #000000; stroke-width: 0.8"/>
      </g>
     </g>
     <g id="text_2">
      <!-- 25 -->
      <g transform="translate(108.255974 322.182437)scale(0.1 -0.1)">
       <defs>
        <path id="DejaVuSans-32" d="M 1228 531 
L 3431 531 
L 3431 0 
L 469 0 
L 469 531 
Q 828 903 1448 1529 
Q 2069 2156 2228 2338 
Q 2531 2678 2651 2914 
Q 2772 3150 2772 3378 
Q 2772 3750 2511 3984 
Q 2250 4219 1831 4219 
Q 1534 4219 1204 4116 
Q 875 4013 500 3803 
L 500 4441 
Q 881 4594 1212 4672 
Q 1544 4750 1819 4750 
Q 2544 4750 2975 4387 
Q 3406 4025 3406 3419 
Q 3406 3131 3298 2873 
Q 3191 2616 2906 2266 
Q 2828 2175 2409 1742 
Q 1991 1309 1228 531 
z
" transform="scale(0.015625)"/>
        <path id="DejaVuSans-35" d="M 691 4666 
L 3169 4666 
L 3169 4134 
L 1269 4134 
L 1269 2991 
Q 1406 3038 1543 3061 
Q 1681 3084 1819 3084 
Q 2600 3084 3056 2656 
Q 3513 2228 3513 1497 
Q 3513 744 3044 326 
Q 2575 -91 1722 -91 
Q 1428 -91 1123 -41 
Q 819 9 494 109 
L 494 744 
Q 775 591 1075 516 
Q 1375 441 1709 441 
Q 2250 441 2565 725 
Q 2881 1009 2881 1497 
Q 2881 1984 2565 2268 
Q 2250 2553 1709 2553 
Q 1456 2553 1204 2497 
Q 953 2441 691 2322 
L 691 4666 
z
" transform="scale(0.015625)"/>
       </defs>
       <use xlink:href="#DejaVuSans-32"/>
       <use xlink:href="#DejaVuSans-35" x="63.623047"/>
      </g>
     </g>
    </g>
    <g id="xtick_3">
     <g id="line2d_5">
      <path d="M 155.404221 307.584 
L 155.404221 41.472 
" clip-path="url(#p55b51b0db0)" style="fill: none; stroke-dasharray: 2.96,1.28; stroke-dashoffset: 0; stroke: #b0b0b0; stroke-width: 0.8"/>
     </g>
     <g id="line2d_6">
      <g>
       <use xlink:href="#m50d746dd8d" x="155.404221" y="307.584" style="stroke: #000000; stroke-width: 0.8"/>
      </g>
     </g>
     <g id="text_3">
      <!-- 50 -->
      <g transform="translate(149.041721 322.182437)scale(0.1 -0.1)">
       <use xlink:href="#DejaVuSans-35"/>
       <use xlink:href="#DejaVuSans-30" x="63.623047"/>
      </g>
     </g>
    </g>
    <g id="xtick_4">
     <g id="line2d_7">
      <path d="M 196.189968 307.584 
L 196.189968 41.472 
" clip-path="url(#p55b51b0db0)" style="fill: none; stroke-dasharray: 2.96,1.28; stroke-dashoffset: 0; stroke: #b0b0b0; stroke-width: 0.8"/>
     </g>
     <g id="line2d_8">
      <g>
       <use xlink:href="#m50d746dd8d" x="196.189968" y="307.584" style="stroke: #000000; stroke-width: 0.8"/>
      </g>
     </g>
     <g id="text_4">
      <!-- 75 -->
      <g transform="translate(189.827468 322.182437)scale(0.1 -0.1)">
       <defs>
        <path id="DejaVuSans-37" d="M 525 4666 
L 3525 4666 
L 3525 4397 
L 1831 0 
L 1172 0 
L 2766 4134 
L 525 4134 
L 525 4666 
z
" transform="scale(0.015625)"/>
       </defs>
       <use xlink:href="#DejaVuSans-37"/>
       <use xlink:href="#DejaVuSans-35" x="63.623047"/>
      </g>
     </g>
    </g>
    <g id="xtick_5">
     <g id="line2d_9">
      <path d="M 236.975715 307.584 
L 236.975715 41.472 
" clip-path="url(#p55b51b0db0)" style="fill: none; stroke-dasharray: 2.96,1.28; stroke-dashoffset: 0; stroke: #b0b0b0; stroke-width: 0.8"/>
     </g>
     <g id="line2d_10">
      <g>
       <use xlink:href="#m50d746dd8d" x="236.975715" y="307.584" style="stroke: #000000; stroke-width: 0.8"/>
      </g>
     </g>
     <g id="text_5">
      <!-- 100 -->
      <g transform="translate(227.431965 322.182437)scale(0.1 -0.1)">
       <defs>
        <path id="DejaVuSans-31" d="M 794 531 
L 1825 531 
L 1825 4091 
L 703 3866 
L 703 4441 
L 1819 4666 
L 2450 4666 
L 2450 531 
L 3481 531 
L 3481 0 
L 794 0 
L 794 531 
z
" transform="scale(0.015625)"/>
       </defs>
       <use xlink:href="#DejaVuSans-31"/>
       <use xlink:href="#DejaVuSans-30" x="63.623047"/>
       <use xlink:href="#DejaVuSans-30" x="127.246094"/>
      </g>
     </g>
    </g>
    <g id="xtick_6">
     <g id="line2d_11">
      <path d="M 277.761462 307.584 
L 277.761462 41.472 
" clip-path="url(#p55b51b0db0)" style="fill: none; stroke-dasharray: 2.96,1.28; stroke-dashoffset: 0; stroke: #b0b0b0; stroke-width: 0.8"/>
     </g>
     <g id="line2d_12">
      <g>
       <use xlink:href="#m50d746dd8d" x="277.761462" y="307.584" style="stroke: #000000; stroke-width: 0.8"/>
      </g>
     </g>
     <g id="text_6">
      <!-- 125 -->
      <g transform="translate(268.217712 322.182437)scale(0.1 -0.1)">
       <use xlink:href="#DejaVuSans-31"/>
       <use xlink:href="#DejaVuSans-32" x="63.623047"/>
       <use xlink:href="#DejaVuSans-35" x="127.246094"/>
      </g>
     </g>
    </g>
    <g id="xtick_7">
     <g id="line2d_13">
      <path d="M 318.547209 307.584 
L 318.547209 41.472 
" clip-path="url(#p55b51b0db0)" style="fill: none; stroke-dasharray: 2.96,1.28; stroke-dashoffset: 0; stroke: #b0b0b0; stroke-width: 0.8"/>
     </g>
     <g id="line2d_14">
      <g>
       <use xlink:href="#m50d746dd8d" x="318.547209" y="307.584" style="stroke: #000000; stroke-width: 0.8"/>
      </g>
     </g>
     <g id="text_7">
      <!-- 150 -->
      <g transform="translate(309.003459 322.182437)scale(0.1 -0.1)">
       <use xlink:href="#DejaVuSans-31"/>
       <use xlink:href="#DejaVuSans-35" x="63.623047"/>
       <use xlink:href="#DejaVuSans-30" x="127.246094"/>
      </g>
     </g>
    </g>
    <g id="xtick_8">
     <g id="line2d_15">
      <path d="M 359.332956 307.584 
L 359.332956 41.472 
" clip-path="url(#p55b51b0db0)" style="fill: none; stroke-dasharray: 2.96,1.28; stroke-dashoffset: 0; stroke: #b0b0b0; stroke-width: 0.8"/>
     </g>
     <g id="line2d_16">
      <g>
       <use xlink:href="#m50d746dd8d" x="359.332956" y="307.584" style="stroke: #000000; stroke-width: 0.8"/>
      </g>
     </g>
     <g id="text_8">
      <!-- 175 -->
      <g transform="translate(349.789206 322.182437)scale(0.1 -0.1)">
       <use xlink:href="#DejaVuSans-31"/>
       <use xlink:href="#DejaVuSans-37" x="63.623047"/>
       <use xlink:href="#DejaVuSans-35" x="127.246094"/>
      </g>
     </g>
    </g>
    <g id="xtick_9">
     <g id="line2d_17">
      <path d="M 400.118703 307.584 
L 400.118703 41.472 
" clip-path="url(#p55b51b0db0)" style="fill: none; stroke-dasharray: 2.96,1.28; stroke-dashoffset: 0; stroke: #b0b0b0; stroke-width: 0.8"/>
     </g>
     <g id="line2d_18">
      <g>
       <use xlink:href="#m50d746dd8d" x="400.118703" y="307.584" style="stroke: #000000; stroke-width: 0.8"/>
      </g>
     </g>
     <g id="text_9">
      <!-- 200 -->
      <g transform="translate(390.574953 322.182437)scale(0.1 -0.1)">
       <use xlink:href="#DejaVuSans-32"/>
       <use xlink:href="#DejaVuSans-30" x="63.623047"/>
       <use xlink:href="#DejaVuSans-30" x="127.246094"/>
      </g>
     </g>
    </g>
    <g id="text_10">
     <!-- Epoch -->
     <g transform="translate(220.849063 335.860562)scale(0.1 -0.1)">
      <defs>
       <path id="DejaVuSans-45" d="M 628 4666 
L 3578 4666 
L 3578 4134 
L 1259 4134 
L 1259 2753 
L 3481 2753 
L 3481 2222 
L 1259 2222 
L 1259 531 
L 3634 531 
L 3634 0 
L 628 0 
L 628 4666 
z
" transform="scale(0.015625)"/>
       <path id="DejaVuSans-70" d="M 1159 525 
L 1159 -1331 
L 581 -1331 
L 581 3500 
L 1159 3500 
L 1159 2969 
Q 1341 3281 1617 3432 
Q 1894 3584 2278 3584 
Q 2916 3584 3314 3078 
Q 3713 2572 3713 1747 
Q 3713 922 3314 415 
Q 2916 -91 2278 -91 
Q 1894 -91 1617 61 
Q 1341 213 1159 525 
z
M 3116 1747 
Q 3116 2381 2855 2742 
Q 2594 3103 2138 3103 
Q 1681 3103 1420 2742 
Q 1159 2381 1159 1747 
Q 1159 1113 1420 752 
Q 1681 391 2138 391 
Q 2594 391 2855 752 
Q 3116 1113 3116 1747 
z
" transform="scale(0.015625)"/>
       <path id="DejaVuSans-6f" d="M 1959 3097 
Q 1497 3097 1228 2736 
Q 959 2375 959 1747 
Q 959 1119 1226 758 
Q 1494 397 1959 397 
Q 2419 397 2687 759 
Q 2956 1122 2956 1747 
Q 2956 2369 2687 2733 
Q 2419 3097 1959 3097 
z
M 1959 3584 
Q 2709 3584 3137 3096 
Q 3566 2609 3566 1747 
Q 3566 888 3137 398 
Q 2709 -91 1959 -91 
Q 1206 -91 779 398 
Q 353 888 353 1747 
Q 353 2609 779 3096 
Q 1206 3584 1959 3584 
z
" transform="scale(0.015625)"/>
       <path id="DejaVuSans-63" d="M 3122 3366 
L 3122 2828 
Q 2878 2963 2633 3030 
Q 2388 3097 2138 3097 
Q 1578 3097 1268 2742 
Q 959 2388 959 1747 
Q 959 1106 1268 751 
Q 1578 397 2138 397 
Q 2388 397 2633 464 
Q 2878 531 3122 666 
L 3122 134 
Q 2881 22 2623 -34 
Q 2366 -91 2075 -91 
Q 1284 -91 818 406 
Q 353 903 353 1747 
Q 353 2603 823 3093 
Q 1294 3584 2113 3584 
Q 2378 3584 2631 3529 
Q 2884 3475 3122 3366 
z
" transform="scale(0.015625)"/>
       <path id="DejaVuSans-68" d="M 3513 2113 
L 3513 0 
L 2938 0 
L 2938 2094 
Q 2938 2591 2744 2837 
Q 2550 3084 2163 3084 
Q 1697 3084 1428 2787 
Q 1159 2491 1159 1978 
L 1159 0 
L 581 0 
L 581 4863 
L 1159 4863 
L 1159 2956 
Q 1366 3272 1645 3428 
Q 1925 3584 2291 3584 
Q 2894 3584 3203 3211 
Q 3513 2838 3513 2113 
z
" transform="scale(0.015625)"/>
      </defs>
      <use xlink:href="#DejaVuSans-45"/>
      <use xlink:href="#DejaVuSans-70" x="63.183594"/>
      <use xlink:href="#DejaVuSans-6f" x="126.660156"/>
      <use xlink:href="#DejaVuSans-63" x="187.841797"/>
      <use xlink:href="#DejaVuSans-68" x="242.822266"/>
     </g>
    </g>
   </g>
   <g id="matplotlib.axis_2">
    <g id="ytick_1">
     <g id="line2d_19">
      <path d="M 57.6 307.584 
L 414.72 307.584 
" clip-path="url(#p55b51b0db0)" style="fill: none; stroke-dasharray: 2.96,1.28; stroke-dashoffset: 0; stroke: #b0b0b0; stroke-width: 0.8"/>
     </g>
     <g id="line2d_20">
      <defs>
       <path id="maa14416bbc" d="M 0 0 
L -3.5 0 
" style="stroke: #000000; stroke-width: 0.8"/>
      </defs>
      <g>
       <use xlink:href="#maa14416bbc" x="57.6" y="307.584" style="stroke: #000000; stroke-width: 0.8"/>
      </g>
     </g>
     <g id="text_11">
      <!-- 80.0 -->
      <g transform="translate(28.334375 311.383219)scale(0.1 -0.1)">
       <defs>
        <path id="DejaVuSans-38" d="M 2034 2216 
Q 1584 2216 1326 1975 
Q 1069 1734 1069 1313 
Q 1069 891 1326 650 
Q 1584 409 2034 409 
Q 2484 409 2743 651 
Q 3003 894 3003 1313 
Q 3003 1734 2745 1975 
Q 2488 2216 2034 2216 
z
M 1403 2484 
Q 997 2584 770 2862 
Q 544 3141 544 3541 
Q 544 4100 942 4425 
Q 1341 4750 2034 4750 
Q 2731 4750 3128 4425 
Q 3525 4100 3525 3541 
Q 3525 3141 3298 2862 
Q 3072 2584 2669 2484 
Q 3125 2378 3379 2068 
Q 3634 1759 3634 1313 
Q 3634 634 3220 271 
Q 2806 -91 2034 -91 
Q 1263 -91 848 271 
Q 434 634 434 1313 
Q 434 1759 690 2068 
Q 947 2378 1403 2484 
z
M 1172 3481 
Q 1172 3119 1398 2916 
Q 1625 2713 2034 2713 
Q 2441 2713 2670 2916 
Q 2900 3119 2900 3481 
Q 2900 3844 2670 4047 
Q 2441 4250 2034 4250 
Q 1625 4250 1398 4047 
Q 1172 3844 1172 3481 
z
" transform="scale(0.015625)"/>
        <path id="DejaVuSans-2e" d="M 684 794 
L 1344 794 
L 1344 0 
L 684 0 
L 684 794 
z
" transform="scale(0.015625)"/>
       </defs>
       <use xlink:href="#DejaVuSans-38"/>
       <use xlink:href="#DejaVuSans-30" x="63.623047"/>
       <use xlink:href="#DejaVuSans-2e" x="127.246094"/>
       <use xlink:href="#DejaVuSans-30" x="159.033203"/>
      </g>
     </g>
    </g>
    <g id="ytick_2">
     <g id="line2d_21">
      <path d="M 57.6 275.904 
L 414.72 275.904 
" clip-path="url(#p55b51b0db0)" style="fill: none; stroke-dasharray: 2.96,1.28; stroke-dashoffset: 0; stroke: #b0b0b0; stroke-width: 0.8"/>
     </g>
     <g id="line2d_22">
      <g>
       <use xlink:href="#maa14416bbc" x="57.6" y="275.904" style="stroke: #000000; stroke-width: 0.8"/>
      </g>
     </g>
     <g id="text_12">
      <!-- 82.5 -->
      <g transform="translate(28.334375 279.703219)scale(0.1 -0.1)">
       <use xlink:href="#DejaVuSans-38"/>
       <use xlink:href="#DejaVuSans-32" x="63.623047"/>
       <use xlink:href="#DejaVuSans-2e" x="127.246094"/>
       <use xlink:href="#DejaVuSans-35" x="159.033203"/>
      </g>
     </g>
    </g>
    <g id="ytick_3">
     <g id="line2d_23">
      <path d="M 57.6 244.224 
L 414.72 244.224 
" clip-path="url(#p55b51b0db0)" style="fill: none; stroke-dasharray: 2.96,1.28; stroke-dashoffset: 0; stroke: #b0b0b0; stroke-width: 0.8"/>
     </g>
     <g id="line2d_24">
      <g>
       <use xlink:href="#maa14416bbc" x="57.6" y="244.224" style="stroke: #000000; stroke-width: 0.8"/>
      </g>
     </g>
     <g id="text_13">
      <!-- 85.0 -->
      <g transform="translate(28.334375 248.023219)scale(0.1 -0.1)">
       <use xlink:href="#DejaVuSans-38"/>
       <use xlink:href="#DejaVuSans-35" x="63.623047"/>
       <use xlink:href="#DejaVuSans-2e" x="127.246094"/>
       <use xlink:href="#DejaVuSans-30" x="159.033203"/>
      </g>
     </g>
    </g>
    <g id="ytick_4">
     <g id="line2d_25">
      <path d="M 57.6 212.544 
L 414.72 212.544 
" clip-path="url(#p55b51b0db0)" style="fill: none; stroke-dasharray: 2.96,1.28; stroke-dashoffset: 0; stroke: #b0b0b0; stroke-width: 0.8"/>
     </g>
     <g id="line2d_26">
      <g>
       <use xlink:href="#maa14416bbc" x="57.6" y="212.544" style="stroke: #000000; stroke-width: 0.8"/>
      </g>
     </g>
     <g id="text_14">
      <!-- 87.5 -->
      <g transform="translate(28.334375 216.343219)scale(0.1 -0.1)">
       <use xlink:href="#DejaVuSans-38"/>
       <use xlink:href="#DejaVuSans-37" x="63.623047"/>
       <use xlink:href="#DejaVuSans-2e" x="127.246094"/>
       <use xlink:href="#DejaVuSans-35" x="159.033203"/>
      </g>
     </g>
    </g>
    <g id="ytick_5">
     <g id="line2d_27">
      <path d="M 57.6 180.864 
L 414.72 180.864 
" clip-path="url(#p55b51b0db0)" style="fill: none; stroke-dasharray: 2.96,1.28; stroke-dashoffset: 0; stroke: #b0b0b0; stroke-width: 0.8"/>
     </g>
     <g id="line2d_28">
      <g>
       <use xlink:href="#maa14416bbc" x="57.6" y="180.864" style="stroke: #000000; stroke-width: 0.8"/>
      </g>
     </g>
     <g id="text_15">
      <!-- 90.0 -->
      <g transform="translate(28.334375 184.663219)scale(0.1 -0.1)">
       <defs>
        <path id="DejaVuSans-39" d="M 703 97 
L 703 672 
Q 941 559 1184 500 
Q 1428 441 1663 441 
Q 2288 441 2617 861 
Q 2947 1281 2994 2138 
Q 2813 1869 2534 1725 
Q 2256 1581 1919 1581 
Q 1219 1581 811 2004 
Q 403 2428 403 3163 
Q 403 3881 828 4315 
Q 1253 4750 1959 4750 
Q 2769 4750 3195 4129 
Q 3622 3509 3622 2328 
Q 3622 1225 3098 567 
Q 2575 -91 1691 -91 
Q 1453 -91 1209 -44 
Q 966 3 703 97 
z
M 1959 2075 
Q 2384 2075 2632 2365 
Q 2881 2656 2881 3163 
Q 2881 3666 2632 3958 
Q 2384 4250 1959 4250 
Q 1534 4250 1286 3958 
Q 1038 3666 1038 3163 
Q 1038 2656 1286 2365 
Q 1534 2075 1959 2075 
z
" transform="scale(0.015625)"/>
       </defs>
       <use xlink:href="#DejaVuSans-39"/>
       <use xlink:href="#DejaVuSans-30" x="63.623047"/>
       <use xlink:href="#DejaVuSans-2e" x="127.246094"/>
       <use xlink:href="#DejaVuSans-30" x="159.033203"/>
      </g>
     </g>
    </g>
    <g id="ytick_6">
     <g id="line2d_29">
      <path d="M 57.6 149.184 
L 414.72 149.184 
" clip-path="url(#p55b51b0db0)" style="fill: none; stroke-dasharray: 2.96,1.28; stroke-dashoffset: 0; stroke: #b0b0b0; stroke-width: 0.8"/>
     </g>
     <g id="line2d_30">
      <g>
       <use xlink:href="#maa14416bbc" x="57.6" y="149.184" style="stroke: #000000; stroke-width: 0.8"/>
      </g>
     </g>
     <g id="text_16">
      <!-- 92.5 -->
      <g transform="translate(28.334375 152.983219)scale(0.1 -0.1)">
       <use xlink:href="#DejaVuSans-39"/>
       <use xlink:href="#DejaVuSans-32" x="63.623047"/>
       <use xlink:href="#DejaVuSans-2e" x="127.246094"/>
       <use xlink:href="#DejaVuSans-35" x="159.033203"/>
      </g>
     </g>
    </g>
    <g id="ytick_7">
     <g id="line2d_31">
      <path d="M 57.6 117.504 
L 414.72 117.504 
" clip-path="url(#p55b51b0db0)" style="fill: none; stroke-dasharray: 2.96,1.28; stroke-dashoffset: 0; stroke: #b0b0b0; stroke-width: 0.8"/>
     </g>
     <g id="line2d_32">
      <g>
       <use xlink:href="#maa14416bbc" x="57.6" y="117.504" style="stroke: #000000; stroke-width: 0.8"/>
      </g>
     </g>
     <g id="text_17">
      <!-- 95.0 -->
      <g transform="translate(28.334375 121.303219)scale(0.1 -0.1)">
       <use xlink:href="#DejaVuSans-39"/>
       <use xlink:href="#DejaVuSans-35" x="63.623047"/>
       <use xlink:href="#DejaVuSans-2e" x="127.246094"/>
       <use xlink:href="#DejaVuSans-30" x="159.033203"/>
      </g>
     </g>
    </g>
    <g id="ytick_8">
     <g id="line2d_33">
      <path d="M 57.6 85.824 
L 414.72 85.824 
" clip-path="url(#p55b51b0db0)" style="fill: none; stroke-dasharray: 2.96,1.28; stroke-dashoffset: 0; stroke: #b0b0b0; stroke-width: 0.8"/>
     </g>
     <g id="line2d_34">
      <g>
       <use xlink:href="#maa14416bbc" x="57.6" y="85.824" style="stroke: #000000; stroke-width: 0.8"/>
      </g>
     </g>
     <g id="text_18">
      <!-- 97.5 -->
      <g transform="translate(28.334375 89.623219)scale(0.1 -0.1)">
       <use xlink:href="#DejaVuSans-39"/>
       <use xlink:href="#DejaVuSans-37" x="63.623047"/>
       <use xlink:href="#DejaVuSans-2e" x="127.246094"/>
       <use xlink:href="#DejaVuSans-35" x="159.033203"/>
      </g>
     </g>
    </g>
    <g id="ytick_9">
     <g id="line2d_35">
      <path d="M 57.6 54.144 
L 414.72 54.144 
" clip-path="url(#p55b51b0db0)" style="fill: none; stroke-dasharray: 2.96,1.28; stroke-dashoffset: 0; stroke: #b0b0b0; stroke-width: 0.8"/>
     </g>
     <g id="line2d_36">
      <g>
       <use xlink:href="#maa14416bbc" x="57.6" y="54.144" style="stroke: #000000; stroke-width: 0.8"/>
      </g>
     </g>
     <g id="text_19">
      <!-- 100.0 -->
      <g transform="translate(21.971875 57.943219)scale(0.1 -0.1)">
       <use xlink:href="#DejaVuSans-31"/>
       <use xlink:href="#DejaVuSans-30" x="63.623047"/>
       <use xlink:href="#DejaVuSans-30" x="127.246094"/>
       <use xlink:href="#DejaVuSans-2e" x="190.869141"/>
       <use xlink:href="#DejaVuSans-30" x="222.65625"/>
      </g>
     </g>
    </g>
    <g id="text_20">
     <!-- Train Accuracy % -->
     <g transform="translate(15.892187 217.278781)rotate(-90)scale(0.1 -0.1)">
      <defs>
       <path id="DejaVuSans-54" d="M -19 4666 
L 3928 4666 
L 3928 4134 
L 2272 4134 
L 2272 0 
L 1638 0 
L 1638 4134 
L -19 4134 
L -19 4666 
z
" transform="scale(0.015625)"/>
       <path id="DejaVuSans-72" d="M 2631 2963 
Q 2534 3019 2420 3045 
Q 2306 3072 2169 3072 
Q 1681 3072 1420 2755 
Q 1159 2438 1159 1844 
L 1159 0 
L 581 0 
L 581 3500 
L 1159 3500 
L 1159 2956 
Q 1341 3275 1631 3429 
Q 1922 3584 2338 3584 
Q 2397 3584 2469 3576 
Q 2541 3569 2628 3553 
L 2631 2963 
z
" transform="scale(0.015625)"/>
       <path id="DejaVuSans-61" d="M 2194 1759 
Q 1497 1759 1228 1600 
Q 959 1441 959 1056 
Q 959 750 1161 570 
Q 1363 391 1709 391 
Q 2188 391 2477 730 
Q 2766 1069 2766 1631 
L 2766 1759 
L 2194 1759 
z
M 3341 1997 
L 3341 0 
L 2766 0 
L 2766 531 
Q 2569 213 2275 61 
Q 1981 -91 1556 -91 
Q 1019 -91 701 211 
Q 384 513 384 1019 
Q 384 1609 779 1909 
Q 1175 2209 1959 2209 
L 2766 2209 
L 2766 2266 
Q 2766 2663 2505 2880 
Q 2244 3097 1772 3097 
Q 1472 3097 1187 3025 
Q 903 2953 641 2809 
L 641 3341 
Q 956 3463 1253 3523 
Q 1550 3584 1831 3584 
Q 2591 3584 2966 3190 
Q 3341 2797 3341 1997 
z
" transform="scale(0.015625)"/>
       <path id="DejaVuSans-69" d="M 603 3500 
L 1178 3500 
L 1178 0 
L 603 0 
L 603 3500 
z
M 603 4863 
L 1178 4863 
L 1178 4134 
L 603 4134 
L 603 4863 
z
" transform="scale(0.015625)"/>
       <path id="DejaVuSans-6e" d="M 3513 2113 
L 3513 0 
L 2938 0 
L 2938 2094 
Q 2938 2591 2744 2837 
Q 2550 3084 2163 3084 
Q 1697 3084 1428 2787 
Q 1159 2491 1159 1978 
L 1159 0 
L 581 0 
L 581 3500 
L 1159 3500 
L 1159 2956 
Q 1366 3272 1645 3428 
Q 1925 3584 2291 3584 
Q 2894 3584 3203 3211 
Q 3513 2838 3513 2113 
z
" transform="scale(0.015625)"/>
       <path id="DejaVuSans-20" transform="scale(0.015625)"/>
       <path id="DejaVuSans-41" d="M 2188 4044 
L 1331 1722 
L 3047 1722 
L 2188 4044 
z
M 1831 4666 
L 2547 4666 
L 4325 0 
L 3669 0 
L 3244 1197 
L 1141 1197 
L 716 0 
L 50 0 
L 1831 4666 
z
" transform="scale(0.015625)"/>
       <path id="DejaVuSans-75" d="M 544 1381 
L 544 3500 
L 1119 3500 
L 1119 1403 
Q 1119 906 1312 657 
Q 1506 409 1894 409 
Q 2359 409 2629 706 
Q 2900 1003 2900 1516 
L 2900 3500 
L 3475 3500 
L 3475 0 
L 2900 0 
L 2900 538 
Q 2691 219 2414 64 
Q 2138 -91 1772 -91 
Q 1169 -91 856 284 
Q 544 659 544 1381 
z
M 1991 3584 
L 1991 3584 
z
" transform="scale(0.015625)"/>
       <path id="DejaVuSans-79" d="M 2059 -325 
Q 1816 -950 1584 -1140 
Q 1353 -1331 966 -1331 
L 506 -1331 
L 506 -850 
L 844 -850 
Q 1081 -850 1212 -737 
Q 1344 -625 1503 -206 
L 1606 56 
L 191 3500 
L 800 3500 
L 1894 763 
L 2988 3500 
L 3597 3500 
L 2059 -325 
z
" transform="scale(0.015625)"/>
       <path id="DejaVuSans-25" d="M 4653 2053 
Q 4381 2053 4226 1822 
Q 4072 1591 4072 1178 
Q 4072 772 4226 539 
Q 4381 306 4653 306 
Q 4919 306 5073 539 
Q 5228 772 5228 1178 
Q 5228 1588 5073 1820 
Q 4919 2053 4653 2053 
z
M 4653 2450 
Q 5147 2450 5437 2106 
Q 5728 1763 5728 1178 
Q 5728 594 5436 251 
Q 5144 -91 4653 -91 
Q 4153 -91 3862 251 
Q 3572 594 3572 1178 
Q 3572 1766 3864 2108 
Q 4156 2450 4653 2450 
z
M 1428 4353 
Q 1159 4353 1004 4120 
Q 850 3888 850 3481 
Q 850 3069 1003 2837 
Q 1156 2606 1428 2606 
Q 1700 2606 1854 2837 
Q 2009 3069 2009 3481 
Q 2009 3884 1853 4118 
Q 1697 4353 1428 4353 
z
M 4250 4750 
L 4750 4750 
L 1831 -91 
L 1331 -91 
L 4250 4750 
z
M 1428 4750 
Q 1922 4750 2215 4408 
Q 2509 4066 2509 3481 
Q 2509 2891 2217 2550 
Q 1925 2209 1428 2209 
Q 931 2209 642 2551 
Q 353 2894 353 3481 
Q 353 4063 643 4406 
Q 934 4750 1428 4750 
z
" transform="scale(0.015625)"/>
      </defs>
      <use xlink:href="#DejaVuSans-54"/>
      <use xlink:href="#DejaVuSans-72" x="46.333984"/>
      <use xlink:href="#DejaVuSans-61" x="87.447266"/>
      <use xlink:href="#DejaVuSans-69" x="148.726562"/>
      <use xlink:href="#DejaVuSans-6e" x="176.509766"/>
      <use xlink:href="#DejaVuSans-20" x="239.888672"/>
      <use xlink:href="#DejaVuSans-41" x="271.675781"/>
      <use xlink:href="#DejaVuSans-63" x="338.333984"/>
      <use xlink:href="#DejaVuSans-63" x="393.314453"/>
      <use xlink:href="#DejaVuSans-75" x="448.294922"/>
      <use xlink:href="#DejaVuSans-72" x="511.673828"/>
      <use xlink:href="#DejaVuSans-61" x="552.787109"/>
      <use xlink:href="#DejaVuSans-63" x="614.066406"/>
      <use xlink:href="#DejaVuSans-79" x="669.046875"/>
      <use xlink:href="#DejaVuSans-20" x="728.226562"/>
      <use xlink:href="#DejaVuSans-25" x="760.013672"/>
     </g>
    </g>
   </g>
   <g id="line2d_37">
    <path d="M 80.543401 346.6 
L 81.989877 315.770112 
L 83.621307 298.96704 
L 86.884166 271.874304 
L 88.515596 258.239232 
L 91.778456 244.300032 
L 93.409886 242.627328 
L 95.041316 236.975616 
L 96.672746 229.372416 
L 98.304175 226.4832 
L 99.935605 224.810496 
L 101.567035 221.718528 
L 103.198465 214.748928 
L 104.829895 213.329664 
L 106.461325 210.51648 
L 108.092755 211.53024 
L 109.724185 211.2768 
L 111.355614 209.401344 
L 112.987044 204.459264 
L 114.618474 205.270272 
L 116.249904 203.065344 
L 117.881334 201.164544 
L 119.512764 199.61856 
L 121.144194 197.160192 
L 122.775624 196.425216 
L 124.407053 199.643904 
L 126.038483 199.517184 
L 127.669913 194.651136 
L 129.301343 196.121088 
L 130.932773 194.727168 
L 132.564203 194.828544 
L 134.195633 192.877056 
L 135.827063 192.927744 
L 137.458492 191.280384 
L 139.089922 191.812608 
L 140.721352 190.672128 
L 142.352782 190.697472 
L 143.984212 188.898048 
L 145.615642 189.48096 
L 147.247072 187.529472 
L 148.878502 189.024768 
L 150.509931 188.872704 
L 152.141361 185.780736 
L 153.772791 189.176832 
L 155.404221 186.769152 
L 157.035651 188.112384 
L 158.667081 185.451264 
L 160.298511 186.69312 
L 161.929941 185.831424 
L 163.56137 187.428096 
L 165.1928 183.90528 
L 166.82423 185.882112 
L 168.45566 182.942208 
L 170.08709 186.667776 
L 171.71852 184.082688 
L 173.34995 183.043584 
L 174.98138 186.642432 
L 176.61281 183.677184 
L 178.244239 183.677184 
L 181.507099 184.082688 
L 183.138529 183.499776 
L 184.769959 183.753216 
L 186.401389 179.495424 
L 188.032819 179.875584 
L 191.295678 183.77856 
L 192.927108 182.207232 
L 194.558538 182.460672 
L 196.189968 181.446912 
L 197.821398 182.25792 
L 199.452828 180.407808 
L 201.084258 185.273856 
L 202.715688 181.269504 
L 204.347117 179.08992 
L 205.978547 181.294848 
L 207.609977 180.48384 
L 209.241407 180.99072 
L 210.872837 181.041408 
L 212.504267 180.838656 
L 214.135697 180.458496 
L 215.767127 181.548288 
L 217.398556 179.267328 
L 219.029986 182.663424 
L 220.661416 178.000128 
L 222.292846 180.306432 
L 223.924276 181.016064 
L 225.555706 179.064576 
L 227.187136 179.85024 
L 228.818566 181.193472 
L 232.081425 175.896576 
L 233.712855 182.587392 
L 235.344285 179.165952 
L 236.975715 180.078336 
L 238.607145 178.253568 
L 240.238575 178.050816 
L 241.870005 177.619968 
L 243.501434 180.2304 
L 245.132864 182.105856 
L 246.764294 178.45632 
L 248.395724 179.34336 
L 250.027154 181.675008 
L 251.658584 178.887168 
L 253.290014 179.34336 
L 254.921444 178.684416 
L 256.552873 178.735104 
L 258.184303 178.58304 
L 259.815733 178.659072 
L 261.447163 179.292672 
L 263.078593 179.546112 
L 264.710023 176.606208 
L 266.341453 179.165952 
L 267.972883 176.30208 
L 269.604312 176.80896 
L 271.235742 175.465728 
L 272.867172 178.937856 
L 274.498602 176.530176 
L 276.130032 176.276736 
L 277.761462 177.772032 
L 279.392892 177.31584 
L 281.024322 174.071808 
L 282.655751 181.548288 
L 284.287181 179.799552 
L 285.918611 177.696 
L 287.550041 180.711936 
L 289.181471 181.446912 
L 290.812901 178.557696 
L 292.444331 180.331776 
L 294.075761 177.898752 
L 295.70719 178.380288 
L 297.33862 177.873408 
L 298.97005 178.278912 
L 300.60148 179.875584 
L 302.23291 177.848064 
L 303.86434 179.292672 
L 305.49577 179.5968 
L 307.1272 175.997952 
L 308.75863 180.635904 
L 310.390059 177.493248 
L 312.021489 176.403456 
L 313.652919 178.253568 
L 315.284349 175.54176 
L 316.915779 179.34336 
L 318.547209 113.372928 
L 320.178639 93.477888 
L 321.810069 86.178816 
L 326.704358 73.65888 
L 328.335788 72.619776 
L 329.967218 69.401088 
L 333.230078 65.852928 
L 334.861508 65.396736 
L 336.492937 64.813824 
L 338.124367 64.40832 
L 339.755797 65.16864 
L 341.387227 64.332288 
L 343.018657 65.244672 
L 344.650087 63.876096 
L 346.281517 64.306944 
L 347.912947 65.16864 
L 349.544376 65.320704 
L 351.175806 65.320704 
L 352.807236 63.673344 
L 354.438666 66.461184 
L 356.070096 64.053504 
L 357.701526 65.574144 
L 359.332956 64.940544 
L 360.964386 65.143296 
L 362.595815 66.663936 
L 364.227245 65.320704 
L 365.858675 66.43584 
L 367.490105 68.057856 
L 369.121535 66.359808 
L 370.752965 67.373568 
L 372.384395 67.500288 
L 374.015825 68.666112 
L 375.647254 69.527808 
L 377.278684 68.742144 
L 378.910114 69.325056 
L 380.541544 71.37792 
L 382.172974 70.516224 
L 383.804404 69.375744 
L 385.435834 68.032512 
L 387.067264 70.6176 
L 388.698693 69.578496 
L 390.330123 70.845696 
L 391.961553 73.02528 
L 393.592983 70.845696 
L 395.224413 72.746496 
L 396.855843 70.034688 
L 398.487273 71.75808 
L 398.487273 71.75808 
" clip-path="url(#p55b51b0db0)" style="fill: none; stroke: #1f77b4; stroke-width: 1.5; stroke-linecap: square"/>
   </g>
   <g id="line2d_38">
    <path d="M 80.803211 346.6 
L 81.989877 314.17344 
L 83.621307 280.84608 
L 85.252736 257.174784 
L 86.884166 236.36736 
L 88.515596 223.847424 
L 90.147026 206.436096 
L 91.778456 196.653312 
L 93.409886 183.65184 
L 95.041316 174.173184 
L 98.304175 159.270912 
L 99.935605 149.285376 
L 101.567035 146.066688 
L 103.198465 138.640896 
L 104.829895 134.053632 
L 106.461325 128.2752 
L 108.092755 121.660416 
L 111.355614 114.614784 
L 112.987044 112.739328 
L 114.618474 109.064448 
L 116.249904 103.5648 
L 117.881334 102.829824 
L 119.512764 100.194048 
L 121.144194 95.328 
L 122.775624 94.415616 
L 124.407053 91.348992 
L 126.038483 89.777664 
L 127.669913 87.47136 
L 129.301343 86.812416 
L 130.932773 84.455424 
L 132.564203 83.745792 
L 134.195633 84.30336 
L 135.827063 80.983296 
L 137.458492 80.400384 
L 139.089922 78.144768 
L 140.721352 77.283072 
L 142.352782 76.548096 
L 143.984212 77.33376 
L 145.615642 75.81312 
L 147.247072 75.027456 
L 148.878502 75.43296 
L 150.509931 72.974592 
L 152.141361 73.354752 
L 153.772791 71.50464 
L 155.404221 71.656704 
L 157.035651 70.74432 
L 158.667081 72.01152 
L 161.929941 68.97024 
L 163.56137 69.47712 
L 165.1928 68.944896 
L 166.82423 69.046272 
L 170.08709 67.550976 
L 171.71852 69.147648 
L 173.34995 68.184576 
L 174.98138 66.663936 
L 176.61281 66.663936 
L 179.875669 66.233088 
L 181.507099 65.903616 
L 183.138529 66.866688 
L 184.769959 66.94272 
L 186.401389 65.29536 
L 188.032819 64.332288 
L 189.664249 64.965888 
L 191.295678 64.940544 
L 192.927108 65.117952 
L 194.558538 64.2816 
L 196.189968 64.813824 
L 197.821398 63.724032 
L 199.452828 64.053504 
L 201.084258 64.560384 
L 202.715688 63.495936 
L 204.347117 61.848576 
L 205.978547 63.369216 
L 207.609977 62.431488 
L 209.241407 62.735616 
L 210.872837 62.63424 
L 212.504267 62.3808 
L 214.135697 63.724032 
L 215.767127 62.178048 
L 217.398556 62.431488 
L 219.029986 61.595136 
L 220.661416 61.772544 
L 222.292846 61.62048 
L 223.924276 62.684928 
L 225.555706 61.848576 
L 227.187136 61.721856 
L 228.818566 61.772544 
L 230.449995 62.102016 
L 232.081425 60.35328 
L 233.712855 61.975296 
L 235.344285 61.392384 
L 238.607145 61.7472 
L 240.238575 61.49376 
L 241.870005 60.936192 
L 243.501434 61.316352 
L 245.132864 59.71968 
L 246.764294 61.24032 
L 248.395724 60.556032 
L 250.027154 60.049152 
L 251.658584 61.012224 
L 254.921444 59.795712 
L 256.552873 60.251904 
L 258.184303 60.378624 
L 259.815733 60.632064 
L 261.447163 60.22656 
L 264.710023 59.745024 
L 266.341453 60.251904 
L 267.972883 60.150528 
L 269.604312 59.643648 
L 271.235742 59.871744 
L 272.867172 59.491584 
L 274.498602 60.327936 
L 276.130032 59.491584 
L 279.392892 59.745024 
L 281.024322 58.934016 
L 282.655751 59.618304 
L 284.287181 59.567616 
L 285.918611 58.857984 
L 287.550041 59.035392 
L 290.812901 58.655232 
L 292.444331 59.491584 
L 294.075761 59.46624 
L 295.70719 58.83264 
L 297.33862 59.59296 
L 298.97005 58.731264 
L 300.60148 58.731264 
L 302.23291 59.59296 
L 303.86434 58.83264 
L 305.49577 59.314176 
L 307.1272 58.224384 
L 308.75863 58.45248 
L 312.021489 59.263488 
L 313.652919 58.249728 
L 315.284349 58.503168 
L 316.915779 56.272896 
L 318.547209 54.828288 
L 320.178639 55.03104 
L 321.810069 54.549504 
L 323.441498 54.498816 
L 325.072928 54.321408 
L 326.704358 54.625536 
L 329.967218 54.372096 
L 331.598648 54.27072 
L 333.230078 54.422784 
L 334.861508 54.39744 
L 336.492937 54.220032 
L 338.124367 54.448128 
L 339.755797 54.245376 
L 344.650087 54.27072 
L 346.281517 54.39744 
L 347.912947 54.169344 
L 354.438666 54.245376 
L 356.070096 54.144 
L 357.701526 54.245376 
L 364.227245 54.169344 
L 365.858675 54.321408 
L 369.121535 54.220032 
L 372.384395 54.245376 
L 375.647254 54.169344 
L 377.278684 54.27072 
L 380.541544 54.220032 
L 388.698693 54.169344 
L 393.592983 54.245376 
L 398.487273 54.245376 
L 398.487273 54.245376 
" clip-path="url(#p55b51b0db0)" style="fill: none; stroke: #ff7f0e; stroke-width: 1.5; stroke-linecap: square"/>
   </g>
   <g id="line2d_39">
    <path d="M 81.389604 346.6 
L 81.989877 329.861376 
L 83.621307 292.529664 
L 85.252736 269.973504 
L 86.884166 250.129152 
L 88.515596 234.542592 
L 90.147026 220.071168 
L 91.778456 208.032768 
L 93.409886 193.130496 
L 95.041316 189.455616 
L 96.672746 179.419392 
L 101.567035 157.826304 
L 103.198465 152.149248 
L 104.829895 147.207168 
L 106.461325 141.5808 
L 108.092755 136.76544 
L 109.724185 131.215104 
L 111.355614 130.885632 
L 112.987044 123.028992 
L 114.618474 121.483008 
L 116.249904 114.994944 
L 117.881334 115.248384 
L 119.512764 110.91456 
L 122.775624 104.654592 
L 124.407053 102.398976 
L 126.038483 102.322944 
L 129.301343 95.986944 
L 130.932773 94.516992 
L 132.564203 90.816768 
L 134.195633 89.803008 
L 135.827063 90.51264 
L 137.458492 86.178816 
L 139.089922 85.874688 
L 140.721352 84.252672 
L 142.352782 84.227328 
L 143.984212 81.363456 
L 145.615642 81.844992 
L 147.247072 80.197632 
L 148.878502 77.384448 
L 150.509931 77.46048 
L 152.141361 75.889152 
L 153.772791 77.131008 
L 155.404221 76.041216 
L 157.035651 74.520576 
L 158.667081 75.787776 
L 160.298511 73.329408 
L 161.929941 73.430784 
L 163.56137 71.428608 
L 165.1928 73.228032 
L 166.82423 71.12448 
L 168.45566 69.73056 
L 170.08709 70.87104 
L 171.71852 71.149824 
L 173.34995 69.3504 
L 174.98138 69.401088 
L 176.61281 69.020928 
L 178.244239 69.09696 
L 179.875669 69.527808 
L 181.507099 67.855104 
L 183.138529 68.742144 
L 184.769959 67.804416 
L 186.401389 67.145472 
L 188.032819 66.765312 
L 189.664249 66.94272 
L 191.295678 66.816 
L 192.927108 66.56256 
L 194.558538 66.537216 
L 196.189968 65.447424 
L 197.821398 65.700864 
L 199.452828 65.117952 
L 201.084258 65.092608 
L 202.715688 65.193984 
L 204.347117 64.864512 
L 205.978547 64.02816 
L 207.609977 66.004992 
L 209.241407 63.952128 
L 210.872837 64.230912 
L 212.504267 65.143296 
L 214.135697 65.117952 
L 215.767127 64.205568 
L 219.029986 63.952128 
L 220.661416 63.191808 
L 222.292846 64.53504 
L 223.924276 62.456832 
L 225.555706 63.26784 
L 227.187136 62.963712 
L 228.818566 63.876096 
L 230.449995 64.078848 
L 232.081425 63.876096 
L 233.712855 63.369216 
L 235.344285 62.076672 
L 236.975715 63.850752 
L 238.607145 62.355456 
L 240.238575 62.102016 
L 241.870005 61.138944 
L 243.501434 62.63424 
L 245.132864 63.318528 
L 246.764294 63.217152 
L 248.395724 60.834816 
L 250.027154 63.318528 
L 251.658584 62.00064 
L 253.290014 61.671168 
L 254.921444 62.330112 
L 256.552873 62.279424 
L 258.184303 61.214976 
L 259.815733 61.899264 
L 261.447163 61.24032 
L 263.078593 61.924608 
L 264.710023 61.316352 
L 266.341453 62.558208 
L 267.972883 62.076672 
L 269.604312 61.291008 
L 271.235742 61.468416 
L 272.867172 61.417728 
L 274.498602 62.304768 
L 276.130032 62.355456 
L 277.761462 61.189632 
L 281.024322 61.519104 
L 284.287181 61.417728 
L 287.550041 61.924608 
L 289.181471 59.998464 
L 292.444331 60.910848 
L 294.075761 61.62048 
L 295.70719 60.049152 
L 297.33862 60.834816 
L 298.97005 61.012224 
L 300.60148 60.403968 
L 302.23291 60.150528 
L 303.86434 60.530688 
L 305.49577 59.187456 
L 307.1272 60.327936 
L 308.75863 61.696512 
L 310.390059 61.62048 
L 312.021489 60.784128 
L 313.652919 59.390208 
L 315.284349 59.795712 
L 316.915779 60.049152 
L 318.547209 57.235968 
L 320.178639 56.019456 
L 321.810069 55.53792 
L 323.441498 55.335168 
L 326.704358 55.233792 
L 328.335788 54.828288 
L 331.598648 55.183104 
L 333.230078 54.853632 
L 334.861508 54.65088 
L 336.492937 54.828288 
L 341.387227 54.574848 
L 347.912947 54.726912 
L 351.175806 54.52416 
L 359.332956 54.574848 
L 360.964386 54.422784 
L 362.595815 54.422784 
L 364.227245 54.676224 
L 365.858675 54.448128 
L 372.384395 54.498816 
L 374.015825 54.422784 
L 375.647254 54.625536 
L 377.278684 54.39744 
L 378.910114 54.574848 
L 380.541544 54.296064 
L 382.172974 54.549504 
L 383.804404 54.39744 
L 385.435834 54.39744 
L 387.067264 54.574848 
L 388.698693 54.321408 
L 393.592983 54.473472 
L 395.224413 54.346752 
L 398.487273 54.372096 
L 398.487273 54.372096 
" clip-path="url(#p55b51b0db0)" style="fill: none; stroke: #2ca02c; stroke-width: 1.5; stroke-linecap: square"/>
   </g>
   <g id="line2d_40">
    <path d="M 84.076571 346.6 
L 85.252736 322.207488 
L 86.884166 301.856256 
L 88.515596 279.57888 
L 90.147026 264.87936 
L 91.778456 254.61504 
L 93.409886 243.007488 
L 95.041316 239.003136 
L 96.672746 229.39776 
L 98.304175 222.55488 
L 99.935605 219.969792 
L 101.567035 213.43104 
L 103.198465 204.459264 
L 104.829895 204.383232 
L 106.461325 196.399872 
L 108.092755 196.425216 
L 109.724185 193.054464 
L 111.355614 189.050112 
L 112.987044 186.718464 
L 114.618474 184.91904 
L 116.249904 182.181888 
L 117.881334 181.675008 
L 119.512764 175.389696 
L 121.144194 178.633728 
L 122.775624 174.984192 
L 124.407053 171.892224 
L 126.038483 171.638784 
L 127.669913 172.348416 
L 129.301343 170.244864 
L 130.932773 169.763328 
L 132.564203 167.862528 
L 135.827063 165.860352 
L 137.458492 163.275264 
L 139.089922 161.197056 
L 140.721352 161.779968 
L 142.352782 161.60256 
L 143.984212 157.29408 
L 145.615642 158.18112 
L 147.247072 160.614144 
L 148.878502 160.360704 
L 150.509931 158.079744 
L 152.141361 156.483072 
L 153.772791 153.974016 
L 155.404221 157.319424 
L 157.035651 155.874816 
L 158.667081 156.02688 
L 160.298511 153.061632 
L 161.929941 151.059456 
L 163.56137 153.391104 
L 165.1928 152.681472 
L 166.82423 150.628608 
L 168.45566 152.934912 
L 170.08709 149.589504 
L 171.71852 151.490304 
L 173.34995 149.589504 
L 176.61281 152.60544 
L 178.244239 148.702464 
L 179.875669 150.045696 
L 181.507099 147.131136 
L 183.138529 148.601088 
L 184.769959 150.223104 
L 186.401389 147.511296 
L 188.032819 147.004416 
L 189.664249 147.638016 
L 191.295678 145.103616 
L 192.927108 148.42368 
L 194.558538 147.308544 
L 196.189968 147.435264 
L 197.821398 143.633664 
L 199.452828 146.624256 
L 201.084258 144.444672 
L 202.715688 146.52288 
L 204.347117 142.442496 
L 205.978547 144.520704 
L 207.609977 144.292608 
L 209.241407 140.871168 
L 210.872837 142.062336 
L 212.504267 147.612672 
L 214.135697 142.97472 
L 215.767127 140.617728 
L 217.398556 141.378048 
L 220.661416 145.331712 
L 222.292846 142.08768 
L 223.924276 141.048576 
L 225.555706 140.972544 
L 227.187136 141.20064 
L 228.818566 142.569216 
L 230.449995 138.514176 
L 232.081425 143.760384 
L 233.712855 140.921856 
L 235.344285 141.884928 
L 236.975715 138.28608 
L 238.607145 143.202816 
L 240.238575 141.884928 
L 241.870005 136.588032 
L 243.501434 139.021056 
L 246.764294 140.972544 
L 248.395724 139.55328 
L 250.027154 140.795136 
L 251.658584 137.703168 
L 253.290014 140.009472 
L 254.921444 137.829888 
L 256.552873 136.537344 
L 258.184303 137.677824 
L 259.815733 140.516352 
L 261.447163 137.044224 
L 263.078593 136.993536 
L 266.341453 134.915328 
L 267.972883 137.424384 
L 269.604312 140.972544 
L 271.235742 134.560512 
L 272.867172 138.210048 
L 274.498602 134.053632 
L 276.130032 138.336768 
L 277.761462 133.72416 
L 279.392892 137.221632 
L 281.024322 136.486656 
L 285.918611 138.210048 
L 287.550041 135.675648 
L 289.181471 137.01888 
L 290.812901 134.155008 
L 292.444331 137.728512 
L 294.075761 135.523584 
L 295.70719 136.76544 
L 297.33862 135.219456 
L 298.97005 136.334592 
L 300.60148 136.917504 
L 302.23291 135.726336 
L 303.86434 134.307072 
L 305.49577 134.23104 
L 307.1272 137.551104 
L 308.75863 136.030464 
L 310.390059 133.774848 
L 312.021489 137.576448 
L 313.652919 137.221632 
L 315.284349 133.901568 
L 316.915779 132.938496 
L 318.547209 111.244032 
L 320.178639 95.07456 
L 321.810069 90.664704 
L 323.441498 85.139712 
L 325.072928 82.579968 
L 326.704358 81.160704 
L 328.335788 78.905088 
L 329.967218 79.766784 
L 331.598648 77.46048 
L 333.230078 76.801536 
L 334.861508 74.317824 
L 336.492937 74.4192 
L 338.124367 74.064384 
L 339.755797 73.202688 
L 341.387227 72.594432 
L 343.018657 71.808768 
L 344.650087 71.327232 
L 346.281517 69.401088 
L 347.912947 70.516224 
L 349.544376 69.755904 
L 351.175806 69.249024 
L 352.807236 69.198336 
L 354.438666 67.95648 
L 356.070096 68.7168 
L 357.701526 66.714624 
L 359.332956 67.70304 
L 360.964386 66.334464 
L 362.595815 67.905792 
L 364.227245 67.627008 
L 365.858675 65.92896 
L 367.490105 67.221504 
L 369.121535 65.244672 
L 370.752965 65.80224 
L 372.384395 65.574144 
L 374.015825 64.940544 
L 375.647254 66.68928 
L 377.278684 65.143296 
L 378.910114 64.53504 
L 380.541544 65.878272 
L 382.172974 65.270016 
L 383.804404 63.52128 
L 385.435834 64.053504 
L 387.067264 64.9152 
L 388.698693 65.193984 
L 390.330123 63.065088 
L 391.961553 64.332288 
L 393.592983 64.40832 
L 396.855843 64.205568 
L 398.487273 63.648 
L 398.487273 63.648 
" clip-path="url(#p55b51b0db0)" style="fill: none; stroke: #d62728; stroke-width: 1.5; stroke-linecap: square"/>
   </g>
   <g id="line2d_41">
    <path d="M 84.014111 346.6 
L 85.252736 321.14304 
L 86.884166 297.69984 
L 90.147026 261.686016 
L 91.778456 253.297152 
L 93.409886 238.192128 
L 95.041316 234.922752 
L 96.672746 225.545472 
L 98.304175 220.172544 
L 99.935605 211.580928 
L 103.198465 202.558464 
L 104.829895 197.540352 
L 106.461325 200.049408 
L 108.092755 191.077632 
L 109.724185 186.515712 
L 111.355614 185.04576 
L 112.987044 184.79232 
L 114.618474 181.700352 
L 116.249904 182.536704 
L 117.881334 174.680064 
L 119.512764 174.680064 
L 121.144194 169.433856 
L 122.775624 169.611264 
L 124.407053 169.129728 
L 126.038483 171.182592 
L 127.669913 169.053696 
L 129.301343 167.355648 
L 130.932773 163.097856 
L 132.564203 163.097856 
L 134.195633 161.171712 
L 135.827063 158.079744 
L 137.458492 156.685824 
L 139.089922 159.803136 
L 140.721352 162.337536 
L 142.352782 153.6192 
L 143.984212 156.28032 
L 145.615642 152.250624 
L 147.247072 157.243392 
L 148.878502 154.151424 
L 150.509931 153.289728 
L 152.141361 154.861056 
L 153.772791 148.854528 
L 155.404221 150.248448 
L 157.035651 149.006592 
L 158.667081 147.967488 
L 160.298511 146.573568 
L 161.929941 147.9168 
L 163.56137 147.004416 
L 165.1928 148.449024 
L 166.82423 141.251328 
L 168.45566 146.14272 
L 170.08709 144.799488 
L 171.71852 146.14272 
L 173.34995 143.456256 
L 174.98138 143.963136 
L 176.61281 144.267264 
L 178.244239 141.124608 
L 179.875669 144.571392 
L 181.507099 140.034816 
L 183.138529 143.4816 
L 184.769959 141.859584 
L 186.401389 138.79296 
L 188.032819 141.96096 
L 189.664249 140.617728 
L 191.295678 141.631488 
L 192.927108 139.756032 
L 194.558538 135.929088 
L 196.189968 141.32736 
L 197.821398 138.716928 
L 199.452828 136.89216 
L 201.084258 139.578624 
L 202.715688 135.396864 
L 204.347117 139.325184 
L 205.978547 135.067392 
L 207.609977 136.537344 
L 209.241407 136.613376 
L 210.872837 137.246976 
L 212.504267 136.030464 
L 214.135697 140.465664 
L 215.767127 135.700992 
L 217.398556 137.931264 
L 219.029986 130.150656 
L 220.661416 130.353408 
L 222.292846 133.21728 
L 223.924276 132.685056 
L 225.555706 136.25856 
L 227.187136 136.106496 
L 230.449995 136.359936 
L 232.081425 134.307072 
L 233.712855 134.383104 
L 235.344285 137.551104 
L 236.975715 132.380928 
L 238.607145 131.341824 
L 240.238575 131.012352 
L 241.870005 133.445376 
L 243.501434 129.821184 
L 245.132864 133.344 
L 246.764294 134.23104 
L 248.395724 130.961664 
L 250.027154 131.4432 
L 251.658584 132.380928 
L 253.290014 134.915328 
L 254.921444 129.212928 
L 256.552873 129.79584 
L 258.184303 134.6112 
L 259.815733 128.807424 
L 261.447163 130.93632 
L 263.078593 129.643776 
L 264.710023 132.558336 
L 266.341453 129.66912 
L 267.972883 133.546752 
L 269.604312 130.099968 
L 271.235742 129.212928 
L 272.867172 129.28896 
L 274.498602 132.380928 
L 276.130032 129.060864 
L 277.761462 127.286784 
L 279.392892 128.300544 
L 281.024322 127.692288 
L 282.655751 126.805248 
L 284.287181 127.819008 
L 285.918611 125.1072 
L 287.550041 127.464192 
L 289.181471 129.238272 
L 290.812901 126.805248 
L 292.444331 126.653184 
L 294.075761 128.503296 
L 295.70719 128.52864 
L 297.33862 129.111552 
L 298.97005 127.033344 
L 300.60148 126.349056 
L 302.23291 126.196992 
L 303.86434 127.844352 
L 305.49577 125.918208 
L 307.1272 128.706048 
L 308.75863 124.270848 
L 310.390059 124.98048 
L 312.021489 126.75456 
L 313.652919 124.625664 
L 315.284349 124.955136 
L 316.915779 128.52864 
L 318.547209 100.244736 
L 320.178639 86.71104 
L 321.810069 83.16288 
L 323.441498 78.879744 
L 325.072928 77.359104 
L 328.335788 73.836288 
L 329.967218 71.935488 
L 331.598648 71.63136 
L 333.230078 69.882624 
L 334.861508 70.87104 
L 336.492937 69.325056 
L 338.124367 67.601664 
L 339.755797 66.43584 
L 341.387227 66.131712 
L 343.018657 66.461184 
L 344.650087 66.258432 
L 346.281517 64.560384 
L 347.912947 64.509696 
L 349.544376 65.346048 
L 351.175806 64.053504 
L 352.807236 63.648 
L 354.438666 62.608896 
L 356.070096 62.3808 
L 357.701526 62.63424 
L 359.332956 63.039744 
L 360.964386 61.848576 
L 362.595815 60.910848 
L 364.227245 61.49376 
L 365.858675 61.088256 
L 367.490105 61.443072 
L 369.121535 60.809472 
L 370.752965 60.556032 
L 372.384395 60.09984 
L 374.015825 60.35328 
L 375.647254 60.201216 
L 377.278684 60.98688 
L 378.910114 59.947776 
L 380.541544 59.263488 
L 382.172974 59.618304 
L 383.804404 60.251904 
L 385.435834 60.378624 
L 387.067264 59.187456 
L 388.698693 59.770368 
L 390.330123 59.821056 
L 391.961553 60.049152 
L 395.224413 59.415552 
L 396.855843 60.175872 
L 398.487273 58.908672 
L 398.487273 58.908672 
" clip-path="url(#p55b51b0db0)" style="fill: none; stroke: #9467bd; stroke-width: 1.5; stroke-linecap: square"/>
   </g>
   <g id="line2d_42">
    <path d="M 80.103177 346.6 
L 80.358447 338.351616 
L 81.989877 303.427584 
L 83.621307 279.401472 
L 85.252736 257.200128 
L 86.884166 245.161728 
L 88.515596 227.851776 
L 91.778456 205.244928 
L 93.409886 195.4368 
L 96.672746 179.926272 
L 98.304175 174.325248 
L 99.935605 166.569984 
L 101.567035 161.805312 
L 103.198465 157.623552 
L 104.829895 151.769088 
L 106.461325 151.110144 
L 108.092755 145.027584 
L 109.724185 141.251328 
L 111.355614 137.880576 
L 112.987044 133.318656 
L 114.618474 129.770496 
L 116.249904 130.505472 
L 117.881334 124.34688 
L 119.512764 123.941376 
L 121.144194 121.711104 
L 122.775624 117.909504 
L 124.407053 116.74368 
L 126.038483 112.713984 
L 127.669913 113.119488 
L 129.301343 111.091968 
L 130.932773 111.015936 
L 134.195633 107.036928 
L 135.827063 106.555392 
L 137.458492 104.95872 
L 139.089922 100.472832 
L 140.721352 99.915264 
L 142.352782 102.703104 
L 143.984212 102.322944 
L 145.615642 97.000704 
L 147.247072 95.83488 
L 148.878502 96.392448 
L 150.509931 98.065152 
L 152.141361 96.772608 
L 153.772791 92.514816 
L 155.404221 95.9616 
L 157.035651 92.616192 
L 158.667081 95.809536 
L 160.298511 91.77984 
L 161.929941 89.87904 
L 163.56137 93.604608 
L 165.1928 88.86528 
L 166.82423 92.844288 
L 168.45566 87.927552 
L 170.08709 91.323648 
L 171.71852 91.374336 
L 173.34995 88.307712 
L 174.98138 87.547392 
L 176.61281 88.713216 
L 178.244239 87.750144 
L 179.875669 88.763904 
L 181.507099 87.674112 
L 183.138529 85.342464 
L 184.769959 87.496704 
L 186.401389 86.026752 
L 188.032819 87.572736 
L 189.664249 82.630656 
L 191.295678 87.040512 
L 192.927108 85.646592 
L 194.558538 84.93696 
L 196.189968 84.506112 
L 197.821398 81.591552 
L 199.452828 86.052096 
L 201.084258 85.671936 
L 202.715688 86.33088 
L 204.347117 83.2896 
L 205.978547 83.137536 
L 207.609977 82.605312 
L 209.241407 85.646592 
L 210.872837 81.89568 
L 212.504267 82.630656 
L 214.135697 82.656 
L 215.767127 82.199808 
L 217.398556 80.62848 
L 219.029986 81.186048 
L 220.661416 79.716096 
L 222.292846 81.464832 
L 223.924276 80.7552 
L 225.555706 79.538688 
L 227.187136 84.04992 
L 228.818566 80.299008 
L 230.449995 79.23456 
L 232.081425 80.780544 
L 233.712855 82.123776 
L 235.344285 78.98112 
L 236.975715 82.40256 
L 238.607145 80.932608 
L 240.238575 81.667584 
L 241.870005 79.842816 
L 243.501434 81.794304 
L 245.132864 78.955776 
L 246.764294 79.766784 
L 248.395724 81.89568 
L 250.027154 79.437312 
L 251.658584 80.805888 
L 253.290014 79.969536 
L 254.921444 80.299008 
L 256.552873 79.74144 
L 258.184303 77.865984 
L 259.815733 79.031808 
L 261.447163 79.158528 
L 263.078593 78.626304 
L 264.710023 75.661056 
L 266.341453 79.74144 
L 267.972883 79.209216 
L 269.604312 77.20704 
L 271.235742 79.918848 
L 274.498602 76.598784 
L 276.130032 79.86816 
L 277.761462 78.271488 
L 279.392892 78.47424 
L 282.655751 77.612544 
L 284.287181 77.435136 
L 285.918611 78.018048 
L 287.550041 78.322176 
L 289.181471 76.269312 
L 290.812901 77.156352 
L 292.444331 76.167936 
L 294.075761 78.144768 
L 295.70719 78.829056 
L 297.33862 76.70016 
L 298.97005 76.370688 
L 300.60148 78.170112 
L 302.23291 74.850048 
L 303.86434 79.437312 
L 305.49577 75.889152 
L 307.1272 78.170112 
L 308.75863 78.778368 
L 310.390059 77.054976 
L 312.021489 76.243968 
L 313.652919 76.70016 
L 315.284349 76.776192 
L 316.915779 78.322176 
L 318.547209 61.696512 
L 320.178639 56.982528 
L 323.441498 55.613952 
L 325.072928 55.613952 
L 326.704358 54.878976 
L 328.335788 54.802944 
L 331.598648 54.980352 
L 333.230078 54.90432 
L 334.861508 54.676224 
L 336.492937 54.625536 
L 338.124367 54.802944 
L 339.755797 54.65088 
L 344.650087 54.600192 
L 346.281517 54.473472 
L 347.912947 54.574848 
L 349.544376 54.52416 
L 351.175806 54.346752 
L 352.807236 54.473472 
L 354.438666 54.296064 
L 356.070096 54.549504 
L 357.701526 54.39744 
L 359.332956 54.473472 
L 362.595815 54.27072 
L 365.858675 54.422784 
L 367.490105 54.245376 
L 370.752965 54.245376 
L 374.015825 54.296064 
L 378.910114 54.346752 
L 382.172974 54.194688 
L 383.804404 54.346752 
L 385.435834 54.27072 
L 388.698693 54.27072 
L 398.487273 54.27072 
L 398.487273 54.27072 
" clip-path="url(#p55b51b0db0)" style="fill: none; stroke: #8c564b; stroke-width: 1.5; stroke-linecap: square"/>
   </g>
   <g id="line2d_43">
    <path d="M 78.428964 346.6 
L 78.727017 335.538432 
L 80.358447 300.006144 
L 81.989877 269.593344 
L 83.621307 256.211712 
L 85.252736 236.037888 
L 86.884166 219.665664 
L 88.515596 208.438272 
L 90.147026 196.32384 
L 91.778456 189.683712 
L 93.409886 179.495424 
L 95.041316 171.36 
L 96.672746 164.289024 
L 98.304175 158.029056 
L 99.935605 150.856704 
L 101.567035 148.93056 
L 103.198465 140.212224 
L 104.829895 137.475072 
L 106.461325 132.558336 
L 108.092755 125.512704 
L 109.724185 121.330944 
L 111.355614 119.734272 
L 114.618474 109.698048 
L 116.249904 109.672704 
L 117.881334 103.362048 
L 119.512764 100.219392 
L 121.144194 100.01664 
L 122.775624 97.254144 
L 124.407053 93.123072 
L 126.038483 90.715392 
L 127.669913 90.461952 
L 129.301343 90.715392 
L 130.932773 85.367808 
L 132.564203 86.635008 
L 134.195633 82.934784 
L 135.827063 82.250496 
L 137.458492 81.287424 
L 139.089922 79.665408 
L 140.721352 78.60096 
L 142.352782 78.98112 
L 143.984212 77.511168 
L 145.615642 77.08032 
L 147.247072 76.902912 
L 148.878502 73.937664 
L 150.509931 74.343168 
L 152.141361 70.795008 
L 153.772791 73.937664 
L 155.404221 72.822528 
L 157.035651 69.578496 
L 158.667081 71.048448 
L 160.298511 69.73056 
L 161.929941 71.50464 
L 163.56137 69.325056 
L 165.1928 68.59008 
L 166.82423 68.84352 
L 170.08709 68.615424 
L 171.71852 67.32288 
L 173.34995 69.502464 
L 174.98138 66.790656 
L 176.61281 66.866688 
L 178.244239 66.1824 
L 179.875669 66.486528 
L 181.507099 66.511872 
L 183.138529 68.387328 
L 184.769959 64.357632 
L 186.401389 66.157056 
L 188.032819 66.663936 
L 189.664249 63.343872 
L 191.295678 65.067264 
L 192.927108 62.558208 
L 194.558538 65.67552 
L 196.189968 63.77472 
L 197.821398 65.827584 
L 199.452828 63.622656 
L 201.084258 63.825408 
L 202.715688 62.786304 
L 204.347117 62.456832 
L 205.978547 63.217152 
L 207.609977 64.104192 
L 209.241407 62.279424 
L 210.872837 62.532864 
L 212.504267 64.205568 
L 214.135697 62.178048 
L 215.767127 62.00064 
L 217.398556 62.355456 
L 219.029986 61.924608 
L 220.661416 61.7472 
L 222.292846 61.899264 
L 223.924276 61.265664 
L 225.555706 61.62048 
L 227.187136 62.304768 
L 230.449995 60.22656 
L 232.081425 61.7472 
L 233.712855 62.12736 
L 235.344285 60.60672 
L 236.975715 62.076672 
L 238.607145 61.189632 
L 241.870005 61.417728 
L 243.501434 61.1136 
L 246.764294 59.694336 
L 248.395724 60.936192 
L 250.027154 59.871744 
L 251.658584 59.97312 
L 253.290014 59.288832 
L 254.921444 61.037568 
L 256.552873 60.35328 
L 258.184303 60.505344 
L 259.815733 60.530688 
L 261.447163 58.503168 
L 263.078593 60.632064 
L 264.710023 59.288832 
L 266.341453 59.238144 
L 267.972883 61.1136 
L 269.604312 59.238144 
L 271.235742 60.35328 
L 272.867172 60.35328 
L 274.498602 59.162112 
L 276.130032 59.795712 
L 277.761462 58.781952 
L 279.392892 59.364864 
L 281.024322 59.060736 
L 282.655751 59.238144 
L 284.287181 59.060736 
L 285.918611 58.427136 
L 287.550041 59.668992 
L 289.181471 59.567616 
L 290.812901 58.95936 
L 292.444331 59.618304 
L 294.075761 59.364864 
L 295.70719 57.641472 
L 297.33862 59.97312 
L 298.97005 59.668992 
L 300.60148 57.362688 
L 302.23291 59.643648 
L 303.86434 59.795712 
L 305.49577 56.93184 
L 307.1272 59.364864 
L 308.75863 59.643648 
L 310.390059 58.553856 
L 312.021489 57.894912 
L 313.652919 58.351104 
L 315.284349 57.641472 
L 316.915779 56.146176 
L 318.547209 55.183104 
L 320.178639 54.752256 
L 326.704358 54.422784 
L 328.335788 54.549504 
L 329.967218 54.321408 
L 331.598648 54.422784 
L 334.861508 54.220032 
L 336.492937 54.549504 
L 338.124367 54.321408 
L 343.018657 54.27072 
L 344.650087 54.169344 
L 347.912947 54.372096 
L 351.175806 54.372096 
L 352.807236 54.220032 
L 357.701526 54.220032 
L 359.332956 54.549504 
L 360.964386 54.625536 
L 362.595815 54.955008 
L 364.227245 54.980352 
L 365.858675 55.183104 
L 367.490105 55.056384 
L 369.121535 55.259136 
L 370.752965 55.259136 
L 372.384395 54.701568 
L 374.015825 55.309824 
L 375.647254 54.955008 
L 377.278684 54.980352 
L 378.910114 54.220032 
L 380.541544 55.360512 
L 382.172974 54.245376 
L 383.804404 54.676224 
L 385.435834 54.980352 
L 387.067264 54.321408 
L 388.698693 54.498816 
L 390.330123 55.081728 
L 391.961553 55.259136 
L 393.592983 54.726912 
L 395.224413 55.03104 
L 398.487273 54.473472 
L 398.487273 54.473472 
" clip-path="url(#p55b51b0db0)" style="fill: none; stroke: #e377c2; stroke-width: 1.5; stroke-linecap: square"/>
   </g>
   <g id="line2d_44">
    <path d="M 78.31158 346.6 
L 78.727017 328.948992 
L 80.358447 285.02784 
L 81.989877 254.082816 
L 83.621307 231.957504 
L 85.252736 214.013952 
L 86.884166 201.544704 
L 88.515596 193.66272 
L 90.147026 181.11744 
L 91.778456 174.882816 
L 93.409886 164.365056 
L 95.041316 161.60256 
L 96.672746 152.9856 
L 99.935605 142.619904 
L 101.567035 137.880576 
L 103.198465 136.76544 
L 104.829895 131.012352 
L 106.461325 128.376576 
L 108.092755 121.787136 
L 109.724185 118.872576 
L 111.355614 118.1376 
L 112.987044 118.416384 
L 114.618474 114.386688 
L 116.249904 111.446784 
L 117.881334 109.368576 
L 119.512764 105.566976 
L 121.144194 104.57856 
L 122.775624 102.42432 
L 124.407053 102.322944 
L 126.038483 103.31136 
L 127.669913 98.850816 
L 129.301343 96.544512 
L 130.932773 95.175936 
L 135.827063 93.579264 
L 137.458492 94.390272 
L 139.089922 91.044864 
L 140.721352 89.929728 
L 142.352782 89.11872 
L 143.984212 88.890624 
L 145.615642 90.107136 
L 147.247072 86.685696 
L 148.878502 87.243264 
L 150.509931 84.582144 
L 152.141361 84.125952 
L 153.772791 85.747968 
L 155.404221 84.455424 
L 157.035651 82.934784 
L 158.667081 83.999232 
L 160.298511 81.870336 
L 161.929941 83.213568 
L 163.56137 80.62848 
L 165.1928 83.41632 
L 166.82423 82.757376 
L 168.45566 78.651648 
L 170.08709 80.070912 
L 171.71852 78.60096 
L 173.34995 82.681344 
L 174.98138 81.921024 
L 176.61281 78.72768 
L 178.244239 80.172288 
L 179.875669 79.513344 
L 181.507099 79.411968 
L 183.138529 79.564032 
L 184.769959 77.96736 
L 186.401389 79.386624 
L 188.032819 79.513344 
L 189.664249 78.98112 
L 191.295678 79.792128 
L 192.927108 76.19328 
L 194.558538 79.23456 
L 196.189968 79.031808 
L 197.821398 76.978944 
L 199.452828 78.271488 
L 201.084258 81.110016 
L 202.715688 77.46048 
L 204.347117 78.068736 
L 205.978547 76.725504 
L 207.609977 77.84064 
L 209.241407 78.119424 
L 210.872837 77.131008 
L 212.504267 80.273664 
L 214.135697 78.423552 
L 215.767127 73.582848 
L 217.398556 77.561856 
L 219.029986 76.750848 
L 220.661416 76.472064 
L 222.292846 77.612544 
L 223.924276 77.84064 
L 225.555706 76.497408 
L 227.187136 77.71392 
L 228.818566 78.068736 
L 230.449995 75.787776 
L 232.081425 76.44672 
L 233.712855 78.018048 
L 235.344285 75.863808 
L 236.975715 77.561856 
L 238.607145 76.649472 
L 240.238575 76.294656 
L 241.870005 77.739264 
L 243.501434 77.637888 
L 245.132864 75.508992 
L 246.764294 77.637888 
L 248.395724 77.232384 
L 250.027154 77.891328 
L 251.658584 77.20704 
L 253.290014 75.331584 
L 254.921444 75.93984 
L 256.552873 79.23456 
L 258.184303 76.396032 
L 259.815733 77.96736 
L 261.447163 74.951424 
L 263.078593 73.836288 
L 264.710023 75.43296 
L 266.341453 75.407616 
L 267.972883 76.218624 
L 269.604312 75.610368 
L 271.235742 74.317824 
L 272.867172 76.370688 
L 276.130032 74.54592 
L 277.761462 77.789952 
L 279.392892 77.029632 
L 281.024322 75.737088 
L 282.655751 75.914496 
L 284.287181 76.978944 
L 285.918611 72.13824 
L 287.550041 76.548096 
L 289.181471 75.838464 
L 290.812901 74.368512 
L 292.444331 76.142592 
L 294.075761 73.557504 
L 295.70719 76.902912 
L 298.97005 72.670464 
L 302.23291 74.748672 
L 303.86434 73.988352 
L 305.49577 75.0528 
L 307.1272 74.850048 
L 308.75863 74.4192 
L 310.390059 76.269312 
L 312.021489 72.923904 
L 313.652919 70.87104 
L 315.284349 75.508992 
L 316.915779 61.037568 
L 318.547209 56.450304 
L 320.178639 55.79136 
L 321.810069 55.385856 
L 325.072928 55.183104 
L 326.704358 54.7776 
L 329.967218 54.676224 
L 333.230078 54.625536 
L 334.861508 54.7776 
L 339.755797 54.321408 
L 346.281517 54.372096 
L 347.912947 54.473472 
L 349.544376 54.346752 
L 354.438666 54.39744 
L 356.070096 54.220032 
L 359.332956 54.296064 
L 362.595815 54.220032 
L 364.227245 54.372096 
L 369.121535 54.372096 
L 370.752965 54.194688 
L 374.015825 54.245376 
L 377.278684 54.321408 
L 382.172974 54.169344 
L 383.804404 54.27072 
L 390.330123 54.169344 
L 391.961553 54.27072 
L 393.592983 54.169344 
L 398.487273 54.220032 
L 398.487273 54.220032 
" clip-path="url(#p55b51b0db0)" style="fill: none; stroke-dasharray: 5.55,2.4; stroke-dashoffset: 0; stroke: #7f7f7f; stroke-width: 1.5"/>
   </g>
   <g id="patch_3">
    <path d="M 57.6 307.584 
L 57.6 41.472 
" style="fill: none; stroke: #000000; stroke-width: 0.8; stroke-linejoin: miter; stroke-linecap: square"/>
   </g>
   <g id="patch_4">
    <path d="M 414.72 307.584 
L 414.72 41.472 
" style="fill: none; stroke: #000000; stroke-width: 0.8; stroke-linejoin: miter; stroke-linecap: square"/>
   </g>
   <g id="patch_5">
    <path d="M 57.6 307.584 
L 414.72 307.584 
" style="fill: none; stroke: #000000; stroke-width: 0.8; stroke-linejoin: miter; stroke-linecap: square"/>
   </g>
   <g id="patch_6">
    <path d="M 57.6 41.472 
L 414.72 41.472 
" style="fill: none; stroke: #000000; stroke-width: 0.8; stroke-linejoin: miter; stroke-linecap: square"/>
   </g>
   <g id="text_21">
    <!-- Train Accuracy for ResNet on CIFAR-10 -->
    <g transform="translate(121.17 35.472)scale(0.12 -0.12)">
     <defs>
      <path id="DejaVuSans-66" d="M 2375 4863 
L 2375 4384 
L 1825 4384 
Q 1516 4384 1395 4259 
Q 1275 4134 1275 3809 
L 1275 3500 
L 2222 3500 
L 2222 3053 
L 1275 3053 
L 1275 0 
L 697 0 
L 697 3053 
L 147 3053 
L 147 3500 
L 697 3500 
L 697 3744 
Q 697 4328 969 4595 
Q 1241 4863 1831 4863 
L 2375 4863 
z
" transform="scale(0.015625)"/>
      <path id="DejaVuSans-52" d="M 2841 2188 
Q 3044 2119 3236 1894 
Q 3428 1669 3622 1275 
L 4263 0 
L 3584 0 
L 2988 1197 
Q 2756 1666 2539 1819 
Q 2322 1972 1947 1972 
L 1259 1972 
L 1259 0 
L 628 0 
L 628 4666 
L 2053 4666 
Q 2853 4666 3247 4331 
Q 3641 3997 3641 3322 
Q 3641 2881 3436 2590 
Q 3231 2300 2841 2188 
z
M 1259 4147 
L 1259 2491 
L 2053 2491 
Q 2509 2491 2742 2702 
Q 2975 2913 2975 3322 
Q 2975 3731 2742 3939 
Q 2509 4147 2053 4147 
L 1259 4147 
z
" transform="scale(0.015625)"/>
      <path id="DejaVuSans-65" d="M 3597 1894 
L 3597 1613 
L 953 1613 
Q 991 1019 1311 708 
Q 1631 397 2203 397 
Q 2534 397 2845 478 
Q 3156 559 3463 722 
L 3463 178 
Q 3153 47 2828 -22 
Q 2503 -91 2169 -91 
Q 1331 -91 842 396 
Q 353 884 353 1716 
Q 353 2575 817 3079 
Q 1281 3584 2069 3584 
Q 2775 3584 3186 3129 
Q 3597 2675 3597 1894 
z
M 3022 2063 
Q 3016 2534 2758 2815 
Q 2500 3097 2075 3097 
Q 1594 3097 1305 2825 
Q 1016 2553 972 2059 
L 3022 2063 
z
" transform="scale(0.015625)"/>
      <path id="DejaVuSans-73" d="M 2834 3397 
L 2834 2853 
Q 2591 2978 2328 3040 
Q 2066 3103 1784 3103 
Q 1356 3103 1142 2972 
Q 928 2841 928 2578 
Q 928 2378 1081 2264 
Q 1234 2150 1697 2047 
L 1894 2003 
Q 2506 1872 2764 1633 
Q 3022 1394 3022 966 
Q 3022 478 2636 193 
Q 2250 -91 1575 -91 
Q 1294 -91 989 -36 
Q 684 19 347 128 
L 347 722 
Q 666 556 975 473 
Q 1284 391 1588 391 
Q 1994 391 2212 530 
Q 2431 669 2431 922 
Q 2431 1156 2273 1281 
Q 2116 1406 1581 1522 
L 1381 1569 
Q 847 1681 609 1914 
Q 372 2147 372 2553 
Q 372 3047 722 3315 
Q 1072 3584 1716 3584 
Q 2034 3584 2315 3537 
Q 2597 3491 2834 3397 
z
" transform="scale(0.015625)"/>
      <path id="DejaVuSans-4e" d="M 628 4666 
L 1478 4666 
L 3547 763 
L 3547 4666 
L 4159 4666 
L 4159 0 
L 3309 0 
L 1241 3903 
L 1241 0 
L 628 0 
L 628 4666 
z
" transform="scale(0.015625)"/>
      <path id="DejaVuSans-74" d="M 1172 4494 
L 1172 3500 
L 2356 3500 
L 2356 3053 
L 1172 3053 
L 1172 1153 
Q 1172 725 1289 603 
Q 1406 481 1766 481 
L 2356 481 
L 2356 0 
L 1766 0 
Q 1100 0 847 248 
Q 594 497 594 1153 
L 594 3053 
L 172 3053 
L 172 3500 
L 594 3500 
L 594 4494 
L 1172 4494 
z
" transform="scale(0.015625)"/>
      <path id="DejaVuSans-43" d="M 4122 4306 
L 4122 3641 
Q 3803 3938 3442 4084 
Q 3081 4231 2675 4231 
Q 1875 4231 1450 3742 
Q 1025 3253 1025 2328 
Q 1025 1406 1450 917 
Q 1875 428 2675 428 
Q 3081 428 3442 575 
Q 3803 722 4122 1019 
L 4122 359 
Q 3791 134 3420 21 
Q 3050 -91 2638 -91 
Q 1578 -91 968 557 
Q 359 1206 359 2328 
Q 359 3453 968 4101 
Q 1578 4750 2638 4750 
Q 3056 4750 3426 4639 
Q 3797 4528 4122 4306 
z
" transform="scale(0.015625)"/>
      <path id="DejaVuSans-49" d="M 628 4666 
L 1259 4666 
L 1259 0 
L 628 0 
L 628 4666 
z
" transform="scale(0.015625)"/>
      <path id="DejaVuSans-46" d="M 628 4666 
L 3309 4666 
L 3309 4134 
L 1259 4134 
L 1259 2759 
L 3109 2759 
L 3109 2228 
L 1259 2228 
L 1259 0 
L 628 0 
L 628 4666 
z
" transform="scale(0.015625)"/>
      <path id="DejaVuSans-2d" d="M 313 2009 
L 1997 2009 
L 1997 1497 
L 313 1497 
L 313 2009 
z
" transform="scale(0.015625)"/>
     </defs>
     <use xlink:href="#DejaVuSans-54"/>
     <use xlink:href="#DejaVuSans-72" x="46.333984"/>
     <use xlink:href="#DejaVuSans-61" x="87.447266"/>
     <use xlink:href="#DejaVuSans-69" x="148.726562"/>
     <use xlink:href="#DejaVuSans-6e" x="176.509766"/>
     <use xlink:href="#DejaVuSans-20" x="239.888672"/>
     <use xlink:href="#DejaVuSans-41" x="271.675781"/>
     <use xlink:href="#DejaVuSans-63" x="338.333984"/>
     <use xlink:href="#DejaVuSans-63" x="393.314453"/>
     <use xlink:href="#DejaVuSans-75" x="448.294922"/>
     <use xlink:href="#DejaVuSans-72" x="511.673828"/>
     <use xlink:href="#DejaVuSans-61" x="552.787109"/>
     <use xlink:href="#DejaVuSans-63" x="614.066406"/>
     <use xlink:href="#DejaVuSans-79" x="669.046875"/>
     <use xlink:href="#DejaVuSans-20" x="728.226562"/>
     <use xlink:href="#DejaVuSans-66" x="760.013672"/>
     <use xlink:href="#DejaVuSans-6f" x="795.21875"/>
     <use xlink:href="#DejaVuSans-72" x="856.400391"/>
     <use xlink:href="#DejaVuSans-20" x="897.513672"/>
     <use xlink:href="#DejaVuSans-52" x="929.300781"/>
     <use xlink:href="#DejaVuSans-65" x="994.283203"/>
     <use xlink:href="#DejaVuSans-73" x="1055.806641"/>
     <use xlink:href="#DejaVuSans-4e" x="1107.90625"/>
     <use xlink:href="#DejaVuSans-65" x="1182.710938"/>
     <use xlink:href="#DejaVuSans-74" x="1244.234375"/>
     <use xlink:href="#DejaVuSans-20" x="1283.443359"/>
     <use xlink:href="#DejaVuSans-6f" x="1315.230469"/>
     <use xlink:href="#DejaVuSans-6e" x="1376.412109"/>
     <use xlink:href="#DejaVuSans-20" x="1439.791016"/>
     <use xlink:href="#DejaVuSans-43" x="1471.578125"/>
     <use xlink:href="#DejaVuSans-49" x="1541.402344"/>
     <use xlink:href="#DejaVuSans-46" x="1570.894531"/>
     <use xlink:href="#DejaVuSans-41" x="1619.289062"/>
     <use xlink:href="#DejaVuSans-52" x="1687.697266"/>
     <use xlink:href="#DejaVuSans-2d" x="1753.179688"/>
     <use xlink:href="#DejaVuSans-31" x="1789.263672"/>
     <use xlink:href="#DejaVuSans-30" x="1852.886719"/>
    </g>
   </g>
   <g id="legend_1">
    <g id="patch_7">
     <path d="M 316.693438 302.584 
L 407.72 302.584 
Q 409.72 302.584 409.72 300.584 
L 409.72 184.159 
Q 409.72 182.159 407.72 182.159 
L 316.693438 182.159 
Q 314.693438 182.159 314.693438 184.159 
L 314.693438 300.584 
Q 314.693438 302.584 316.693438 302.584 
z
" style="fill: #ffffff; opacity: 0.8; stroke: #cccccc; stroke-linejoin: miter"/>
    </g>
    <g id="line2d_45">
     <path d="M 318.693438 190.257437 
L 328.693438 190.257437 
L 338.693438 190.257437 
" style="fill: none; stroke: #1f77b4; stroke-width: 1.5; stroke-linecap: square"/>
    </g>
    <g id="text_22">
     <!-- SGD -->
     <g transform="translate(346.693438 193.757437)scale(0.1 -0.1)">
      <defs>
       <path id="DejaVuSans-53" d="M 3425 4513 
L 3425 3897 
Q 3066 4069 2747 4153 
Q 2428 4238 2131 4238 
Q 1616 4238 1336 4038 
Q 1056 3838 1056 3469 
Q 1056 3159 1242 3001 
Q 1428 2844 1947 2747 
L 2328 2669 
Q 3034 2534 3370 2195 
Q 3706 1856 3706 1288 
Q 3706 609 3251 259 
Q 2797 -91 1919 -91 
Q 1588 -91 1214 -16 
Q 841 59 441 206 
L 441 856 
Q 825 641 1194 531 
Q 1563 422 1919 422 
Q 2459 422 2753 634 
Q 3047 847 3047 1241 
Q 3047 1584 2836 1778 
Q 2625 1972 2144 2069 
L 1759 2144 
Q 1053 2284 737 2584 
Q 422 2884 422 3419 
Q 422 4038 858 4394 
Q 1294 4750 2059 4750 
Q 2388 4750 2728 4690 
Q 3069 4631 3425 4513 
z
" transform="scale(0.015625)"/>
       <path id="DejaVuSans-47" d="M 3809 666 
L 3809 1919 
L 2778 1919 
L 2778 2438 
L 4434 2438 
L 4434 434 
Q 4069 175 3628 42 
Q 3188 -91 2688 -91 
Q 1594 -91 976 548 
Q 359 1188 359 2328 
Q 359 3472 976 4111 
Q 1594 4750 2688 4750 
Q 3144 4750 3555 4637 
Q 3966 4525 4313 4306 
L 4313 3634 
Q 3963 3931 3569 4081 
Q 3175 4231 2741 4231 
Q 1884 4231 1454 3753 
Q 1025 3275 1025 2328 
Q 1025 1384 1454 906 
Q 1884 428 2741 428 
Q 3075 428 3337 486 
Q 3600 544 3809 666 
z
" transform="scale(0.015625)"/>
       <path id="DejaVuSans-44" d="M 1259 4147 
L 1259 519 
L 2022 519 
Q 2988 519 3436 956 
Q 3884 1394 3884 2338 
Q 3884 3275 3436 3711 
Q 2988 4147 2022 4147 
L 1259 4147 
z
M 628 4666 
L 1925 4666 
Q 3281 4666 3915 4102 
Q 4550 3538 4550 2338 
Q 4550 1131 3912 565 
Q 3275 0 1925 0 
L 628 0 
L 628 4666 
z
" transform="scale(0.015625)"/>
      </defs>
      <use xlink:href="#DejaVuSans-53"/>
      <use xlink:href="#DejaVuSans-47" x="63.476562"/>
      <use xlink:href="#DejaVuSans-44" x="140.966797"/>
     </g>
    </g>
    <g id="line2d_46">
     <path d="M 318.693438 204.935563 
L 328.693438 204.935563 
L 338.693438 204.935563 
" style="fill: none; stroke: #ff7f0e; stroke-width: 1.5; stroke-linecap: square"/>
    </g>
    <g id="text_23">
     <!-- RMSProp -->
     <g transform="translate(346.693438 208.435563)scale(0.1 -0.1)">
      <defs>
       <path id="DejaVuSans-4d" d="M 628 4666 
L 1569 4666 
L 2759 1491 
L 3956 4666 
L 4897 4666 
L 4897 0 
L 4281 0 
L 4281 4097 
L 3078 897 
L 2444 897 
L 1241 4097 
L 1241 0 
L 628 0 
L 628 4666 
z
" transform="scale(0.015625)"/>
       <path id="DejaVuSans-50" d="M 1259 4147 
L 1259 2394 
L 2053 2394 
Q 2494 2394 2734 2622 
Q 2975 2850 2975 3272 
Q 2975 3691 2734 3919 
Q 2494 4147 2053 4147 
L 1259 4147 
z
M 628 4666 
L 2053 4666 
Q 2838 4666 3239 4311 
Q 3641 3956 3641 3272 
Q 3641 2581 3239 2228 
Q 2838 1875 2053 1875 
L 1259 1875 
L 1259 0 
L 628 0 
L 628 4666 
z
" transform="scale(0.015625)"/>
      </defs>
      <use xlink:href="#DejaVuSans-52"/>
      <use xlink:href="#DejaVuSans-4d" x="69.482422"/>
      <use xlink:href="#DejaVuSans-53" x="155.761719"/>
      <use xlink:href="#DejaVuSans-50" x="219.238281"/>
      <use xlink:href="#DejaVuSans-72" x="277.791016"/>
      <use xlink:href="#DejaVuSans-6f" x="316.654297"/>
      <use xlink:href="#DejaVuSans-70" x="377.835938"/>
     </g>
    </g>
    <g id="line2d_47">
     <path d="M 318.693438 219.613687 
L 328.693438 219.613687 
L 338.693438 219.613687 
" style="fill: none; stroke: #2ca02c; stroke-width: 1.5; stroke-linecap: square"/>
    </g>
    <g id="text_24">
     <!-- AdaGrad -->
     <g transform="translate(346.693438 223.113687)scale(0.1 -0.1)">
      <defs>
       <path id="DejaVuSans-64" d="M 2906 2969 
L 2906 4863 
L 3481 4863 
L 3481 0 
L 2906 0 
L 2906 525 
Q 2725 213 2448 61 
Q 2172 -91 1784 -91 
Q 1150 -91 751 415 
Q 353 922 353 1747 
Q 353 2572 751 3078 
Q 1150 3584 1784 3584 
Q 2172 3584 2448 3432 
Q 2725 3281 2906 2969 
z
M 947 1747 
Q 947 1113 1208 752 
Q 1469 391 1925 391 
Q 2381 391 2643 752 
Q 2906 1113 2906 1747 
Q 2906 2381 2643 2742 
Q 2381 3103 1925 3103 
Q 1469 3103 1208 2742 
Q 947 2381 947 1747 
z
" transform="scale(0.015625)"/>
      </defs>
      <use xlink:href="#DejaVuSans-41"/>
      <use xlink:href="#DejaVuSans-64" x="66.658203"/>
      <use xlink:href="#DejaVuSans-61" x="130.134766"/>
      <use xlink:href="#DejaVuSans-47" x="191.414062"/>
      <use xlink:href="#DejaVuSans-72" x="268.904297"/>
      <use xlink:href="#DejaVuSans-61" x="310.017578"/>
      <use xlink:href="#DejaVuSans-64" x="371.296875"/>
     </g>
    </g>
    <g id="line2d_48">
     <path d="M 318.693438 234.291812 
L 328.693438 234.291812 
L 338.693438 234.291812 
" style="fill: none; stroke: #d62728; stroke-width: 1.5; stroke-linecap: square"/>
    </g>
    <g id="text_25">
     <!-- Adam -->
     <g transform="translate(346.693438 237.791812)scale(0.1 -0.1)">
      <defs>
       <path id="DejaVuSans-6d" d="M 3328 2828 
Q 3544 3216 3844 3400 
Q 4144 3584 4550 3584 
Q 5097 3584 5394 3201 
Q 5691 2819 5691 2113 
L 5691 0 
L 5113 0 
L 5113 2094 
Q 5113 2597 4934 2840 
Q 4756 3084 4391 3084 
Q 3944 3084 3684 2787 
Q 3425 2491 3425 1978 
L 3425 0 
L 2847 0 
L 2847 2094 
Q 2847 2600 2669 2842 
Q 2491 3084 2119 3084 
Q 1678 3084 1418 2786 
Q 1159 2488 1159 1978 
L 1159 0 
L 581 0 
L 581 3500 
L 1159 3500 
L 1159 2956 
Q 1356 3278 1631 3431 
Q 1906 3584 2284 3584 
Q 2666 3584 2933 3390 
Q 3200 3197 3328 2828 
z
" transform="scale(0.015625)"/>
      </defs>
      <use xlink:href="#DejaVuSans-41"/>
      <use xlink:href="#DejaVuSans-64" x="66.658203"/>
      <use xlink:href="#DejaVuSans-61" x="130.134766"/>
      <use xlink:href="#DejaVuSans-6d" x="191.414062"/>
     </g>
    </g>
    <g id="line2d_49">
     <path d="M 318.693438 248.969937 
L 328.693438 248.969937 
L 338.693438 248.969937 
" style="fill: none; stroke: #9467bd; stroke-width: 1.5; stroke-linecap: square"/>
    </g>
    <g id="text_26">
     <!-- AMSGrad -->
     <g transform="translate(346.693438 252.469937)scale(0.1 -0.1)">
      <use xlink:href="#DejaVuSans-41"/>
      <use xlink:href="#DejaVuSans-4d" x="68.408203"/>
      <use xlink:href="#DejaVuSans-53" x="154.6875"/>
      <use xlink:href="#DejaVuSans-47" x="218.164062"/>
      <use xlink:href="#DejaVuSans-72" x="295.654297"/>
      <use xlink:href="#DejaVuSans-61" x="336.767578"/>
      <use xlink:href="#DejaVuSans-64" x="398.046875"/>
     </g>
    </g>
    <g id="line2d_50">
     <path d="M 318.693438 263.648062 
L 328.693438 263.648062 
L 338.693438 263.648062 
" style="fill: none; stroke: #8c564b; stroke-width: 1.5; stroke-linecap: square"/>
    </g>
    <g id="text_27">
     <!-- AdaBound -->
     <g transform="translate(346.693438 267.148062)scale(0.1 -0.1)">
      <defs>
       <path id="DejaVuSans-42" d="M 1259 2228 
L 1259 519 
L 2272 519 
Q 2781 519 3026 730 
Q 3272 941 3272 1375 
Q 3272 1813 3026 2020 
Q 2781 2228 2272 2228 
L 1259 2228 
z
M 1259 4147 
L 1259 2741 
L 2194 2741 
Q 2656 2741 2882 2914 
Q 3109 3088 3109 3444 
Q 3109 3797 2882 3972 
Q 2656 4147 2194 4147 
L 1259 4147 
z
M 628 4666 
L 2241 4666 
Q 2963 4666 3353 4366 
Q 3744 4066 3744 3513 
Q 3744 3084 3544 2831 
Q 3344 2578 2956 2516 
Q 3422 2416 3680 2098 
Q 3938 1781 3938 1306 
Q 3938 681 3513 340 
Q 3088 0 2303 0 
L 628 0 
L 628 4666 
z
" transform="scale(0.015625)"/>
      </defs>
      <use xlink:href="#DejaVuSans-41"/>
      <use xlink:href="#DejaVuSans-64" x="66.658203"/>
      <use xlink:href="#DejaVuSans-61" x="130.134766"/>
      <use xlink:href="#DejaVuSans-42" x="191.414062"/>
      <use xlink:href="#DejaVuSans-6f" x="260.017578"/>
      <use xlink:href="#DejaVuSans-75" x="321.199219"/>
      <use xlink:href="#DejaVuSans-6e" x="384.578125"/>
      <use xlink:href="#DejaVuSans-64" x="447.957031"/>
     </g>
    </g>
    <g id="line2d_51">
     <path d="M 318.693438 278.326187 
L 328.693438 278.326187 
L 338.693438 278.326187 
" style="fill: none; stroke: #e377c2; stroke-width: 1.5; stroke-linecap: square"/>
    </g>
    <g id="text_28">
     <!-- AdaMod -->
     <g transform="translate(346.693438 281.826187)scale(0.1 -0.1)">
      <use xlink:href="#DejaVuSans-41"/>
      <use xlink:href="#DejaVuSans-64" x="66.658203"/>
      <use xlink:href="#DejaVuSans-61" x="130.134766"/>
      <use xlink:href="#DejaVuSans-4d" x="191.414062"/>
      <use xlink:href="#DejaVuSans-6f" x="277.693359"/>
      <use xlink:href="#DejaVuSans-64" x="338.875"/>
     </g>
    </g>
    <g id="line2d_52">
     <path d="M 318.693438 293.004312 
L 328.693438 293.004312 
L 338.693438 293.004312 
" style="fill: none; stroke-dasharray: 5.55,2.4; stroke-dashoffset: 0; stroke: #7f7f7f; stroke-width: 1.5"/>
    </g>
    <g id="text_29">
     <!-- AdaBalance -->
     <g transform="translate(346.693438 296.504312)scale(0.1 -0.1)">
      <defs>
       <path id="DejaVuSans-6c" d="M 603 4863 
L 1178 4863 
L 1178 0 
L 603 0 
L 603 4863 
z
" transform="scale(0.015625)"/>
      </defs>
      <use xlink:href="#DejaVuSans-41"/>
      <use xlink:href="#DejaVuSans-64" x="66.658203"/>
      <use xlink:href="#DejaVuSans-61" x="130.134766"/>
      <use xlink:href="#DejaVuSans-42" x="191.414062"/>
      <use xlink:href="#DejaVuSans-61" x="260.017578"/>
      <use xlink:href="#DejaVuSans-6c" x="321.296875"/>
      <use xlink:href="#DejaVuSans-61" x="349.080078"/>
      <use xlink:href="#DejaVuSans-6e" x="410.359375"/>
      <use xlink:href="#DejaVuSans-63" x="473.738281"/>
      <use xlink:href="#DejaVuSans-65" x="528.71875"/>
     </g>
    </g>
   </g>
  </g>
 </g>
 <defs>
  <clipPath id="p55b51b0db0">
   <rect x="57.6" y="41.472" width="357.12" height="266.112"/>
  </clipPath>
 </defs>
</svg>
